G04 #@! TF.GenerationSoftware,KiCad,Pcbnew,(5.1.2)-2*
G04 #@! TF.CreationDate,2019-06-19T20:54:41-05:00*
G04 #@! TF.ProjectId,BlastersRev2,426c6173-7465-4727-9352-6576322e6b69,rev?*
G04 #@! TF.SameCoordinates,Original*
G04 #@! TF.FileFunction,Legend,Top*
G04 #@! TF.FilePolarity,Positive*
%FSLAX46Y46*%
G04 Gerber Fmt 4.6, Leading zero omitted, Abs format (unit mm)*
G04 Created by KiCad (PCBNEW (5.1.2)-2) date 2019-06-19 20:54:41*
%MOMM*%
%LPD*%
G04 APERTURE LIST*
%ADD10C,0.120000*%
%ADD11C,0.150000*%
%ADD12C,0.381000*%
G04 APERTURE END LIST*
D10*
X106120000Y-60190000D02*
X106120000Y-62190000D01*
X103320000Y-60190000D02*
X106120000Y-60190000D01*
X103320000Y-62190000D02*
X103320000Y-60190000D01*
X106120000Y-62190000D02*
X103320000Y-62190000D01*
D11*
X90193750Y-59912500D02*
X84593750Y-59912500D01*
X84593750Y-61912500D02*
X84593750Y-59912500D01*
X90193750Y-61912500D02*
X90193750Y-59912500D01*
X84343750Y-61912500D02*
X84343750Y-74012500D01*
X90443750Y-61912500D02*
X90443750Y-74012500D01*
X90443750Y-74012500D02*
X84343750Y-74012500D01*
X90443750Y-61912500D02*
X84343750Y-61912500D01*
X140335000Y-85693250D02*
X145415000Y-85693250D01*
X145415000Y-85693250D02*
X145415000Y-84169250D01*
X145415000Y-84169250D02*
X140335000Y-84169250D01*
X140335000Y-84169250D02*
X140335000Y-85693250D01*
X140335000Y-85693250D02*
X140843000Y-85693250D01*
X145034000Y-85693250D02*
X145034000Y-84169250D01*
X145161000Y-84169250D02*
X145161000Y-85693250D01*
X145288000Y-85693250D02*
X145288000Y-84169250D01*
X144907000Y-84169250D02*
X144907000Y-85693250D01*
X144780000Y-85693250D02*
X144780000Y-84169250D01*
X144653000Y-85693250D02*
X144653000Y-84169250D01*
X144653000Y-104743250D02*
X144653000Y-103219250D01*
X144780000Y-104743250D02*
X144780000Y-103219250D01*
X144907000Y-103219250D02*
X144907000Y-104743250D01*
X145288000Y-104743250D02*
X145288000Y-103219250D01*
X145161000Y-103219250D02*
X145161000Y-104743250D01*
X145034000Y-104743250D02*
X145034000Y-103219250D01*
X140335000Y-104743250D02*
X140843000Y-104743250D01*
X140335000Y-103219250D02*
X140335000Y-104743250D01*
X145415000Y-103219250D02*
X140335000Y-103219250D01*
X145415000Y-104743250D02*
X145415000Y-103219250D01*
X140335000Y-104743250D02*
X145415000Y-104743250D01*
X140335000Y-123793250D02*
X145415000Y-123793250D01*
X145415000Y-123793250D02*
X145415000Y-122269250D01*
X145415000Y-122269250D02*
X140335000Y-122269250D01*
X140335000Y-122269250D02*
X140335000Y-123793250D01*
X140335000Y-123793250D02*
X140843000Y-123793250D01*
X145034000Y-123793250D02*
X145034000Y-122269250D01*
X145161000Y-122269250D02*
X145161000Y-123793250D01*
X145288000Y-123793250D02*
X145288000Y-122269250D01*
X144907000Y-122269250D02*
X144907000Y-123793250D01*
X144780000Y-123793250D02*
X144780000Y-122269250D01*
X144653000Y-123793250D02*
X144653000Y-122269250D01*
X144653000Y-142843250D02*
X144653000Y-141319250D01*
X144780000Y-142843250D02*
X144780000Y-141319250D01*
X144907000Y-141319250D02*
X144907000Y-142843250D01*
X145288000Y-142843250D02*
X145288000Y-141319250D01*
X145161000Y-141319250D02*
X145161000Y-142843250D01*
X145034000Y-142843250D02*
X145034000Y-141319250D01*
X140335000Y-142843250D02*
X140843000Y-142843250D01*
X140335000Y-141319250D02*
X140335000Y-142843250D01*
X145415000Y-141319250D02*
X140335000Y-141319250D01*
X145415000Y-142843250D02*
X145415000Y-141319250D01*
X140335000Y-142843250D02*
X145415000Y-142843250D01*
X159385000Y-85693250D02*
X164465000Y-85693250D01*
X164465000Y-85693250D02*
X164465000Y-84169250D01*
X164465000Y-84169250D02*
X159385000Y-84169250D01*
X159385000Y-84169250D02*
X159385000Y-85693250D01*
X159385000Y-85693250D02*
X159893000Y-85693250D01*
X164084000Y-85693250D02*
X164084000Y-84169250D01*
X164211000Y-84169250D02*
X164211000Y-85693250D01*
X164338000Y-85693250D02*
X164338000Y-84169250D01*
X163957000Y-84169250D02*
X163957000Y-85693250D01*
X163830000Y-85693250D02*
X163830000Y-84169250D01*
X163703000Y-85693250D02*
X163703000Y-84169250D01*
X163703000Y-104743250D02*
X163703000Y-103219250D01*
X163830000Y-104743250D02*
X163830000Y-103219250D01*
X163957000Y-103219250D02*
X163957000Y-104743250D01*
X164338000Y-104743250D02*
X164338000Y-103219250D01*
X164211000Y-103219250D02*
X164211000Y-104743250D01*
X164084000Y-104743250D02*
X164084000Y-103219250D01*
X159385000Y-104743250D02*
X159893000Y-104743250D01*
X159385000Y-103219250D02*
X159385000Y-104743250D01*
X164465000Y-103219250D02*
X159385000Y-103219250D01*
X164465000Y-104743250D02*
X164465000Y-103219250D01*
X159385000Y-104743250D02*
X164465000Y-104743250D01*
X159385000Y-123793250D02*
X164465000Y-123793250D01*
X164465000Y-123793250D02*
X164465000Y-122269250D01*
X164465000Y-122269250D02*
X159385000Y-122269250D01*
X159385000Y-122269250D02*
X159385000Y-123793250D01*
X159385000Y-123793250D02*
X159893000Y-123793250D01*
X164084000Y-123793250D02*
X164084000Y-122269250D01*
X164211000Y-122269250D02*
X164211000Y-123793250D01*
X164338000Y-123793250D02*
X164338000Y-122269250D01*
X163957000Y-122269250D02*
X163957000Y-123793250D01*
X163830000Y-123793250D02*
X163830000Y-122269250D01*
X163703000Y-123793250D02*
X163703000Y-122269250D01*
X163703000Y-142843250D02*
X163703000Y-141319250D01*
X163830000Y-142843250D02*
X163830000Y-141319250D01*
X163957000Y-141319250D02*
X163957000Y-142843250D01*
X164338000Y-142843250D02*
X164338000Y-141319250D01*
X164211000Y-141319250D02*
X164211000Y-142843250D01*
X164084000Y-142843250D02*
X164084000Y-141319250D01*
X159385000Y-142843250D02*
X159893000Y-142843250D01*
X159385000Y-141319250D02*
X159385000Y-142843250D01*
X164465000Y-141319250D02*
X159385000Y-141319250D01*
X164465000Y-142843250D02*
X164465000Y-141319250D01*
X159385000Y-142843250D02*
X164465000Y-142843250D01*
X159385000Y-161893250D02*
X164465000Y-161893250D01*
X164465000Y-161893250D02*
X164465000Y-160369250D01*
X164465000Y-160369250D02*
X159385000Y-160369250D01*
X159385000Y-160369250D02*
X159385000Y-161893250D01*
X159385000Y-161893250D02*
X159893000Y-161893250D01*
X164084000Y-161893250D02*
X164084000Y-160369250D01*
X164211000Y-160369250D02*
X164211000Y-161893250D01*
X164338000Y-161893250D02*
X164338000Y-160369250D01*
X163957000Y-160369250D02*
X163957000Y-161893250D01*
X163830000Y-161893250D02*
X163830000Y-160369250D01*
X163703000Y-161893250D02*
X163703000Y-160369250D01*
X182753000Y-85693250D02*
X182753000Y-84169250D01*
X182880000Y-85693250D02*
X182880000Y-84169250D01*
X183007000Y-84169250D02*
X183007000Y-85693250D01*
X183388000Y-85693250D02*
X183388000Y-84169250D01*
X183261000Y-84169250D02*
X183261000Y-85693250D01*
X183134000Y-85693250D02*
X183134000Y-84169250D01*
X178435000Y-85693250D02*
X178943000Y-85693250D01*
X178435000Y-84169250D02*
X178435000Y-85693250D01*
X183515000Y-84169250D02*
X178435000Y-84169250D01*
X183515000Y-85693250D02*
X183515000Y-84169250D01*
X178435000Y-85693250D02*
X183515000Y-85693250D01*
X178435000Y-104743250D02*
X183515000Y-104743250D01*
X183515000Y-104743250D02*
X183515000Y-103219250D01*
X183515000Y-103219250D02*
X178435000Y-103219250D01*
X178435000Y-103219250D02*
X178435000Y-104743250D01*
X178435000Y-104743250D02*
X178943000Y-104743250D01*
X183134000Y-104743250D02*
X183134000Y-103219250D01*
X183261000Y-103219250D02*
X183261000Y-104743250D01*
X183388000Y-104743250D02*
X183388000Y-103219250D01*
X183007000Y-103219250D02*
X183007000Y-104743250D01*
X182880000Y-104743250D02*
X182880000Y-103219250D01*
X182753000Y-104743250D02*
X182753000Y-103219250D01*
X182753000Y-123793250D02*
X182753000Y-122269250D01*
X182880000Y-123793250D02*
X182880000Y-122269250D01*
X183007000Y-122269250D02*
X183007000Y-123793250D01*
X183388000Y-123793250D02*
X183388000Y-122269250D01*
X183261000Y-122269250D02*
X183261000Y-123793250D01*
X183134000Y-123793250D02*
X183134000Y-122269250D01*
X178435000Y-123793250D02*
X178943000Y-123793250D01*
X178435000Y-122269250D02*
X178435000Y-123793250D01*
X183515000Y-122269250D02*
X178435000Y-122269250D01*
X183515000Y-123793250D02*
X183515000Y-122269250D01*
X178435000Y-123793250D02*
X183515000Y-123793250D01*
X189363839Y-162487545D02*
X191903839Y-166886955D01*
X191903839Y-166886955D02*
X193223661Y-166124955D01*
X193223661Y-166124955D02*
X190683661Y-161725545D01*
X190683661Y-161725545D02*
X189363839Y-162487545D01*
X189363839Y-162487545D02*
X189617839Y-162927486D01*
X191713339Y-166556999D02*
X193033161Y-165794999D01*
X193096661Y-165904984D02*
X191776839Y-166666984D01*
X191840339Y-166776969D02*
X193160161Y-166014969D01*
X192969661Y-165685014D02*
X191649839Y-166447014D01*
X191586339Y-166337028D02*
X192906161Y-165575028D01*
X191522839Y-166227043D02*
X192842661Y-165465043D01*
X68453000Y-114268250D02*
X68453000Y-112744250D01*
X68580000Y-114268250D02*
X68580000Y-112744250D01*
X68707000Y-112744250D02*
X68707000Y-114268250D01*
X69088000Y-114268250D02*
X69088000Y-112744250D01*
X68961000Y-112744250D02*
X68961000Y-114268250D01*
X68834000Y-114268250D02*
X68834000Y-112744250D01*
X64135000Y-114268250D02*
X64643000Y-114268250D01*
X64135000Y-112744250D02*
X64135000Y-114268250D01*
X69215000Y-112744250D02*
X64135000Y-112744250D01*
X69215000Y-114268250D02*
X69215000Y-112744250D01*
X64135000Y-114268250D02*
X69215000Y-114268250D01*
X121285000Y-114268250D02*
X126365000Y-114268250D01*
X126365000Y-114268250D02*
X126365000Y-112744250D01*
X126365000Y-112744250D02*
X121285000Y-112744250D01*
X121285000Y-112744250D02*
X121285000Y-114268250D01*
X121285000Y-114268250D02*
X121793000Y-114268250D01*
X125984000Y-114268250D02*
X125984000Y-112744250D01*
X126111000Y-112744250D02*
X126111000Y-114268250D01*
X126238000Y-114268250D02*
X126238000Y-112744250D01*
X125857000Y-112744250D02*
X125857000Y-114268250D01*
X125730000Y-114268250D02*
X125730000Y-112744250D01*
X125603000Y-114268250D02*
X125603000Y-112744250D01*
X125603000Y-133318250D02*
X125603000Y-131794250D01*
X125730000Y-133318250D02*
X125730000Y-131794250D01*
X125857000Y-131794250D02*
X125857000Y-133318250D01*
X126238000Y-133318250D02*
X126238000Y-131794250D01*
X126111000Y-131794250D02*
X126111000Y-133318250D01*
X125984000Y-133318250D02*
X125984000Y-131794250D01*
X121285000Y-133318250D02*
X121793000Y-133318250D01*
X121285000Y-131794250D02*
X121285000Y-133318250D01*
X126365000Y-131794250D02*
X121285000Y-131794250D01*
X126365000Y-133318250D02*
X126365000Y-131794250D01*
X121285000Y-133318250D02*
X126365000Y-133318250D01*
X176258883Y-147174014D02*
X179850986Y-150766117D01*
X179850986Y-150766117D02*
X180928617Y-149688486D01*
X180928617Y-149688486D02*
X177336514Y-146096383D01*
X177336514Y-146096383D02*
X176258883Y-147174014D01*
X176258883Y-147174014D02*
X176618094Y-147533224D01*
X179581578Y-150496709D02*
X180659209Y-149419078D01*
X180749011Y-149508881D02*
X179671381Y-150586511D01*
X179761183Y-150676314D02*
X180838814Y-149598683D01*
X180569406Y-149329276D02*
X179491776Y-150406906D01*
X179401973Y-150317104D02*
X180479604Y-149239473D01*
X179312170Y-150227301D02*
X180389801Y-149149670D01*
X68453000Y-95218250D02*
X68453000Y-93694250D01*
X68580000Y-95218250D02*
X68580000Y-93694250D01*
X68707000Y-93694250D02*
X68707000Y-95218250D01*
X69088000Y-95218250D02*
X69088000Y-93694250D01*
X68961000Y-93694250D02*
X68961000Y-95218250D01*
X68834000Y-95218250D02*
X68834000Y-93694250D01*
X64135000Y-95218250D02*
X64643000Y-95218250D01*
X64135000Y-93694250D02*
X64135000Y-95218250D01*
X69215000Y-93694250D02*
X64135000Y-93694250D01*
X69215000Y-95218250D02*
X69215000Y-93694250D01*
X64135000Y-95218250D02*
X69215000Y-95218250D01*
X64135000Y-133318250D02*
X69215000Y-133318250D01*
X69215000Y-133318250D02*
X69215000Y-131794250D01*
X69215000Y-131794250D02*
X64135000Y-131794250D01*
X64135000Y-131794250D02*
X64135000Y-133318250D01*
X64135000Y-133318250D02*
X64643000Y-133318250D01*
X68834000Y-133318250D02*
X68834000Y-131794250D01*
X68961000Y-131794250D02*
X68961000Y-133318250D01*
X69088000Y-133318250D02*
X69088000Y-131794250D01*
X68707000Y-131794250D02*
X68707000Y-133318250D01*
X68580000Y-133318250D02*
X68580000Y-131794250D01*
X68453000Y-133318250D02*
X68453000Y-131794250D01*
X68453000Y-152368250D02*
X68453000Y-150844250D01*
X68580000Y-152368250D02*
X68580000Y-150844250D01*
X68707000Y-150844250D02*
X68707000Y-152368250D01*
X69088000Y-152368250D02*
X69088000Y-150844250D01*
X68961000Y-150844250D02*
X68961000Y-152368250D01*
X68834000Y-152368250D02*
X68834000Y-150844250D01*
X64135000Y-152368250D02*
X64643000Y-152368250D01*
X64135000Y-150844250D02*
X64135000Y-152368250D01*
X69215000Y-150844250D02*
X64135000Y-150844250D01*
X69215000Y-152368250D02*
X69215000Y-150844250D01*
X64135000Y-152368250D02*
X69215000Y-152368250D01*
X83185000Y-95218250D02*
X88265000Y-95218250D01*
X88265000Y-95218250D02*
X88265000Y-93694250D01*
X88265000Y-93694250D02*
X83185000Y-93694250D01*
X83185000Y-93694250D02*
X83185000Y-95218250D01*
X83185000Y-95218250D02*
X83693000Y-95218250D01*
X87884000Y-95218250D02*
X87884000Y-93694250D01*
X88011000Y-93694250D02*
X88011000Y-95218250D01*
X88138000Y-95218250D02*
X88138000Y-93694250D01*
X87757000Y-93694250D02*
X87757000Y-95218250D01*
X87630000Y-95218250D02*
X87630000Y-93694250D01*
X87503000Y-95218250D02*
X87503000Y-93694250D01*
X87503000Y-114268250D02*
X87503000Y-112744250D01*
X87630000Y-114268250D02*
X87630000Y-112744250D01*
X87757000Y-112744250D02*
X87757000Y-114268250D01*
X88138000Y-114268250D02*
X88138000Y-112744250D01*
X88011000Y-112744250D02*
X88011000Y-114268250D01*
X87884000Y-114268250D02*
X87884000Y-112744250D01*
X83185000Y-114268250D02*
X83693000Y-114268250D01*
X83185000Y-112744250D02*
X83185000Y-114268250D01*
X88265000Y-112744250D02*
X83185000Y-112744250D01*
X88265000Y-114268250D02*
X88265000Y-112744250D01*
X83185000Y-114268250D02*
X88265000Y-114268250D01*
X83185000Y-133318250D02*
X88265000Y-133318250D01*
X88265000Y-133318250D02*
X88265000Y-131794250D01*
X88265000Y-131794250D02*
X83185000Y-131794250D01*
X83185000Y-131794250D02*
X83185000Y-133318250D01*
X83185000Y-133318250D02*
X83693000Y-133318250D01*
X87884000Y-133318250D02*
X87884000Y-131794250D01*
X88011000Y-131794250D02*
X88011000Y-133318250D01*
X88138000Y-133318250D02*
X88138000Y-131794250D01*
X87757000Y-131794250D02*
X87757000Y-133318250D01*
X87630000Y-133318250D02*
X87630000Y-131794250D01*
X87503000Y-133318250D02*
X87503000Y-131794250D01*
X87503000Y-152368250D02*
X87503000Y-150844250D01*
X87630000Y-152368250D02*
X87630000Y-150844250D01*
X87757000Y-150844250D02*
X87757000Y-152368250D01*
X88138000Y-152368250D02*
X88138000Y-150844250D01*
X88011000Y-150844250D02*
X88011000Y-152368250D01*
X87884000Y-152368250D02*
X87884000Y-150844250D01*
X83185000Y-152368250D02*
X83693000Y-152368250D01*
X83185000Y-150844250D02*
X83185000Y-152368250D01*
X88265000Y-150844250D02*
X83185000Y-150844250D01*
X88265000Y-152368250D02*
X88265000Y-150844250D01*
X83185000Y-152368250D02*
X88265000Y-152368250D01*
X106553000Y-80930750D02*
X106553000Y-79406750D01*
X106680000Y-80930750D02*
X106680000Y-79406750D01*
X106807000Y-79406750D02*
X106807000Y-80930750D01*
X107188000Y-80930750D02*
X107188000Y-79406750D01*
X107061000Y-79406750D02*
X107061000Y-80930750D01*
X106934000Y-80930750D02*
X106934000Y-79406750D01*
X102235000Y-80930750D02*
X102743000Y-80930750D01*
X102235000Y-79406750D02*
X102235000Y-80930750D01*
X107315000Y-79406750D02*
X102235000Y-79406750D01*
X107315000Y-80930750D02*
X107315000Y-79406750D01*
X102235000Y-80930750D02*
X107315000Y-80930750D01*
X102235000Y-99980750D02*
X107315000Y-99980750D01*
X107315000Y-99980750D02*
X107315000Y-98456750D01*
X107315000Y-98456750D02*
X102235000Y-98456750D01*
X102235000Y-98456750D02*
X102235000Y-99980750D01*
X102235000Y-99980750D02*
X102743000Y-99980750D01*
X106934000Y-99980750D02*
X106934000Y-98456750D01*
X107061000Y-98456750D02*
X107061000Y-99980750D01*
X107188000Y-99980750D02*
X107188000Y-98456750D01*
X106807000Y-98456750D02*
X106807000Y-99980750D01*
X106680000Y-99980750D02*
X106680000Y-98456750D01*
X106553000Y-99980750D02*
X106553000Y-98456750D01*
X106553000Y-119030750D02*
X106553000Y-117506750D01*
X106680000Y-119030750D02*
X106680000Y-117506750D01*
X106807000Y-117506750D02*
X106807000Y-119030750D01*
X107188000Y-119030750D02*
X107188000Y-117506750D01*
X107061000Y-117506750D02*
X107061000Y-119030750D01*
X106934000Y-119030750D02*
X106934000Y-117506750D01*
X102235000Y-119030750D02*
X102743000Y-119030750D01*
X102235000Y-117506750D02*
X102235000Y-119030750D01*
X107315000Y-117506750D02*
X102235000Y-117506750D01*
X107315000Y-119030750D02*
X107315000Y-117506750D01*
X102235000Y-119030750D02*
X107315000Y-119030750D01*
X102235000Y-138080750D02*
X107315000Y-138080750D01*
X107315000Y-138080750D02*
X107315000Y-136556750D01*
X107315000Y-136556750D02*
X102235000Y-136556750D01*
X102235000Y-136556750D02*
X102235000Y-138080750D01*
X102235000Y-138080750D02*
X102743000Y-138080750D01*
X106934000Y-138080750D02*
X106934000Y-136556750D01*
X107061000Y-136556750D02*
X107061000Y-138080750D01*
X107188000Y-138080750D02*
X107188000Y-136556750D01*
X106807000Y-136556750D02*
X106807000Y-138080750D01*
X106680000Y-138080750D02*
X106680000Y-136556750D01*
X106553000Y-138080750D02*
X106553000Y-136556750D01*
X121285000Y-75374500D02*
X126365000Y-75374500D01*
X126365000Y-75374500D02*
X126365000Y-73850500D01*
X126365000Y-73850500D02*
X121285000Y-73850500D01*
X121285000Y-73850500D02*
X121285000Y-75374500D01*
X121285000Y-75374500D02*
X121793000Y-75374500D01*
X125984000Y-75374500D02*
X125984000Y-73850500D01*
X126111000Y-73850500D02*
X126111000Y-75374500D01*
X126238000Y-75374500D02*
X126238000Y-73850500D01*
X125857000Y-73850500D02*
X125857000Y-75374500D01*
X125730000Y-75374500D02*
X125730000Y-73850500D01*
X125603000Y-75374500D02*
X125603000Y-73850500D01*
X125603000Y-95218250D02*
X125603000Y-93694250D01*
X125730000Y-95218250D02*
X125730000Y-93694250D01*
X125857000Y-93694250D02*
X125857000Y-95218250D01*
X126238000Y-95218250D02*
X126238000Y-93694250D01*
X126111000Y-93694250D02*
X126111000Y-95218250D01*
X125984000Y-95218250D02*
X125984000Y-93694250D01*
X121285000Y-95218250D02*
X121793000Y-95218250D01*
X121285000Y-93694250D02*
X121285000Y-95218250D01*
X126365000Y-93694250D02*
X121285000Y-93694250D01*
X126365000Y-95218250D02*
X126365000Y-93694250D01*
X121285000Y-95218250D02*
X126365000Y-95218250D01*
D12*
X130175000Y-58737500D02*
X132715000Y-58737500D01*
X130175000Y-56197500D02*
X130175000Y-58737500D01*
D11*
G36*
X117780365Y-62486530D02*
G01*
X117780365Y-62586530D01*
X117680365Y-62586530D01*
X117680365Y-62486530D01*
X117780365Y-62486530D01*
G37*
X117780365Y-62486530D02*
X117780365Y-62586530D01*
X117680365Y-62586530D01*
X117680365Y-62486530D01*
X117780365Y-62486530D01*
G36*
X117580365Y-62086530D02*
G01*
X117580365Y-62886530D01*
X117480365Y-62886530D01*
X117480365Y-62086530D01*
X117580365Y-62086530D01*
G37*
X117580365Y-62086530D02*
X117580365Y-62886530D01*
X117480365Y-62886530D01*
X117480365Y-62086530D01*
X117580365Y-62086530D01*
G36*
X117980365Y-62686530D02*
G01*
X117980365Y-62886530D01*
X117880365Y-62886530D01*
X117880365Y-62686530D01*
X117980365Y-62686530D01*
G37*
X117980365Y-62686530D02*
X117980365Y-62886530D01*
X117880365Y-62886530D01*
X117880365Y-62686530D01*
X117980365Y-62686530D01*
G36*
X117980365Y-62086530D02*
G01*
X117980365Y-62386530D01*
X117880365Y-62386530D01*
X117880365Y-62086530D01*
X117980365Y-62086530D01*
G37*
X117980365Y-62086530D02*
X117980365Y-62386530D01*
X117880365Y-62386530D01*
X117880365Y-62086530D01*
X117980365Y-62086530D01*
G36*
X117980365Y-62086530D02*
G01*
X117980365Y-62186530D01*
X117480365Y-62186530D01*
X117480365Y-62086530D01*
X117980365Y-62086530D01*
G37*
X117980365Y-62086530D02*
X117980365Y-62186530D01*
X117480365Y-62186530D01*
X117480365Y-62086530D01*
X117980365Y-62086530D01*
D12*
X114935000Y-86677500D02*
X114935000Y-53657500D01*
X132715000Y-86677500D02*
X114935000Y-86677500D01*
X132715000Y-53657500D02*
X132715000Y-86677500D01*
X114935000Y-53657500D02*
X132715000Y-53657500D01*
X130175000Y-56197500D02*
X132715000Y-56197500D01*
D11*
X136150000Y-104775000D02*
G75*
G03X136150000Y-104775000I-2800000J0D01*
G01*
X103886666Y-62442380D02*
X103886666Y-63156666D01*
X103839047Y-63299523D01*
X103743809Y-63394761D01*
X103600952Y-63442380D01*
X103505714Y-63442380D01*
X104362857Y-63442380D02*
X104362857Y-62442380D01*
X104743809Y-62442380D01*
X104839047Y-62490000D01*
X104886666Y-62537619D01*
X104934285Y-62632857D01*
X104934285Y-62775714D01*
X104886666Y-62870952D01*
X104839047Y-62918571D01*
X104743809Y-62966190D01*
X104362857Y-62966190D01*
X105886666Y-63442380D02*
X105315238Y-63442380D01*
X105600952Y-63442380D02*
X105600952Y-62442380D01*
X105505714Y-62585238D01*
X105410476Y-62680476D01*
X105315238Y-62728095D01*
X86146130Y-70281547D02*
X85146130Y-70281547D01*
X85146130Y-69900595D01*
X85193750Y-69805357D01*
X85241369Y-69757738D01*
X85336607Y-69710119D01*
X85479464Y-69710119D01*
X85574702Y-69757738D01*
X85622321Y-69805357D01*
X85669940Y-69900595D01*
X85669940Y-70281547D01*
X85146130Y-68995833D02*
X85860416Y-68995833D01*
X86003273Y-69043452D01*
X86098511Y-69138690D01*
X86146130Y-69281547D01*
X86146130Y-69376785D01*
X85765178Y-68519642D02*
X85765178Y-67757738D01*
X85146130Y-67376785D02*
X85146130Y-66757738D01*
X85527083Y-67091071D01*
X85527083Y-66948214D01*
X85574702Y-66852976D01*
X85622321Y-66805357D01*
X85717559Y-66757738D01*
X85955654Y-66757738D01*
X86050892Y-66805357D01*
X86098511Y-66852976D01*
X86146130Y-66948214D01*
X86146130Y-67233928D01*
X86098511Y-67329166D01*
X86050892Y-67376785D01*
X85241369Y-66376785D02*
X85193750Y-66329166D01*
X85146130Y-66233928D01*
X85146130Y-65995833D01*
X85193750Y-65900595D01*
X85241369Y-65852976D01*
X85336607Y-65805357D01*
X85431845Y-65805357D01*
X85574702Y-65852976D01*
X86146130Y-66424404D01*
X86146130Y-65805357D01*
X85146130Y-65186309D02*
X85146130Y-65091071D01*
X85193750Y-64995833D01*
X85241369Y-64948214D01*
X85336607Y-64900595D01*
X85527083Y-64852976D01*
X85765178Y-64852976D01*
X85955654Y-64900595D01*
X86050892Y-64948214D01*
X86098511Y-64995833D01*
X86146130Y-65091071D01*
X86146130Y-65186309D01*
X86098511Y-65281547D01*
X86050892Y-65329166D01*
X85955654Y-65376785D01*
X85765178Y-65424404D01*
X85527083Y-65424404D01*
X85336607Y-65376785D01*
X85241369Y-65329166D01*
X85193750Y-65281547D01*
X85146130Y-65186309D01*
X85860416Y-64472023D02*
X85860416Y-63995833D01*
X86146130Y-64567261D02*
X85146130Y-64233928D01*
X86146130Y-63900595D01*
X141878171Y-86693154D02*
X141878171Y-85893154D01*
X142068647Y-85893154D01*
X142182933Y-85931250D01*
X142259123Y-86007440D01*
X142297219Y-86083630D01*
X142335314Y-86236011D01*
X142335314Y-86350297D01*
X142297219Y-86502678D01*
X142259123Y-86578869D01*
X142182933Y-86655059D01*
X142068647Y-86693154D01*
X141878171Y-86693154D01*
X143097219Y-86693154D02*
X142640076Y-86693154D01*
X142868647Y-86693154D02*
X142868647Y-85893154D01*
X142792457Y-86007440D01*
X142716266Y-86083630D01*
X142640076Y-86121726D01*
X143363885Y-85893154D02*
X143897219Y-85893154D01*
X143554361Y-86693154D01*
X141878171Y-105743154D02*
X141878171Y-104943154D01*
X142068647Y-104943154D01*
X142182933Y-104981250D01*
X142259123Y-105057440D01*
X142297219Y-105133630D01*
X142335314Y-105286011D01*
X142335314Y-105400297D01*
X142297219Y-105552678D01*
X142259123Y-105628869D01*
X142182933Y-105705059D01*
X142068647Y-105743154D01*
X141878171Y-105743154D01*
X143097219Y-105743154D02*
X142640076Y-105743154D01*
X142868647Y-105743154D02*
X142868647Y-104943154D01*
X142792457Y-105057440D01*
X142716266Y-105133630D01*
X142640076Y-105171726D01*
X143554361Y-105286011D02*
X143478171Y-105247916D01*
X143440076Y-105209821D01*
X143401980Y-105133630D01*
X143401980Y-105095535D01*
X143440076Y-105019345D01*
X143478171Y-104981250D01*
X143554361Y-104943154D01*
X143706742Y-104943154D01*
X143782933Y-104981250D01*
X143821028Y-105019345D01*
X143859123Y-105095535D01*
X143859123Y-105133630D01*
X143821028Y-105209821D01*
X143782933Y-105247916D01*
X143706742Y-105286011D01*
X143554361Y-105286011D01*
X143478171Y-105324107D01*
X143440076Y-105362202D01*
X143401980Y-105438392D01*
X143401980Y-105590773D01*
X143440076Y-105666964D01*
X143478171Y-105705059D01*
X143554361Y-105743154D01*
X143706742Y-105743154D01*
X143782933Y-105705059D01*
X143821028Y-105666964D01*
X143859123Y-105590773D01*
X143859123Y-105438392D01*
X143821028Y-105362202D01*
X143782933Y-105324107D01*
X143706742Y-105286011D01*
X141878171Y-124793154D02*
X141878171Y-123993154D01*
X142068647Y-123993154D01*
X142182933Y-124031250D01*
X142259123Y-124107440D01*
X142297219Y-124183630D01*
X142335314Y-124336011D01*
X142335314Y-124450297D01*
X142297219Y-124602678D01*
X142259123Y-124678869D01*
X142182933Y-124755059D01*
X142068647Y-124793154D01*
X141878171Y-124793154D01*
X143097219Y-124793154D02*
X142640076Y-124793154D01*
X142868647Y-124793154D02*
X142868647Y-123993154D01*
X142792457Y-124107440D01*
X142716266Y-124183630D01*
X142640076Y-124221726D01*
X143478171Y-124793154D02*
X143630552Y-124793154D01*
X143706742Y-124755059D01*
X143744838Y-124716964D01*
X143821028Y-124602678D01*
X143859123Y-124450297D01*
X143859123Y-124145535D01*
X143821028Y-124069345D01*
X143782933Y-124031250D01*
X143706742Y-123993154D01*
X143554361Y-123993154D01*
X143478171Y-124031250D01*
X143440076Y-124069345D01*
X143401980Y-124145535D01*
X143401980Y-124336011D01*
X143440076Y-124412202D01*
X143478171Y-124450297D01*
X143554361Y-124488392D01*
X143706742Y-124488392D01*
X143782933Y-124450297D01*
X143821028Y-124412202D01*
X143859123Y-124336011D01*
X141878171Y-143843154D02*
X141878171Y-143043154D01*
X142068647Y-143043154D01*
X142182933Y-143081250D01*
X142259123Y-143157440D01*
X142297219Y-143233630D01*
X142335314Y-143386011D01*
X142335314Y-143500297D01*
X142297219Y-143652678D01*
X142259123Y-143728869D01*
X142182933Y-143805059D01*
X142068647Y-143843154D01*
X141878171Y-143843154D01*
X142640076Y-143119345D02*
X142678171Y-143081250D01*
X142754361Y-143043154D01*
X142944838Y-143043154D01*
X143021028Y-143081250D01*
X143059123Y-143119345D01*
X143097219Y-143195535D01*
X143097219Y-143271726D01*
X143059123Y-143386011D01*
X142601980Y-143843154D01*
X143097219Y-143843154D01*
X143592457Y-143043154D02*
X143668647Y-143043154D01*
X143744838Y-143081250D01*
X143782933Y-143119345D01*
X143821028Y-143195535D01*
X143859123Y-143347916D01*
X143859123Y-143538392D01*
X143821028Y-143690773D01*
X143782933Y-143766964D01*
X143744838Y-143805059D01*
X143668647Y-143843154D01*
X143592457Y-143843154D01*
X143516266Y-143805059D01*
X143478171Y-143766964D01*
X143440076Y-143690773D01*
X143401980Y-143538392D01*
X143401980Y-143347916D01*
X143440076Y-143195535D01*
X143478171Y-143119345D01*
X143516266Y-143081250D01*
X143592457Y-143043154D01*
X160928171Y-86693154D02*
X160928171Y-85893154D01*
X161118647Y-85893154D01*
X161232933Y-85931250D01*
X161309123Y-86007440D01*
X161347219Y-86083630D01*
X161385314Y-86236011D01*
X161385314Y-86350297D01*
X161347219Y-86502678D01*
X161309123Y-86578869D01*
X161232933Y-86655059D01*
X161118647Y-86693154D01*
X160928171Y-86693154D01*
X161690076Y-85969345D02*
X161728171Y-85931250D01*
X161804361Y-85893154D01*
X161994838Y-85893154D01*
X162071028Y-85931250D01*
X162109123Y-85969345D01*
X162147219Y-86045535D01*
X162147219Y-86121726D01*
X162109123Y-86236011D01*
X161651980Y-86693154D01*
X162147219Y-86693154D01*
X162909123Y-86693154D02*
X162451980Y-86693154D01*
X162680552Y-86693154D02*
X162680552Y-85893154D01*
X162604361Y-86007440D01*
X162528171Y-86083630D01*
X162451980Y-86121726D01*
X160928171Y-105743154D02*
X160928171Y-104943154D01*
X161118647Y-104943154D01*
X161232933Y-104981250D01*
X161309123Y-105057440D01*
X161347219Y-105133630D01*
X161385314Y-105286011D01*
X161385314Y-105400297D01*
X161347219Y-105552678D01*
X161309123Y-105628869D01*
X161232933Y-105705059D01*
X161118647Y-105743154D01*
X160928171Y-105743154D01*
X161690076Y-105019345D02*
X161728171Y-104981250D01*
X161804361Y-104943154D01*
X161994838Y-104943154D01*
X162071028Y-104981250D01*
X162109123Y-105019345D01*
X162147219Y-105095535D01*
X162147219Y-105171726D01*
X162109123Y-105286011D01*
X161651980Y-105743154D01*
X162147219Y-105743154D01*
X162451980Y-105019345D02*
X162490076Y-104981250D01*
X162566266Y-104943154D01*
X162756742Y-104943154D01*
X162832933Y-104981250D01*
X162871028Y-105019345D01*
X162909123Y-105095535D01*
X162909123Y-105171726D01*
X162871028Y-105286011D01*
X162413885Y-105743154D01*
X162909123Y-105743154D01*
X160928171Y-124793154D02*
X160928171Y-123993154D01*
X161118647Y-123993154D01*
X161232933Y-124031250D01*
X161309123Y-124107440D01*
X161347219Y-124183630D01*
X161385314Y-124336011D01*
X161385314Y-124450297D01*
X161347219Y-124602678D01*
X161309123Y-124678869D01*
X161232933Y-124755059D01*
X161118647Y-124793154D01*
X160928171Y-124793154D01*
X161690076Y-124069345D02*
X161728171Y-124031250D01*
X161804361Y-123993154D01*
X161994838Y-123993154D01*
X162071028Y-124031250D01*
X162109123Y-124069345D01*
X162147219Y-124145535D01*
X162147219Y-124221726D01*
X162109123Y-124336011D01*
X161651980Y-124793154D01*
X162147219Y-124793154D01*
X162413885Y-123993154D02*
X162909123Y-123993154D01*
X162642457Y-124297916D01*
X162756742Y-124297916D01*
X162832933Y-124336011D01*
X162871028Y-124374107D01*
X162909123Y-124450297D01*
X162909123Y-124640773D01*
X162871028Y-124716964D01*
X162832933Y-124755059D01*
X162756742Y-124793154D01*
X162528171Y-124793154D01*
X162451980Y-124755059D01*
X162413885Y-124716964D01*
X160928171Y-143843154D02*
X160928171Y-143043154D01*
X161118647Y-143043154D01*
X161232933Y-143081250D01*
X161309123Y-143157440D01*
X161347219Y-143233630D01*
X161385314Y-143386011D01*
X161385314Y-143500297D01*
X161347219Y-143652678D01*
X161309123Y-143728869D01*
X161232933Y-143805059D01*
X161118647Y-143843154D01*
X160928171Y-143843154D01*
X161690076Y-143119345D02*
X161728171Y-143081250D01*
X161804361Y-143043154D01*
X161994838Y-143043154D01*
X162071028Y-143081250D01*
X162109123Y-143119345D01*
X162147219Y-143195535D01*
X162147219Y-143271726D01*
X162109123Y-143386011D01*
X161651980Y-143843154D01*
X162147219Y-143843154D01*
X162832933Y-143309821D02*
X162832933Y-143843154D01*
X162642457Y-143005059D02*
X162451980Y-143576488D01*
X162947219Y-143576488D01*
X160928171Y-162893154D02*
X160928171Y-162093154D01*
X161118647Y-162093154D01*
X161232933Y-162131250D01*
X161309123Y-162207440D01*
X161347219Y-162283630D01*
X161385314Y-162436011D01*
X161385314Y-162550297D01*
X161347219Y-162702678D01*
X161309123Y-162778869D01*
X161232933Y-162855059D01*
X161118647Y-162893154D01*
X160928171Y-162893154D01*
X161690076Y-162169345D02*
X161728171Y-162131250D01*
X161804361Y-162093154D01*
X161994838Y-162093154D01*
X162071028Y-162131250D01*
X162109123Y-162169345D01*
X162147219Y-162245535D01*
X162147219Y-162321726D01*
X162109123Y-162436011D01*
X161651980Y-162893154D01*
X162147219Y-162893154D01*
X162871028Y-162093154D02*
X162490076Y-162093154D01*
X162451980Y-162474107D01*
X162490076Y-162436011D01*
X162566266Y-162397916D01*
X162756742Y-162397916D01*
X162832933Y-162436011D01*
X162871028Y-162474107D01*
X162909123Y-162550297D01*
X162909123Y-162740773D01*
X162871028Y-162816964D01*
X162832933Y-162855059D01*
X162756742Y-162893154D01*
X162566266Y-162893154D01*
X162490076Y-162855059D01*
X162451980Y-162816964D01*
X179978171Y-86693154D02*
X179978171Y-85893154D01*
X180168647Y-85893154D01*
X180282933Y-85931250D01*
X180359123Y-86007440D01*
X180397219Y-86083630D01*
X180435314Y-86236011D01*
X180435314Y-86350297D01*
X180397219Y-86502678D01*
X180359123Y-86578869D01*
X180282933Y-86655059D01*
X180168647Y-86693154D01*
X179978171Y-86693154D01*
X180740076Y-85969345D02*
X180778171Y-85931250D01*
X180854361Y-85893154D01*
X181044838Y-85893154D01*
X181121028Y-85931250D01*
X181159123Y-85969345D01*
X181197219Y-86045535D01*
X181197219Y-86121726D01*
X181159123Y-86236011D01*
X180701980Y-86693154D01*
X181197219Y-86693154D01*
X181882933Y-85893154D02*
X181730552Y-85893154D01*
X181654361Y-85931250D01*
X181616266Y-85969345D01*
X181540076Y-86083630D01*
X181501980Y-86236011D01*
X181501980Y-86540773D01*
X181540076Y-86616964D01*
X181578171Y-86655059D01*
X181654361Y-86693154D01*
X181806742Y-86693154D01*
X181882933Y-86655059D01*
X181921028Y-86616964D01*
X181959123Y-86540773D01*
X181959123Y-86350297D01*
X181921028Y-86274107D01*
X181882933Y-86236011D01*
X181806742Y-86197916D01*
X181654361Y-86197916D01*
X181578171Y-86236011D01*
X181540076Y-86274107D01*
X181501980Y-86350297D01*
X179978171Y-105743154D02*
X179978171Y-104943154D01*
X180168647Y-104943154D01*
X180282933Y-104981250D01*
X180359123Y-105057440D01*
X180397219Y-105133630D01*
X180435314Y-105286011D01*
X180435314Y-105400297D01*
X180397219Y-105552678D01*
X180359123Y-105628869D01*
X180282933Y-105705059D01*
X180168647Y-105743154D01*
X179978171Y-105743154D01*
X180740076Y-105019345D02*
X180778171Y-104981250D01*
X180854361Y-104943154D01*
X181044838Y-104943154D01*
X181121028Y-104981250D01*
X181159123Y-105019345D01*
X181197219Y-105095535D01*
X181197219Y-105171726D01*
X181159123Y-105286011D01*
X180701980Y-105743154D01*
X181197219Y-105743154D01*
X181463885Y-104943154D02*
X181997219Y-104943154D01*
X181654361Y-105743154D01*
X179978171Y-124793154D02*
X179978171Y-123993154D01*
X180168647Y-123993154D01*
X180282933Y-124031250D01*
X180359123Y-124107440D01*
X180397219Y-124183630D01*
X180435314Y-124336011D01*
X180435314Y-124450297D01*
X180397219Y-124602678D01*
X180359123Y-124678869D01*
X180282933Y-124755059D01*
X180168647Y-124793154D01*
X179978171Y-124793154D01*
X180740076Y-124069345D02*
X180778171Y-124031250D01*
X180854361Y-123993154D01*
X181044838Y-123993154D01*
X181121028Y-124031250D01*
X181159123Y-124069345D01*
X181197219Y-124145535D01*
X181197219Y-124221726D01*
X181159123Y-124336011D01*
X180701980Y-124793154D01*
X181197219Y-124793154D01*
X181654361Y-124336011D02*
X181578171Y-124297916D01*
X181540076Y-124259821D01*
X181501980Y-124183630D01*
X181501980Y-124145535D01*
X181540076Y-124069345D01*
X181578171Y-124031250D01*
X181654361Y-123993154D01*
X181806742Y-123993154D01*
X181882933Y-124031250D01*
X181921028Y-124069345D01*
X181959123Y-124145535D01*
X181959123Y-124183630D01*
X181921028Y-124259821D01*
X181882933Y-124297916D01*
X181806742Y-124336011D01*
X181654361Y-124336011D01*
X181578171Y-124374107D01*
X181540076Y-124412202D01*
X181501980Y-124488392D01*
X181501980Y-124640773D01*
X181540076Y-124716964D01*
X181578171Y-124755059D01*
X181654361Y-124793154D01*
X181806742Y-124793154D01*
X181882933Y-124755059D01*
X181921028Y-124716964D01*
X181959123Y-124640773D01*
X181959123Y-124488392D01*
X181921028Y-124412202D01*
X181882933Y-124374107D01*
X181806742Y-124336011D01*
X189269480Y-164323923D02*
X189962301Y-163923923D01*
X190057539Y-164088880D01*
X190081690Y-164206902D01*
X190053803Y-164310980D01*
X190006867Y-164382067D01*
X189893949Y-164491249D01*
X189794975Y-164548392D01*
X189643962Y-164591591D01*
X189558931Y-164596695D01*
X189454853Y-164568807D01*
X189364719Y-164488880D01*
X189269480Y-164323923D01*
X190324206Y-164550760D02*
X190571825Y-164979649D01*
X190174560Y-164901090D01*
X190231703Y-165000064D01*
X190236806Y-165085095D01*
X190222863Y-165137134D01*
X190175927Y-165208221D01*
X190010970Y-165303459D01*
X189925940Y-165308563D01*
X189873901Y-165294619D01*
X189802814Y-165247683D01*
X189688528Y-165049735D01*
X189683424Y-164964704D01*
X189697368Y-164912665D01*
X190819444Y-165408538D02*
X190857539Y-165474521D01*
X190862643Y-165559551D01*
X190848699Y-165611590D01*
X190801764Y-165682677D01*
X190688845Y-165791859D01*
X190523888Y-165887097D01*
X190372875Y-165930296D01*
X190287844Y-165935400D01*
X190235805Y-165921456D01*
X190164719Y-165874521D01*
X190126623Y-165808538D01*
X190121520Y-165723508D01*
X190135463Y-165671468D01*
X190182399Y-165600382D01*
X190295317Y-165491200D01*
X190460274Y-165395962D01*
X190611287Y-165352763D01*
X190696318Y-165347659D01*
X190748357Y-165361603D01*
X190819444Y-165408538D01*
X66059123Y-115268154D02*
X66059123Y-114468154D01*
X66249600Y-114468154D01*
X66363885Y-114506250D01*
X66440076Y-114582440D01*
X66478171Y-114658630D01*
X66516266Y-114811011D01*
X66516266Y-114925297D01*
X66478171Y-115077678D01*
X66440076Y-115153869D01*
X66363885Y-115230059D01*
X66249600Y-115268154D01*
X66059123Y-115268154D01*
X66821028Y-114544345D02*
X66859123Y-114506250D01*
X66935314Y-114468154D01*
X67125790Y-114468154D01*
X67201980Y-114506250D01*
X67240076Y-114544345D01*
X67278171Y-114620535D01*
X67278171Y-114696726D01*
X67240076Y-114811011D01*
X66782933Y-115268154D01*
X67278171Y-115268154D01*
X122828171Y-115268154D02*
X122828171Y-114468154D01*
X123018647Y-114468154D01*
X123132933Y-114506250D01*
X123209123Y-114582440D01*
X123247219Y-114658630D01*
X123285314Y-114811011D01*
X123285314Y-114925297D01*
X123247219Y-115077678D01*
X123209123Y-115153869D01*
X123132933Y-115230059D01*
X123018647Y-115268154D01*
X122828171Y-115268154D01*
X124047219Y-115268154D02*
X123590076Y-115268154D01*
X123818647Y-115268154D02*
X123818647Y-114468154D01*
X123742457Y-114582440D01*
X123666266Y-114658630D01*
X123590076Y-114696726D01*
X124771028Y-114468154D02*
X124390076Y-114468154D01*
X124351980Y-114849107D01*
X124390076Y-114811011D01*
X124466266Y-114772916D01*
X124656742Y-114772916D01*
X124732933Y-114811011D01*
X124771028Y-114849107D01*
X124809123Y-114925297D01*
X124809123Y-115115773D01*
X124771028Y-115191964D01*
X124732933Y-115230059D01*
X124656742Y-115268154D01*
X124466266Y-115268154D01*
X124390076Y-115230059D01*
X124351980Y-115191964D01*
X122828171Y-134318154D02*
X122828171Y-133518154D01*
X123018647Y-133518154D01*
X123132933Y-133556250D01*
X123209123Y-133632440D01*
X123247219Y-133708630D01*
X123285314Y-133861011D01*
X123285314Y-133975297D01*
X123247219Y-134127678D01*
X123209123Y-134203869D01*
X123132933Y-134280059D01*
X123018647Y-134318154D01*
X122828171Y-134318154D01*
X124047219Y-134318154D02*
X123590076Y-134318154D01*
X123818647Y-134318154D02*
X123818647Y-133518154D01*
X123742457Y-133632440D01*
X123666266Y-133708630D01*
X123590076Y-133746726D01*
X124732933Y-133518154D02*
X124580552Y-133518154D01*
X124504361Y-133556250D01*
X124466266Y-133594345D01*
X124390076Y-133708630D01*
X124351980Y-133861011D01*
X124351980Y-134165773D01*
X124390076Y-134241964D01*
X124428171Y-134280059D01*
X124504361Y-134318154D01*
X124656742Y-134318154D01*
X124732933Y-134280059D01*
X124771028Y-134241964D01*
X124809123Y-134165773D01*
X124809123Y-133975297D01*
X124771028Y-133899107D01*
X124732933Y-133861011D01*
X124656742Y-133822916D01*
X124504361Y-133822916D01*
X124428171Y-133861011D01*
X124390076Y-133899107D01*
X124351980Y-133975297D01*
X176643030Y-148972240D02*
X177208716Y-148406555D01*
X177343403Y-148541242D01*
X177397278Y-148648991D01*
X177397278Y-148756741D01*
X177370340Y-148837553D01*
X177289528Y-148972240D01*
X177208716Y-149053052D01*
X177074029Y-149133864D01*
X176993217Y-149160802D01*
X176885467Y-149160802D01*
X176777717Y-149106927D01*
X176643030Y-148972240D01*
X177693589Y-148999177D02*
X177747464Y-148999177D01*
X177828276Y-149026115D01*
X177962963Y-149160802D01*
X177989901Y-149241614D01*
X177989901Y-149295489D01*
X177962963Y-149376301D01*
X177909088Y-149430176D01*
X177801339Y-149484051D01*
X177154841Y-149484051D01*
X177505027Y-149834237D01*
X177774401Y-150103611D02*
X177882151Y-150211361D01*
X177962963Y-150238298D01*
X178016838Y-150238298D01*
X178151525Y-150211361D01*
X178286212Y-150130548D01*
X178501711Y-149915049D01*
X178528649Y-149834237D01*
X178528649Y-149780362D01*
X178501711Y-149699550D01*
X178393962Y-149591800D01*
X178313149Y-149564863D01*
X178259275Y-149564863D01*
X178178462Y-149591800D01*
X178043775Y-149726487D01*
X178016838Y-149807300D01*
X178016838Y-149861174D01*
X178043775Y-149941987D01*
X178151525Y-150049736D01*
X178232337Y-150076674D01*
X178286212Y-150076674D01*
X178367024Y-150049736D01*
X66059123Y-96218154D02*
X66059123Y-95418154D01*
X66249600Y-95418154D01*
X66363885Y-95456250D01*
X66440076Y-95532440D01*
X66478171Y-95608630D01*
X66516266Y-95761011D01*
X66516266Y-95875297D01*
X66478171Y-96027678D01*
X66440076Y-96103869D01*
X66363885Y-96180059D01*
X66249600Y-96218154D01*
X66059123Y-96218154D01*
X67278171Y-96218154D02*
X66821028Y-96218154D01*
X67049600Y-96218154D02*
X67049600Y-95418154D01*
X66973409Y-95532440D01*
X66897219Y-95608630D01*
X66821028Y-95646726D01*
X66059123Y-134318154D02*
X66059123Y-133518154D01*
X66249600Y-133518154D01*
X66363885Y-133556250D01*
X66440076Y-133632440D01*
X66478171Y-133708630D01*
X66516266Y-133861011D01*
X66516266Y-133975297D01*
X66478171Y-134127678D01*
X66440076Y-134203869D01*
X66363885Y-134280059D01*
X66249600Y-134318154D01*
X66059123Y-134318154D01*
X66782933Y-133518154D02*
X67278171Y-133518154D01*
X67011504Y-133822916D01*
X67125790Y-133822916D01*
X67201980Y-133861011D01*
X67240076Y-133899107D01*
X67278171Y-133975297D01*
X67278171Y-134165773D01*
X67240076Y-134241964D01*
X67201980Y-134280059D01*
X67125790Y-134318154D01*
X66897219Y-134318154D01*
X66821028Y-134280059D01*
X66782933Y-134241964D01*
X66059123Y-153368154D02*
X66059123Y-152568154D01*
X66249600Y-152568154D01*
X66363885Y-152606250D01*
X66440076Y-152682440D01*
X66478171Y-152758630D01*
X66516266Y-152911011D01*
X66516266Y-153025297D01*
X66478171Y-153177678D01*
X66440076Y-153253869D01*
X66363885Y-153330059D01*
X66249600Y-153368154D01*
X66059123Y-153368154D01*
X67201980Y-152834821D02*
X67201980Y-153368154D01*
X67011504Y-152530059D02*
X66821028Y-153101488D01*
X67316266Y-153101488D01*
X85109123Y-96218154D02*
X85109123Y-95418154D01*
X85299600Y-95418154D01*
X85413885Y-95456250D01*
X85490076Y-95532440D01*
X85528171Y-95608630D01*
X85566266Y-95761011D01*
X85566266Y-95875297D01*
X85528171Y-96027678D01*
X85490076Y-96103869D01*
X85413885Y-96180059D01*
X85299600Y-96218154D01*
X85109123Y-96218154D01*
X86290076Y-95418154D02*
X85909123Y-95418154D01*
X85871028Y-95799107D01*
X85909123Y-95761011D01*
X85985314Y-95722916D01*
X86175790Y-95722916D01*
X86251980Y-95761011D01*
X86290076Y-95799107D01*
X86328171Y-95875297D01*
X86328171Y-96065773D01*
X86290076Y-96141964D01*
X86251980Y-96180059D01*
X86175790Y-96218154D01*
X85985314Y-96218154D01*
X85909123Y-96180059D01*
X85871028Y-96141964D01*
X85109123Y-115268154D02*
X85109123Y-114468154D01*
X85299600Y-114468154D01*
X85413885Y-114506250D01*
X85490076Y-114582440D01*
X85528171Y-114658630D01*
X85566266Y-114811011D01*
X85566266Y-114925297D01*
X85528171Y-115077678D01*
X85490076Y-115153869D01*
X85413885Y-115230059D01*
X85299600Y-115268154D01*
X85109123Y-115268154D01*
X86251980Y-114468154D02*
X86099600Y-114468154D01*
X86023409Y-114506250D01*
X85985314Y-114544345D01*
X85909123Y-114658630D01*
X85871028Y-114811011D01*
X85871028Y-115115773D01*
X85909123Y-115191964D01*
X85947219Y-115230059D01*
X86023409Y-115268154D01*
X86175790Y-115268154D01*
X86251980Y-115230059D01*
X86290076Y-115191964D01*
X86328171Y-115115773D01*
X86328171Y-114925297D01*
X86290076Y-114849107D01*
X86251980Y-114811011D01*
X86175790Y-114772916D01*
X86023409Y-114772916D01*
X85947219Y-114811011D01*
X85909123Y-114849107D01*
X85871028Y-114925297D01*
X85109123Y-134318154D02*
X85109123Y-133518154D01*
X85299600Y-133518154D01*
X85413885Y-133556250D01*
X85490076Y-133632440D01*
X85528171Y-133708630D01*
X85566266Y-133861011D01*
X85566266Y-133975297D01*
X85528171Y-134127678D01*
X85490076Y-134203869D01*
X85413885Y-134280059D01*
X85299600Y-134318154D01*
X85109123Y-134318154D01*
X85832933Y-133518154D02*
X86366266Y-133518154D01*
X86023409Y-134318154D01*
X85109123Y-153368154D02*
X85109123Y-152568154D01*
X85299600Y-152568154D01*
X85413885Y-152606250D01*
X85490076Y-152682440D01*
X85528171Y-152758630D01*
X85566266Y-152911011D01*
X85566266Y-153025297D01*
X85528171Y-153177678D01*
X85490076Y-153253869D01*
X85413885Y-153330059D01*
X85299600Y-153368154D01*
X85109123Y-153368154D01*
X86023409Y-152911011D02*
X85947219Y-152872916D01*
X85909123Y-152834821D01*
X85871028Y-152758630D01*
X85871028Y-152720535D01*
X85909123Y-152644345D01*
X85947219Y-152606250D01*
X86023409Y-152568154D01*
X86175790Y-152568154D01*
X86251980Y-152606250D01*
X86290076Y-152644345D01*
X86328171Y-152720535D01*
X86328171Y-152758630D01*
X86290076Y-152834821D01*
X86251980Y-152872916D01*
X86175790Y-152911011D01*
X86023409Y-152911011D01*
X85947219Y-152949107D01*
X85909123Y-152987202D01*
X85871028Y-153063392D01*
X85871028Y-153215773D01*
X85909123Y-153291964D01*
X85947219Y-153330059D01*
X86023409Y-153368154D01*
X86175790Y-153368154D01*
X86251980Y-153330059D01*
X86290076Y-153291964D01*
X86328171Y-153215773D01*
X86328171Y-153063392D01*
X86290076Y-152987202D01*
X86251980Y-152949107D01*
X86175790Y-152911011D01*
X104159123Y-81930654D02*
X104159123Y-81130654D01*
X104349600Y-81130654D01*
X104463885Y-81168750D01*
X104540076Y-81244940D01*
X104578171Y-81321130D01*
X104616266Y-81473511D01*
X104616266Y-81587797D01*
X104578171Y-81740178D01*
X104540076Y-81816369D01*
X104463885Y-81892559D01*
X104349600Y-81930654D01*
X104159123Y-81930654D01*
X104997219Y-81930654D02*
X105149600Y-81930654D01*
X105225790Y-81892559D01*
X105263885Y-81854464D01*
X105340076Y-81740178D01*
X105378171Y-81587797D01*
X105378171Y-81283035D01*
X105340076Y-81206845D01*
X105301980Y-81168750D01*
X105225790Y-81130654D01*
X105073409Y-81130654D01*
X104997219Y-81168750D01*
X104959123Y-81206845D01*
X104921028Y-81283035D01*
X104921028Y-81473511D01*
X104959123Y-81549702D01*
X104997219Y-81587797D01*
X105073409Y-81625892D01*
X105225790Y-81625892D01*
X105301980Y-81587797D01*
X105340076Y-81549702D01*
X105378171Y-81473511D01*
X103778171Y-100980654D02*
X103778171Y-100180654D01*
X103968647Y-100180654D01*
X104082933Y-100218750D01*
X104159123Y-100294940D01*
X104197219Y-100371130D01*
X104235314Y-100523511D01*
X104235314Y-100637797D01*
X104197219Y-100790178D01*
X104159123Y-100866369D01*
X104082933Y-100942559D01*
X103968647Y-100980654D01*
X103778171Y-100980654D01*
X104997219Y-100980654D02*
X104540076Y-100980654D01*
X104768647Y-100980654D02*
X104768647Y-100180654D01*
X104692457Y-100294940D01*
X104616266Y-100371130D01*
X104540076Y-100409226D01*
X105492457Y-100180654D02*
X105568647Y-100180654D01*
X105644838Y-100218750D01*
X105682933Y-100256845D01*
X105721028Y-100333035D01*
X105759123Y-100485416D01*
X105759123Y-100675892D01*
X105721028Y-100828273D01*
X105682933Y-100904464D01*
X105644838Y-100942559D01*
X105568647Y-100980654D01*
X105492457Y-100980654D01*
X105416266Y-100942559D01*
X105378171Y-100904464D01*
X105340076Y-100828273D01*
X105301980Y-100675892D01*
X105301980Y-100485416D01*
X105340076Y-100333035D01*
X105378171Y-100256845D01*
X105416266Y-100218750D01*
X105492457Y-100180654D01*
X103778171Y-120030654D02*
X103778171Y-119230654D01*
X103968647Y-119230654D01*
X104082933Y-119268750D01*
X104159123Y-119344940D01*
X104197219Y-119421130D01*
X104235314Y-119573511D01*
X104235314Y-119687797D01*
X104197219Y-119840178D01*
X104159123Y-119916369D01*
X104082933Y-119992559D01*
X103968647Y-120030654D01*
X103778171Y-120030654D01*
X104997219Y-120030654D02*
X104540076Y-120030654D01*
X104768647Y-120030654D02*
X104768647Y-119230654D01*
X104692457Y-119344940D01*
X104616266Y-119421130D01*
X104540076Y-119459226D01*
X105759123Y-120030654D02*
X105301980Y-120030654D01*
X105530552Y-120030654D02*
X105530552Y-119230654D01*
X105454361Y-119344940D01*
X105378171Y-119421130D01*
X105301980Y-119459226D01*
X103778171Y-139080654D02*
X103778171Y-138280654D01*
X103968647Y-138280654D01*
X104082933Y-138318750D01*
X104159123Y-138394940D01*
X104197219Y-138471130D01*
X104235314Y-138623511D01*
X104235314Y-138737797D01*
X104197219Y-138890178D01*
X104159123Y-138966369D01*
X104082933Y-139042559D01*
X103968647Y-139080654D01*
X103778171Y-139080654D01*
X104997219Y-139080654D02*
X104540076Y-139080654D01*
X104768647Y-139080654D02*
X104768647Y-138280654D01*
X104692457Y-138394940D01*
X104616266Y-138471130D01*
X104540076Y-138509226D01*
X105301980Y-138356845D02*
X105340076Y-138318750D01*
X105416266Y-138280654D01*
X105606742Y-138280654D01*
X105682933Y-138318750D01*
X105721028Y-138356845D01*
X105759123Y-138433035D01*
X105759123Y-138509226D01*
X105721028Y-138623511D01*
X105263885Y-139080654D01*
X105759123Y-139080654D01*
X122828171Y-76374404D02*
X122828171Y-75574404D01*
X123018647Y-75574404D01*
X123132933Y-75612500D01*
X123209123Y-75688690D01*
X123247219Y-75764880D01*
X123285314Y-75917261D01*
X123285314Y-76031547D01*
X123247219Y-76183928D01*
X123209123Y-76260119D01*
X123132933Y-76336309D01*
X123018647Y-76374404D01*
X122828171Y-76374404D01*
X124047219Y-76374404D02*
X123590076Y-76374404D01*
X123818647Y-76374404D02*
X123818647Y-75574404D01*
X123742457Y-75688690D01*
X123666266Y-75764880D01*
X123590076Y-75802976D01*
X124313885Y-75574404D02*
X124809123Y-75574404D01*
X124542457Y-75879166D01*
X124656742Y-75879166D01*
X124732933Y-75917261D01*
X124771028Y-75955357D01*
X124809123Y-76031547D01*
X124809123Y-76222023D01*
X124771028Y-76298214D01*
X124732933Y-76336309D01*
X124656742Y-76374404D01*
X124428171Y-76374404D01*
X124351980Y-76336309D01*
X124313885Y-76298214D01*
X122828171Y-96218154D02*
X122828171Y-95418154D01*
X123018647Y-95418154D01*
X123132933Y-95456250D01*
X123209123Y-95532440D01*
X123247219Y-95608630D01*
X123285314Y-95761011D01*
X123285314Y-95875297D01*
X123247219Y-96027678D01*
X123209123Y-96103869D01*
X123132933Y-96180059D01*
X123018647Y-96218154D01*
X122828171Y-96218154D01*
X124047219Y-96218154D02*
X123590076Y-96218154D01*
X123818647Y-96218154D02*
X123818647Y-95418154D01*
X123742457Y-95532440D01*
X123666266Y-95608630D01*
X123590076Y-95646726D01*
X124732933Y-95684821D02*
X124732933Y-96218154D01*
X124542457Y-95380059D02*
X124351980Y-95951488D01*
X124847219Y-95951488D01*
X128695523Y-60369404D02*
X128695523Y-59569404D01*
X128886000Y-59569404D01*
X129000285Y-59607500D01*
X129076476Y-59683690D01*
X129114571Y-59759880D01*
X129152666Y-59912261D01*
X129152666Y-60026547D01*
X129114571Y-60178928D01*
X129076476Y-60255119D01*
X129000285Y-60331309D01*
X128886000Y-60369404D01*
X128695523Y-60369404D01*
X129457428Y-59645595D02*
X129495523Y-59607500D01*
X129571714Y-59569404D01*
X129762190Y-59569404D01*
X129838380Y-59607500D01*
X129876476Y-59645595D01*
X129914571Y-59721785D01*
X129914571Y-59797976D01*
X129876476Y-59912261D01*
X129419333Y-60369404D01*
X129914571Y-60369404D01*
X128695523Y-70529404D02*
X128695523Y-69729404D01*
X128886000Y-69729404D01*
X129000285Y-69767500D01*
X129076476Y-69843690D01*
X129114571Y-69919880D01*
X129152666Y-70072261D01*
X129152666Y-70186547D01*
X129114571Y-70338928D01*
X129076476Y-70415119D01*
X129000285Y-70491309D01*
X128886000Y-70529404D01*
X128695523Y-70529404D01*
X129647904Y-69729404D02*
X129724095Y-69729404D01*
X129800285Y-69767500D01*
X129838380Y-69805595D01*
X129876476Y-69881785D01*
X129914571Y-70034166D01*
X129914571Y-70224642D01*
X129876476Y-70377023D01*
X129838380Y-70453214D01*
X129800285Y-70491309D01*
X129724095Y-70529404D01*
X129647904Y-70529404D01*
X129571714Y-70491309D01*
X129533619Y-70453214D01*
X129495523Y-70377023D01*
X129457428Y-70224642D01*
X129457428Y-70034166D01*
X129495523Y-69881785D01*
X129533619Y-69805595D01*
X129571714Y-69767500D01*
X129647904Y-69729404D01*
X128695523Y-67989404D02*
X128695523Y-67189404D01*
X128886000Y-67189404D01*
X129000285Y-67227500D01*
X129076476Y-67303690D01*
X129114571Y-67379880D01*
X129152666Y-67532261D01*
X129152666Y-67646547D01*
X129114571Y-67798928D01*
X129076476Y-67875119D01*
X129000285Y-67951309D01*
X128886000Y-67989404D01*
X128695523Y-67989404D01*
X129914571Y-67989404D02*
X129457428Y-67989404D01*
X129686000Y-67989404D02*
X129686000Y-67189404D01*
X129609809Y-67303690D01*
X129533619Y-67379880D01*
X129457428Y-67417976D01*
X128676476Y-64687500D02*
X128600285Y-64649404D01*
X128486000Y-64649404D01*
X128371714Y-64687500D01*
X128295523Y-64763690D01*
X128257428Y-64839880D01*
X128219333Y-64992261D01*
X128219333Y-65106547D01*
X128257428Y-65258928D01*
X128295523Y-65335119D01*
X128371714Y-65411309D01*
X128486000Y-65449404D01*
X128562190Y-65449404D01*
X128676476Y-65411309D01*
X128714571Y-65373214D01*
X128714571Y-65106547D01*
X128562190Y-65106547D01*
X129057428Y-65449404D02*
X129057428Y-64649404D01*
X129514571Y-65449404D01*
X129514571Y-64649404D01*
X129895523Y-65449404D02*
X129895523Y-64649404D01*
X130086000Y-64649404D01*
X130200285Y-64687500D01*
X130276476Y-64763690D01*
X130314571Y-64839880D01*
X130352666Y-64992261D01*
X130352666Y-65106547D01*
X130314571Y-65258928D01*
X130276476Y-65335119D01*
X130200285Y-65411309D01*
X130086000Y-65449404D01*
X129895523Y-65449404D01*
X128676476Y-62147500D02*
X128600285Y-62109404D01*
X128486000Y-62109404D01*
X128371714Y-62147500D01*
X128295523Y-62223690D01*
X128257428Y-62299880D01*
X128219333Y-62452261D01*
X128219333Y-62566547D01*
X128257428Y-62718928D01*
X128295523Y-62795119D01*
X128371714Y-62871309D01*
X128486000Y-62909404D01*
X128562190Y-62909404D01*
X128676476Y-62871309D01*
X128714571Y-62833214D01*
X128714571Y-62566547D01*
X128562190Y-62566547D01*
X129057428Y-62909404D02*
X129057428Y-62109404D01*
X129514571Y-62909404D01*
X129514571Y-62109404D01*
X129895523Y-62909404D02*
X129895523Y-62109404D01*
X130086000Y-62109404D01*
X130200285Y-62147500D01*
X130276476Y-62223690D01*
X130314571Y-62299880D01*
X130352666Y-62452261D01*
X130352666Y-62566547D01*
X130314571Y-62718928D01*
X130276476Y-62795119D01*
X130200285Y-62871309D01*
X130086000Y-62909404D01*
X129895523Y-62909404D01*
X128695523Y-73069404D02*
X128695523Y-72269404D01*
X128886000Y-72269404D01*
X129000285Y-72307500D01*
X129076476Y-72383690D01*
X129114571Y-72459880D01*
X129152666Y-72612261D01*
X129152666Y-72726547D01*
X129114571Y-72878928D01*
X129076476Y-72955119D01*
X129000285Y-73031309D01*
X128886000Y-73069404D01*
X128695523Y-73069404D01*
X129838380Y-72536071D02*
X129838380Y-73069404D01*
X129647904Y-72231309D02*
X129457428Y-72802738D01*
X129952666Y-72802738D01*
X129152666Y-75533214D02*
X129114571Y-75571309D01*
X129000285Y-75609404D01*
X128924095Y-75609404D01*
X128809809Y-75571309D01*
X128733619Y-75495119D01*
X128695523Y-75418928D01*
X128657428Y-75266547D01*
X128657428Y-75152261D01*
X128695523Y-74999880D01*
X128733619Y-74923690D01*
X128809809Y-74847500D01*
X128924095Y-74809404D01*
X129000285Y-74809404D01*
X129114571Y-74847500D01*
X129152666Y-74885595D01*
X129838380Y-74809404D02*
X129686000Y-74809404D01*
X129609809Y-74847500D01*
X129571714Y-74885595D01*
X129495523Y-74999880D01*
X129457428Y-75152261D01*
X129457428Y-75457023D01*
X129495523Y-75533214D01*
X129533619Y-75571309D01*
X129609809Y-75609404D01*
X129762190Y-75609404D01*
X129838380Y-75571309D01*
X129876476Y-75533214D01*
X129914571Y-75457023D01*
X129914571Y-75266547D01*
X129876476Y-75190357D01*
X129838380Y-75152261D01*
X129762190Y-75114166D01*
X129609809Y-75114166D01*
X129533619Y-75152261D01*
X129495523Y-75190357D01*
X129457428Y-75266547D01*
X128695523Y-78149404D02*
X128695523Y-77349404D01*
X128886000Y-77349404D01*
X129000285Y-77387500D01*
X129076476Y-77463690D01*
X129114571Y-77539880D01*
X129152666Y-77692261D01*
X129152666Y-77806547D01*
X129114571Y-77958928D01*
X129076476Y-78035119D01*
X129000285Y-78111309D01*
X128886000Y-78149404D01*
X128695523Y-78149404D01*
X129419333Y-77349404D02*
X129952666Y-77349404D01*
X129609809Y-78149404D01*
X128733619Y-80270357D02*
X129000285Y-80270357D01*
X129114571Y-80689404D02*
X128733619Y-80689404D01*
X128733619Y-79889404D01*
X129114571Y-79889404D01*
X129800285Y-79889404D02*
X129647904Y-79889404D01*
X129571714Y-79927500D01*
X129533619Y-79965595D01*
X129457428Y-80079880D01*
X129419333Y-80232261D01*
X129419333Y-80537023D01*
X129457428Y-80613214D01*
X129495523Y-80651309D01*
X129571714Y-80689404D01*
X129724095Y-80689404D01*
X129800285Y-80651309D01*
X129838380Y-80613214D01*
X129876476Y-80537023D01*
X129876476Y-80346547D01*
X129838380Y-80270357D01*
X129800285Y-80232261D01*
X129724095Y-80194166D01*
X129571714Y-80194166D01*
X129495523Y-80232261D01*
X129457428Y-80270357D01*
X129419333Y-80346547D01*
X128962190Y-82810357D02*
X129076476Y-82848452D01*
X129114571Y-82886547D01*
X129152666Y-82962738D01*
X129152666Y-83077023D01*
X129114571Y-83153214D01*
X129076476Y-83191309D01*
X129000285Y-83229404D01*
X128695523Y-83229404D01*
X128695523Y-82429404D01*
X128962190Y-82429404D01*
X129038380Y-82467500D01*
X129076476Y-82505595D01*
X129114571Y-82581785D01*
X129114571Y-82657976D01*
X129076476Y-82734166D01*
X129038380Y-82772261D01*
X128962190Y-82810357D01*
X128695523Y-82810357D01*
X129838380Y-82696071D02*
X129838380Y-83229404D01*
X129647904Y-82391309D02*
X129457428Y-82962738D01*
X129952666Y-82962738D01*
X128962190Y-85350357D02*
X129076476Y-85388452D01*
X129114571Y-85426547D01*
X129152666Y-85502738D01*
X129152666Y-85617023D01*
X129114571Y-85693214D01*
X129076476Y-85731309D01*
X129000285Y-85769404D01*
X128695523Y-85769404D01*
X128695523Y-84969404D01*
X128962190Y-84969404D01*
X129038380Y-85007500D01*
X129076476Y-85045595D01*
X129114571Y-85121785D01*
X129114571Y-85197976D01*
X129076476Y-85274166D01*
X129038380Y-85312261D01*
X128962190Y-85350357D01*
X128695523Y-85350357D01*
X129876476Y-84969404D02*
X129495523Y-84969404D01*
X129457428Y-85350357D01*
X129495523Y-85312261D01*
X129571714Y-85274166D01*
X129762190Y-85274166D01*
X129838380Y-85312261D01*
X129876476Y-85350357D01*
X129914571Y-85426547D01*
X129914571Y-85617023D01*
X129876476Y-85693214D01*
X129838380Y-85731309D01*
X129762190Y-85769404D01*
X129571714Y-85769404D01*
X129495523Y-85731309D01*
X129457428Y-85693214D01*
X118040190Y-85350357D02*
X118154476Y-85388452D01*
X118192571Y-85426547D01*
X118230666Y-85502738D01*
X118230666Y-85617023D01*
X118192571Y-85693214D01*
X118154476Y-85731309D01*
X118078285Y-85769404D01*
X117773523Y-85769404D01*
X117773523Y-84969404D01*
X118040190Y-84969404D01*
X118116380Y-85007500D01*
X118154476Y-85045595D01*
X118192571Y-85121785D01*
X118192571Y-85197976D01*
X118154476Y-85274166D01*
X118116380Y-85312261D01*
X118040190Y-85350357D01*
X117773523Y-85350357D01*
X118916380Y-84969404D02*
X118764000Y-84969404D01*
X118687809Y-85007500D01*
X118649714Y-85045595D01*
X118573523Y-85159880D01*
X118535428Y-85312261D01*
X118535428Y-85617023D01*
X118573523Y-85693214D01*
X118611619Y-85731309D01*
X118687809Y-85769404D01*
X118840190Y-85769404D01*
X118916380Y-85731309D01*
X118954476Y-85693214D01*
X118992571Y-85617023D01*
X118992571Y-85426547D01*
X118954476Y-85350357D01*
X118916380Y-85312261D01*
X118840190Y-85274166D01*
X118687809Y-85274166D01*
X118611619Y-85312261D01*
X118573523Y-85350357D01*
X118535428Y-85426547D01*
X118040190Y-80270357D02*
X118154476Y-80308452D01*
X118192571Y-80346547D01*
X118230666Y-80422738D01*
X118230666Y-80537023D01*
X118192571Y-80613214D01*
X118154476Y-80651309D01*
X118078285Y-80689404D01*
X117773523Y-80689404D01*
X117773523Y-79889404D01*
X118040190Y-79889404D01*
X118116380Y-79927500D01*
X118154476Y-79965595D01*
X118192571Y-80041785D01*
X118192571Y-80117976D01*
X118154476Y-80194166D01*
X118116380Y-80232261D01*
X118040190Y-80270357D01*
X117773523Y-80270357D01*
X118497333Y-79889404D02*
X118992571Y-79889404D01*
X118725904Y-80194166D01*
X118840190Y-80194166D01*
X118916380Y-80232261D01*
X118954476Y-80270357D01*
X118992571Y-80346547D01*
X118992571Y-80537023D01*
X118954476Y-80613214D01*
X118916380Y-80651309D01*
X118840190Y-80689404D01*
X118611619Y-80689404D01*
X118535428Y-80651309D01*
X118497333Y-80613214D01*
X118040190Y-77730357D02*
X118154476Y-77768452D01*
X118192571Y-77806547D01*
X118230666Y-77882738D01*
X118230666Y-77997023D01*
X118192571Y-78073214D01*
X118154476Y-78111309D01*
X118078285Y-78149404D01*
X117773523Y-78149404D01*
X117773523Y-77349404D01*
X118040190Y-77349404D01*
X118116380Y-77387500D01*
X118154476Y-77425595D01*
X118192571Y-77501785D01*
X118192571Y-77577976D01*
X118154476Y-77654166D01*
X118116380Y-77692261D01*
X118040190Y-77730357D01*
X117773523Y-77730357D01*
X118992571Y-78149404D02*
X118535428Y-78149404D01*
X118764000Y-78149404D02*
X118764000Y-77349404D01*
X118687809Y-77463690D01*
X118611619Y-77539880D01*
X118535428Y-77577976D01*
X118097333Y-67570357D02*
X117830666Y-67570357D01*
X117830666Y-67989404D02*
X117830666Y-67189404D01*
X118211619Y-67189404D01*
X118859238Y-67456071D02*
X118859238Y-67989404D01*
X118668761Y-67151309D02*
X118478285Y-67722738D01*
X118973523Y-67722738D01*
X117297333Y-64649404D02*
X117564000Y-65449404D01*
X117830666Y-64649404D01*
X118554476Y-65373214D02*
X118516380Y-65411309D01*
X118402095Y-65449404D01*
X118325904Y-65449404D01*
X118211619Y-65411309D01*
X118135428Y-65335119D01*
X118097333Y-65258928D01*
X118059238Y-65106547D01*
X118059238Y-64992261D01*
X118097333Y-64839880D01*
X118135428Y-64763690D01*
X118211619Y-64687500D01*
X118325904Y-64649404D01*
X118402095Y-64649404D01*
X118516380Y-64687500D01*
X118554476Y-64725595D01*
X119354476Y-65373214D02*
X119316380Y-65411309D01*
X119202095Y-65449404D01*
X119125904Y-65449404D01*
X119011619Y-65411309D01*
X118935428Y-65335119D01*
X118897333Y-65258928D01*
X118859238Y-65106547D01*
X118859238Y-64992261D01*
X118897333Y-64839880D01*
X118935428Y-64763690D01*
X119011619Y-64687500D01*
X119125904Y-64649404D01*
X119202095Y-64649404D01*
X119316380Y-64687500D01*
X119354476Y-64725595D01*
X117754476Y-59607500D02*
X117678285Y-59569404D01*
X117564000Y-59569404D01*
X117449714Y-59607500D01*
X117373523Y-59683690D01*
X117335428Y-59759880D01*
X117297333Y-59912261D01*
X117297333Y-60026547D01*
X117335428Y-60178928D01*
X117373523Y-60255119D01*
X117449714Y-60331309D01*
X117564000Y-60369404D01*
X117640190Y-60369404D01*
X117754476Y-60331309D01*
X117792571Y-60293214D01*
X117792571Y-60026547D01*
X117640190Y-60026547D01*
X118135428Y-60369404D02*
X118135428Y-59569404D01*
X118592571Y-60369404D01*
X118592571Y-59569404D01*
X118973523Y-60369404D02*
X118973523Y-59569404D01*
X119164000Y-59569404D01*
X119278285Y-59607500D01*
X119354476Y-59683690D01*
X119392571Y-59759880D01*
X119430666Y-59912261D01*
X119430666Y-60026547D01*
X119392571Y-60178928D01*
X119354476Y-60255119D01*
X119278285Y-60331309D01*
X119164000Y-60369404D01*
X118973523Y-60369404D01*
X117811619Y-57829404D02*
X117544952Y-57448452D01*
X117354476Y-57829404D02*
X117354476Y-57029404D01*
X117659238Y-57029404D01*
X117735428Y-57067500D01*
X117773523Y-57105595D01*
X117811619Y-57181785D01*
X117811619Y-57296071D01*
X117773523Y-57372261D01*
X117735428Y-57410357D01*
X117659238Y-57448452D01*
X117354476Y-57448452D01*
X118116380Y-57600833D02*
X118497333Y-57600833D01*
X118040190Y-57829404D02*
X118306857Y-57029404D01*
X118573523Y-57829404D01*
X118764000Y-57029404D02*
X118954476Y-57829404D01*
X119106857Y-57257976D01*
X119259238Y-57829404D01*
X119449714Y-57029404D01*
X118097333Y-70110357D02*
X117830666Y-70110357D01*
X117830666Y-70529404D02*
X117830666Y-69729404D01*
X118211619Y-69729404D01*
X118897333Y-69729404D02*
X118516380Y-69729404D01*
X118478285Y-70110357D01*
X118516380Y-70072261D01*
X118592571Y-70034166D01*
X118783047Y-70034166D01*
X118859238Y-70072261D01*
X118897333Y-70110357D01*
X118935428Y-70186547D01*
X118935428Y-70377023D01*
X118897333Y-70453214D01*
X118859238Y-70491309D01*
X118783047Y-70529404D01*
X118592571Y-70529404D01*
X118516380Y-70491309D01*
X118478285Y-70453214D01*
X118097333Y-72650357D02*
X117830666Y-72650357D01*
X117830666Y-73069404D02*
X117830666Y-72269404D01*
X118211619Y-72269404D01*
X118859238Y-72269404D02*
X118706857Y-72269404D01*
X118630666Y-72307500D01*
X118592571Y-72345595D01*
X118516380Y-72459880D01*
X118478285Y-72612261D01*
X118478285Y-72917023D01*
X118516380Y-72993214D01*
X118554476Y-73031309D01*
X118630666Y-73069404D01*
X118783047Y-73069404D01*
X118859238Y-73031309D01*
X118897333Y-72993214D01*
X118935428Y-72917023D01*
X118935428Y-72726547D01*
X118897333Y-72650357D01*
X118859238Y-72612261D01*
X118783047Y-72574166D01*
X118630666Y-72574166D01*
X118554476Y-72612261D01*
X118516380Y-72650357D01*
X118478285Y-72726547D01*
X118097333Y-75190357D02*
X117830666Y-75190357D01*
X117830666Y-75609404D02*
X117830666Y-74809404D01*
X118211619Y-74809404D01*
X118440190Y-74809404D02*
X118973523Y-74809404D01*
X118630666Y-75609404D01*
X118040190Y-82810357D02*
X118154476Y-82848452D01*
X118192571Y-82886547D01*
X118230666Y-82962738D01*
X118230666Y-83077023D01*
X118192571Y-83153214D01*
X118154476Y-83191309D01*
X118078285Y-83229404D01*
X117773523Y-83229404D01*
X117773523Y-82429404D01*
X118040190Y-82429404D01*
X118116380Y-82467500D01*
X118154476Y-82505595D01*
X118192571Y-82581785D01*
X118192571Y-82657976D01*
X118154476Y-82734166D01*
X118116380Y-82772261D01*
X118040190Y-82810357D01*
X117773523Y-82810357D01*
X118535428Y-82505595D02*
X118573523Y-82467500D01*
X118649714Y-82429404D01*
X118840190Y-82429404D01*
X118916380Y-82467500D01*
X118954476Y-82505595D01*
X118992571Y-82581785D01*
X118992571Y-82657976D01*
X118954476Y-82772261D01*
X118497333Y-83229404D01*
X118992571Y-83229404D01*
X125206395Y-57029404D02*
X125663538Y-57029404D01*
X125434967Y-57829404D02*
X125434967Y-57029404D01*
X125854014Y-57029404D02*
X126387348Y-57829404D01*
X126387348Y-57029404D02*
X125854014Y-57829404D01*
X126844491Y-57029404D02*
X126920681Y-57029404D01*
X126996872Y-57067500D01*
X127034967Y-57105595D01*
X127073062Y-57181785D01*
X127111157Y-57334166D01*
X127111157Y-57524642D01*
X127073062Y-57677023D01*
X127034967Y-57753214D01*
X126996872Y-57791309D01*
X126920681Y-57829404D01*
X126844491Y-57829404D01*
X126768300Y-57791309D01*
X126730205Y-57753214D01*
X126692110Y-57677023D01*
X126654014Y-57524642D01*
X126654014Y-57334166D01*
X126692110Y-57181785D01*
X126730205Y-57105595D01*
X126768300Y-57067500D01*
X126844491Y-57029404D01*
X128025443Y-56991309D02*
X127339729Y-58019880D01*
X128292110Y-57829404D02*
X128292110Y-57029404D01*
X128482586Y-57029404D01*
X128596872Y-57067500D01*
X128673062Y-57143690D01*
X128711157Y-57219880D01*
X128749252Y-57372261D01*
X128749252Y-57486547D01*
X128711157Y-57638928D01*
X128673062Y-57715119D01*
X128596872Y-57791309D01*
X128482586Y-57829404D01*
X128292110Y-57829404D01*
X129015919Y-57029404D02*
X129511157Y-57029404D01*
X129244491Y-57334166D01*
X129358776Y-57334166D01*
X129434967Y-57372261D01*
X129473062Y-57410357D01*
X129511157Y-57486547D01*
X129511157Y-57677023D01*
X129473062Y-57753214D01*
X129434967Y-57791309D01*
X129358776Y-57829404D01*
X129130205Y-57829404D01*
X129054014Y-57791309D01*
X129015919Y-57753214D01*
X118251666Y-62851309D02*
X118365952Y-62889404D01*
X118556428Y-62889404D01*
X118632619Y-62851309D01*
X118670714Y-62813214D01*
X118708809Y-62737023D01*
X118708809Y-62660833D01*
X118670714Y-62584642D01*
X118632619Y-62546547D01*
X118556428Y-62508452D01*
X118404047Y-62470357D01*
X118327857Y-62432261D01*
X118289761Y-62394166D01*
X118251666Y-62317976D01*
X118251666Y-62241785D01*
X118289761Y-62165595D01*
X118327857Y-62127500D01*
X118404047Y-62089404D01*
X118594523Y-62089404D01*
X118708809Y-62127500D01*
X118937380Y-62089404D02*
X119394523Y-62089404D01*
X119165952Y-62889404D02*
X119165952Y-62089404D01*
X134397916Y-81977380D02*
X134064583Y-81501190D01*
X133826488Y-81977380D02*
X133826488Y-80977380D01*
X134207440Y-80977380D01*
X134302678Y-81025000D01*
X134350297Y-81072619D01*
X134397916Y-81167857D01*
X134397916Y-81310714D01*
X134350297Y-81405952D01*
X134302678Y-81453571D01*
X134207440Y-81501190D01*
X133826488Y-81501190D01*
X134826488Y-81453571D02*
X135159821Y-81453571D01*
X135302678Y-81977380D02*
X134826488Y-81977380D01*
X134826488Y-80977380D01*
X135302678Y-80977380D01*
X136064583Y-81453571D02*
X135731250Y-81453571D01*
X135731250Y-81977380D02*
X135731250Y-80977380D01*
X136207440Y-80977380D01*
X136731250Y-80977380D02*
X136731250Y-81215476D01*
X136493154Y-81120238D02*
X136731250Y-81215476D01*
X136969345Y-81120238D01*
X136588392Y-81405952D02*
X136731250Y-81215476D01*
X136874107Y-81405952D01*
X137493154Y-80977380D02*
X137493154Y-81215476D01*
X137255059Y-81120238D02*
X137493154Y-81215476D01*
X137731250Y-81120238D01*
X137350297Y-81405952D02*
X137493154Y-81215476D01*
X137636011Y-81405952D01*
M02*
