G04 #@! TF.GenerationSoftware,KiCad,Pcbnew,(5.1.2)-2*
G04 #@! TF.CreationDate,2019-06-19T20:54:41-05:00*
G04 #@! TF.ProjectId,BlastersRev2,426c6173-7465-4727-9352-6576322e6b69,rev?*
G04 #@! TF.SameCoordinates,Original*
G04 #@! TF.FileFunction,Paste,Top*
G04 #@! TF.FilePolarity,Positive*
%FSLAX46Y46*%
G04 Gerber Fmt 4.6, Leading zero omitted, Abs format (unit mm)*
G04 Created by KiCad (PCBNEW (5.1.2)-2) date 2019-06-19 20:54:41*
%MOMM*%
%LPD*%
G04 APERTURE LIST*
%ADD10R,1.600000X1.200000*%
%ADD11C,1.200000*%
%ADD12C,0.100000*%
%ADD13C,2.500000*%
%ADD14C,2.500000*%
G04 APERTURE END LIST*
D10*
X141475000Y-84931250D03*
X144275000Y-84931250D03*
X144275000Y-103981250D03*
X141475000Y-103981250D03*
X141475000Y-123031250D03*
X144275000Y-123031250D03*
X144275000Y-142081250D03*
X141475000Y-142081250D03*
X160525000Y-84931250D03*
X163325000Y-84931250D03*
X163325000Y-103981250D03*
X160525000Y-103981250D03*
X160525000Y-123031250D03*
X163325000Y-123031250D03*
X163325000Y-142081250D03*
X160525000Y-142081250D03*
X160525000Y-161131250D03*
X163325000Y-161131250D03*
X182375000Y-84931250D03*
X179575000Y-84931250D03*
X179575000Y-103981250D03*
X182375000Y-103981250D03*
X182375000Y-123031250D03*
X179575000Y-123031250D03*
D11*
X190593750Y-163093814D03*
D12*
G36*
X189674135Y-162700994D02*
G01*
X190713365Y-162100994D01*
X191513365Y-163486634D01*
X190474135Y-164086634D01*
X189674135Y-162700994D01*
X189674135Y-162700994D01*
G37*
D11*
X191993750Y-165518686D03*
D12*
G36*
X191074135Y-165125866D02*
G01*
X192113365Y-164525866D01*
X192913365Y-165911506D01*
X191874135Y-166511506D01*
X191074135Y-165125866D01*
X191074135Y-165125866D01*
G37*
D10*
X68075000Y-113506250D03*
X65275000Y-113506250D03*
X122425000Y-113506250D03*
X125225000Y-113506250D03*
X125225000Y-132556250D03*
X122425000Y-132556250D03*
D11*
X177603801Y-147441301D03*
D12*
G36*
X176613852Y-147299880D02*
G01*
X177462380Y-146451352D01*
X178593750Y-147582722D01*
X177745222Y-148431250D01*
X176613852Y-147299880D01*
X176613852Y-147299880D01*
G37*
D11*
X179583699Y-149421199D03*
D12*
G36*
X178593750Y-149279778D02*
G01*
X179442278Y-148431250D01*
X180573648Y-149562620D01*
X179725120Y-150411148D01*
X178593750Y-149279778D01*
X178593750Y-149279778D01*
G37*
D10*
X68075000Y-94456250D03*
X65275000Y-94456250D03*
X65275000Y-132556250D03*
X68075000Y-132556250D03*
X68075000Y-151606250D03*
X65275000Y-151606250D03*
X84325000Y-94456250D03*
X87125000Y-94456250D03*
X87125000Y-113506250D03*
X84325000Y-113506250D03*
X84325000Y-132556250D03*
X87125000Y-132556250D03*
X87125000Y-151606250D03*
X84325000Y-151606250D03*
X106175000Y-80168750D03*
X103375000Y-80168750D03*
X103375000Y-99218750D03*
X106175000Y-99218750D03*
X106175000Y-118268750D03*
X103375000Y-118268750D03*
X103375000Y-137318750D03*
X106175000Y-137318750D03*
X122425000Y-74612500D03*
X125225000Y-74612500D03*
X125225000Y-94456250D03*
X122425000Y-94456250D03*
D13*
X69195000Y-99985000D03*
D14*
X69214999Y-99695000D02*
X69175001Y-100275000D01*
D13*
X63520000Y-101505000D03*
D14*
X62865005Y-102235004D02*
X64174995Y-100774996D01*
D13*
X64155000Y-99985000D03*
D14*
X64135001Y-99695000D02*
X64174999Y-100275000D01*
D13*
X69830000Y-101505000D03*
D14*
X70484995Y-102235004D02*
X69175005Y-100774996D01*
D13*
X69195000Y-80935000D03*
D14*
X69214999Y-80645000D02*
X69175001Y-81225000D01*
D13*
X63520000Y-82455000D03*
D14*
X62865005Y-83185004D02*
X64174995Y-81724996D01*
D13*
X64155000Y-80935000D03*
D14*
X64135001Y-80645000D02*
X64174999Y-81225000D01*
D13*
X69830000Y-82455000D03*
D14*
X70484995Y-83185004D02*
X69175005Y-81724996D01*
D13*
X146030000Y-111030000D03*
D14*
X146684995Y-111760004D02*
X145375005Y-110299996D01*
D13*
X140355000Y-109510000D03*
D14*
X140335001Y-109220000D02*
X140374999Y-109800000D01*
D13*
X139720000Y-111030000D03*
D14*
X139065005Y-111760004D02*
X140374995Y-110299996D01*
D13*
X145395000Y-109510000D03*
D14*
X145414999Y-109220000D02*
X145375001Y-109800000D01*
D13*
X145395000Y-128560000D03*
D14*
X145414999Y-128270000D02*
X145375001Y-128850000D01*
D13*
X139720000Y-130080000D03*
D14*
X139065005Y-130810004D02*
X140374995Y-129349996D01*
D13*
X140355000Y-128560000D03*
D14*
X140335001Y-128270000D02*
X140374999Y-128850000D01*
D13*
X146030000Y-130080000D03*
D14*
X146684995Y-130810004D02*
X145375005Y-129349996D01*
D13*
X165080000Y-72930000D03*
D14*
X165734995Y-73660004D02*
X164425005Y-72199996D01*
D13*
X159405000Y-71410000D03*
D14*
X159385001Y-71120000D02*
X159424999Y-71700000D01*
D13*
X158770000Y-72930000D03*
D14*
X158115005Y-73660004D02*
X159424995Y-72199996D01*
D13*
X164445000Y-71410000D03*
D14*
X164464999Y-71120000D02*
X164425001Y-71700000D01*
D13*
X164445000Y-90460000D03*
D14*
X164464999Y-90170000D02*
X164425001Y-90750000D01*
D13*
X158770000Y-91980000D03*
D14*
X158115005Y-92710004D02*
X159424995Y-91249996D01*
D13*
X159405000Y-90460000D03*
D14*
X159385001Y-90170000D02*
X159424999Y-90750000D01*
D13*
X165080000Y-91980000D03*
D14*
X165734995Y-92710004D02*
X164425005Y-91249996D01*
D13*
X165080000Y-111030000D03*
D14*
X165734995Y-111760004D02*
X164425005Y-110299996D01*
D13*
X159405000Y-109510000D03*
D14*
X159385001Y-109220000D02*
X159424999Y-109800000D01*
D13*
X158770000Y-111030000D03*
D14*
X158115005Y-111760004D02*
X159424995Y-110299996D01*
D13*
X164445000Y-109510000D03*
D14*
X164464999Y-109220000D02*
X164425001Y-109800000D01*
D13*
X164445000Y-128560000D03*
D14*
X164464999Y-128270000D02*
X164425001Y-128850000D01*
D13*
X158770000Y-130080000D03*
D14*
X158115005Y-130810004D02*
X159424995Y-129349996D01*
D13*
X159405000Y-128560000D03*
D14*
X159385001Y-128270000D02*
X159424999Y-128850000D01*
D13*
X165080000Y-130080000D03*
D14*
X165734995Y-130810004D02*
X164425005Y-129349996D01*
D13*
X165080000Y-149130000D03*
D14*
X165734995Y-149860004D02*
X164425005Y-148399996D01*
D13*
X159405000Y-147610000D03*
D14*
X159385001Y-147320000D02*
X159424999Y-147900000D01*
D13*
X158770000Y-149130000D03*
D14*
X158115005Y-149860004D02*
X159424995Y-148399996D01*
D13*
X164445000Y-147610000D03*
D14*
X164464999Y-147320000D02*
X164425001Y-147900000D01*
D13*
X183495000Y-71410000D03*
D14*
X183514999Y-71120000D02*
X183475001Y-71700000D01*
D13*
X177820000Y-72930000D03*
D14*
X177165005Y-73660004D02*
X178474995Y-72199996D01*
D13*
X178455000Y-71410000D03*
D14*
X178435001Y-71120000D02*
X178474999Y-71700000D01*
D13*
X184130000Y-72930000D03*
D14*
X184784995Y-73660004D02*
X183475005Y-72199996D01*
D13*
X184130000Y-91980000D03*
D14*
X184784995Y-92710004D02*
X183475005Y-91249996D01*
D13*
X178455000Y-90460000D03*
D14*
X178435001Y-90170000D02*
X178474999Y-90750000D01*
D13*
X177820000Y-91980000D03*
D14*
X177165005Y-92710004D02*
X178474995Y-91249996D01*
D13*
X183495000Y-90460000D03*
D14*
X183514999Y-90170000D02*
X183475001Y-90750000D01*
D13*
X184130000Y-111030000D03*
D14*
X184784995Y-111760004D02*
X183475005Y-110299996D01*
D13*
X178455000Y-109510000D03*
D14*
X178435001Y-109220000D02*
X178474999Y-109800000D01*
D13*
X177820000Y-111030000D03*
D14*
X177165005Y-111760004D02*
X178474995Y-110299996D01*
D13*
X183495000Y-109510000D03*
D14*
X183514999Y-109220000D02*
X183475001Y-109800000D01*
D13*
X189464261Y-142795183D03*
D14*
X189411222Y-143774526D02*
X189517300Y-141815840D01*
D13*
X186526232Y-137707549D03*
D14*
X186717152Y-137488346D02*
X186335312Y-137926752D01*
D13*
X185002417Y-138333339D03*
D14*
X184023074Y-138386378D02*
X185981760Y-138280300D01*
D13*
X190090051Y-141271368D03*
D14*
X190309254Y-141080448D02*
X189870848Y-141462288D01*
D13*
X203341962Y-159622184D03*
D14*
X203603109Y-159494504D02*
X203080815Y-159749864D01*
D13*
X199188103Y-155467490D03*
D14*
X198228403Y-155265249D02*
X200147803Y-155669731D01*
D13*
X200821962Y-155257416D03*
D14*
X201063110Y-155095096D02*
X200580814Y-155419736D01*
D13*
X202343103Y-160932110D03*
D14*
X202038398Y-161864355D02*
X202647808Y-159999865D01*
D13*
X146030000Y-72930000D03*
D14*
X146684995Y-73660004D02*
X145375005Y-72199996D01*
D13*
X140355000Y-71410000D03*
D14*
X140335001Y-71120000D02*
X140374999Y-71700000D01*
D13*
X139720000Y-72930000D03*
D14*
X139065005Y-73660004D02*
X140374995Y-72199996D01*
D13*
X145395000Y-71410000D03*
D14*
X145414999Y-71120000D02*
X145375001Y-71700000D01*
D13*
X145395000Y-90460000D03*
D14*
X145414999Y-90170000D02*
X145375001Y-90750000D01*
D13*
X139720000Y-91980000D03*
D14*
X139065005Y-92710004D02*
X140374995Y-91249996D01*
D13*
X140355000Y-90460000D03*
D14*
X140335001Y-90170000D02*
X140374999Y-90750000D01*
D13*
X146030000Y-91980000D03*
D14*
X146684995Y-92710004D02*
X145375005Y-91249996D01*
D13*
X126980000Y-82455000D03*
D14*
X127634995Y-83185004D02*
X126325005Y-81724996D01*
D13*
X121305000Y-80935000D03*
D14*
X121285001Y-80645000D02*
X121324999Y-81225000D01*
D13*
X120670000Y-82455000D03*
D14*
X120015005Y-83185004D02*
X121324995Y-81724996D01*
D13*
X126345000Y-80935000D03*
D14*
X126364999Y-80645000D02*
X126325001Y-81225000D01*
D13*
X126345000Y-99985000D03*
D14*
X126364999Y-99695000D02*
X126325001Y-100275000D01*
D13*
X120670000Y-101505000D03*
D14*
X120015005Y-102235004D02*
X121324995Y-100774996D01*
D13*
X121305000Y-99985000D03*
D14*
X121285001Y-99695000D02*
X121324999Y-100275000D01*
D13*
X126980000Y-101505000D03*
D14*
X127634995Y-102235004D02*
X126325005Y-100774996D01*
D13*
X69195000Y-119035000D03*
D14*
X69214999Y-118745000D02*
X69175001Y-119325000D01*
D13*
X63520000Y-120555000D03*
D14*
X62865005Y-121285004D02*
X64174995Y-119824996D01*
D13*
X64155000Y-119035000D03*
D14*
X64135001Y-118745000D02*
X64174999Y-119325000D01*
D13*
X69830000Y-120555000D03*
D14*
X70484995Y-121285004D02*
X69175005Y-119824996D01*
D13*
X69830000Y-139605000D03*
D14*
X70484995Y-140335004D02*
X69175005Y-138874996D01*
D13*
X64155000Y-138085000D03*
D14*
X64135001Y-137795000D02*
X64174999Y-138375000D01*
D13*
X63520000Y-139605000D03*
D14*
X62865005Y-140335004D02*
X64174995Y-138874996D01*
D13*
X69195000Y-138085000D03*
D14*
X69214999Y-137795000D02*
X69175001Y-138375000D01*
D13*
X88245000Y-80935000D03*
D14*
X88264999Y-80645000D02*
X88225001Y-81225000D01*
D13*
X82570000Y-82455000D03*
D14*
X81915005Y-83185004D02*
X83224995Y-81724996D01*
D13*
X83205000Y-80935000D03*
D14*
X83185001Y-80645000D02*
X83224999Y-81225000D01*
D13*
X88880000Y-82455000D03*
D14*
X89534995Y-83185004D02*
X88225005Y-81724996D01*
D13*
X88880000Y-101505000D03*
D14*
X89534995Y-102235004D02*
X88225005Y-100774996D01*
D13*
X83205000Y-99985000D03*
D14*
X83185001Y-99695000D02*
X83224999Y-100275000D01*
D13*
X82570000Y-101505000D03*
D14*
X81915005Y-102235004D02*
X83224995Y-100774996D01*
D13*
X88245000Y-99985000D03*
D14*
X88264999Y-99695000D02*
X88225001Y-100275000D01*
D13*
X88245000Y-119035000D03*
D14*
X88264999Y-118745000D02*
X88225001Y-119325000D01*
D13*
X82570000Y-120555000D03*
D14*
X81915005Y-121285004D02*
X83224995Y-119824996D01*
D13*
X83205000Y-119035000D03*
D14*
X83185001Y-118745000D02*
X83224999Y-119325000D01*
D13*
X88880000Y-120555000D03*
D14*
X89534995Y-121285004D02*
X88225005Y-119824996D01*
D13*
X88880000Y-139605000D03*
D14*
X89534995Y-140335004D02*
X88225005Y-138874996D01*
D13*
X83205000Y-138085000D03*
D14*
X83185001Y-137795000D02*
X83224999Y-138375000D01*
D13*
X82570000Y-139605000D03*
D14*
X81915005Y-140335004D02*
X83224995Y-138874996D01*
D13*
X88245000Y-138085000D03*
D14*
X88264999Y-137795000D02*
X88225001Y-138375000D01*
D13*
X107930000Y-68167500D03*
D14*
X108584995Y-68897504D02*
X107275005Y-67437496D01*
D13*
X102255000Y-66647500D03*
D14*
X102235001Y-66357500D02*
X102274999Y-66937500D01*
D13*
X101620000Y-68167500D03*
D14*
X100965005Y-68897504D02*
X102274995Y-67437496D01*
D13*
X107295000Y-66647500D03*
D14*
X107314999Y-66357500D02*
X107275001Y-66937500D01*
D13*
X107295000Y-85697500D03*
D14*
X107314999Y-85407500D02*
X107275001Y-85987500D01*
D13*
X101620000Y-87217500D03*
D14*
X100965005Y-87947504D02*
X102274995Y-86487496D01*
D13*
X102255000Y-85697500D03*
D14*
X102235001Y-85407500D02*
X102274999Y-85987500D01*
D13*
X107930000Y-87217500D03*
D14*
X108584995Y-87947504D02*
X107275005Y-86487496D01*
D13*
X107930000Y-106267500D03*
D14*
X108584995Y-106997504D02*
X107275005Y-105537496D01*
D13*
X102255000Y-104747500D03*
D14*
X102235001Y-104457500D02*
X102274999Y-105037500D01*
D13*
X101620000Y-106267500D03*
D14*
X100965005Y-106997504D02*
X102274995Y-105537496D01*
D13*
X107295000Y-104747500D03*
D14*
X107314999Y-104457500D02*
X107275001Y-105037500D01*
D13*
X107295000Y-123797500D03*
D14*
X107314999Y-123507500D02*
X107275001Y-124087500D01*
D13*
X101620000Y-125317500D03*
D14*
X100965005Y-126047504D02*
X102274995Y-124587496D01*
D13*
X102255000Y-123797500D03*
D14*
X102235001Y-123507500D02*
X102274999Y-124087500D01*
D13*
X107930000Y-125317500D03*
D14*
X108584995Y-126047504D02*
X107275005Y-124587496D01*
D13*
X126345000Y-61885000D03*
D14*
X126364999Y-61595000D02*
X126325001Y-62175000D01*
D13*
X120670000Y-63405000D03*
D14*
X120015005Y-64135004D02*
X121324995Y-62674996D01*
D13*
X121305000Y-61885000D03*
D14*
X121285001Y-61595000D02*
X121324999Y-62175000D01*
D13*
X126980000Y-63405000D03*
D14*
X127634995Y-64135004D02*
X126325005Y-62674996D01*
D13*
X126345000Y-119035000D03*
D14*
X126364999Y-118745000D02*
X126325001Y-119325000D01*
D13*
X120670000Y-120555000D03*
D14*
X120015005Y-121285004D02*
X121324995Y-119824996D01*
D13*
X121305000Y-119035000D03*
D14*
X121285001Y-118745000D02*
X121324999Y-119325000D01*
D13*
X126980000Y-120555000D03*
D14*
X127634995Y-121285004D02*
X126325005Y-119824996D01*
M02*
