G04 #@! TF.GenerationSoftware,KiCad,Pcbnew,(5.1.2)-2*
G04 #@! TF.CreationDate,2019-06-19T20:54:41-05:00*
G04 #@! TF.ProjectId,BlastersRev2,426c6173-7465-4727-9352-6576322e6b69,rev?*
G04 #@! TF.SameCoordinates,Original*
G04 #@! TF.FileFunction,Legend,Bot*
G04 #@! TF.FilePolarity,Positive*
%FSLAX46Y46*%
G04 Gerber Fmt 4.6, Leading zero omitted, Abs format (unit mm)*
G04 Created by KiCad (PCBNEW (5.1.2)-2) date 2019-06-19 20:54:41*
%MOMM*%
%LPD*%
G04 APERTURE LIST*
%ADD10C,0.150000*%
%ADD11C,0.381000*%
G04 APERTURE END LIST*
D10*
X94793750Y-61912500D02*
X94793750Y-59912500D01*
X89193750Y-59912500D02*
X94793750Y-59912500D01*
X89193750Y-61912500D02*
X89193750Y-59912500D01*
X88943750Y-74012500D02*
X95043750Y-74012500D01*
X95043750Y-61912500D02*
X95043750Y-74012500D01*
X88943750Y-61912500D02*
X95043750Y-61912500D01*
X88943750Y-61912500D02*
X88943750Y-74012500D01*
D11*
X132715000Y-56197500D02*
X132715000Y-86677500D01*
X132715000Y-86677500D02*
X114935000Y-86677500D01*
X114935000Y-86677500D02*
X114935000Y-56197500D01*
X130175000Y-56197500D02*
X130175000Y-58737500D01*
X130175000Y-58737500D02*
X132715000Y-58737500D01*
D10*
G36*
X118893432Y-62076860D02*
G01*
X118893432Y-62376860D01*
X118993432Y-62376860D01*
X118993432Y-62076860D01*
X118893432Y-62076860D01*
G37*
X118893432Y-62076860D02*
X118893432Y-62376860D01*
X118993432Y-62376860D01*
X118993432Y-62076860D01*
X118893432Y-62076860D01*
G36*
X119093432Y-62476860D02*
G01*
X119093432Y-62576860D01*
X119193432Y-62576860D01*
X119193432Y-62476860D01*
X119093432Y-62476860D01*
G37*
X119093432Y-62476860D02*
X119093432Y-62576860D01*
X119193432Y-62576860D01*
X119193432Y-62476860D01*
X119093432Y-62476860D01*
G36*
X118893432Y-62076860D02*
G01*
X118893432Y-62176860D01*
X119393432Y-62176860D01*
X119393432Y-62076860D01*
X118893432Y-62076860D01*
G37*
X118893432Y-62076860D02*
X118893432Y-62176860D01*
X119393432Y-62176860D01*
X119393432Y-62076860D01*
X118893432Y-62076860D01*
G36*
X119293432Y-62076860D02*
G01*
X119293432Y-62876860D01*
X119393432Y-62876860D01*
X119393432Y-62076860D01*
X119293432Y-62076860D01*
G37*
X119293432Y-62076860D02*
X119293432Y-62876860D01*
X119393432Y-62876860D01*
X119393432Y-62076860D01*
X119293432Y-62076860D01*
G36*
X118893432Y-62676860D02*
G01*
X118893432Y-62876860D01*
X118993432Y-62876860D01*
X118993432Y-62676860D01*
X118893432Y-62676860D01*
G37*
X118893432Y-62676860D02*
X118893432Y-62876860D01*
X118993432Y-62876860D01*
X118993432Y-62676860D01*
X118893432Y-62676860D01*
D11*
X114935000Y-56197500D02*
X114935000Y-53657500D01*
X114935000Y-53657500D02*
X132715000Y-53657500D01*
X132715000Y-53657500D02*
X132715000Y-56197500D01*
X130175000Y-56197500D02*
X132715000Y-56197500D01*
D10*
X94146130Y-64043452D02*
X93146130Y-64043452D01*
X93146130Y-64424404D01*
X93193750Y-64519642D01*
X93241369Y-64567261D01*
X93336607Y-64614880D01*
X93479464Y-64614880D01*
X93574702Y-64567261D01*
X93622321Y-64519642D01*
X93669940Y-64424404D01*
X93669940Y-64043452D01*
X93146130Y-65329166D02*
X93860416Y-65329166D01*
X94003273Y-65281547D01*
X94098511Y-65186309D01*
X94146130Y-65043452D01*
X94146130Y-64948214D01*
X93765178Y-65805357D02*
X93765178Y-66567261D01*
X93146130Y-66948214D02*
X93146130Y-67567261D01*
X93527083Y-67233928D01*
X93527083Y-67376785D01*
X93574702Y-67472023D01*
X93622321Y-67519642D01*
X93717559Y-67567261D01*
X93955654Y-67567261D01*
X94050892Y-67519642D01*
X94098511Y-67472023D01*
X94146130Y-67376785D01*
X94146130Y-67091071D01*
X94098511Y-66995833D01*
X94050892Y-66948214D01*
X93241369Y-67948214D02*
X93193750Y-67995833D01*
X93146130Y-68091071D01*
X93146130Y-68329166D01*
X93193750Y-68424404D01*
X93241369Y-68472023D01*
X93336607Y-68519642D01*
X93431845Y-68519642D01*
X93574702Y-68472023D01*
X94146130Y-67900595D01*
X94146130Y-68519642D01*
X93146130Y-69138690D02*
X93146130Y-69233928D01*
X93193750Y-69329166D01*
X93241369Y-69376785D01*
X93336607Y-69424404D01*
X93527083Y-69472023D01*
X93765178Y-69472023D01*
X93955654Y-69424404D01*
X94050892Y-69376785D01*
X94098511Y-69329166D01*
X94146130Y-69233928D01*
X94146130Y-69138690D01*
X94098511Y-69043452D01*
X94050892Y-68995833D01*
X93955654Y-68948214D01*
X93765178Y-68900595D01*
X93527083Y-68900595D01*
X93336607Y-68948214D01*
X93241369Y-68995833D01*
X93193750Y-69043452D01*
X93146130Y-69138690D01*
X93860416Y-69852976D02*
X93860416Y-70329166D01*
X94146130Y-69757738D02*
X93146130Y-70091071D01*
X94146130Y-70424404D01*
X118687809Y-82810357D02*
X118573523Y-82848452D01*
X118535428Y-82886547D01*
X118497333Y-82962738D01*
X118497333Y-83077023D01*
X118535428Y-83153214D01*
X118573523Y-83191309D01*
X118649714Y-83229404D01*
X118954476Y-83229404D01*
X118954476Y-82429404D01*
X118687809Y-82429404D01*
X118611619Y-82467500D01*
X118573523Y-82505595D01*
X118535428Y-82581785D01*
X118535428Y-82657976D01*
X118573523Y-82734166D01*
X118611619Y-82772261D01*
X118687809Y-82810357D01*
X118954476Y-82810357D01*
X118192571Y-82505595D02*
X118154476Y-82467500D01*
X118078285Y-82429404D01*
X117887809Y-82429404D01*
X117811619Y-82467500D01*
X117773523Y-82505595D01*
X117735428Y-82581785D01*
X117735428Y-82657976D01*
X117773523Y-82772261D01*
X118230666Y-83229404D01*
X117735428Y-83229404D01*
X118630666Y-75190357D02*
X118897333Y-75190357D01*
X118897333Y-75609404D02*
X118897333Y-74809404D01*
X118516380Y-74809404D01*
X118287809Y-74809404D02*
X117754476Y-74809404D01*
X118097333Y-75609404D01*
X118630666Y-72650357D02*
X118897333Y-72650357D01*
X118897333Y-73069404D02*
X118897333Y-72269404D01*
X118516380Y-72269404D01*
X117868761Y-72269404D02*
X118021142Y-72269404D01*
X118097333Y-72307500D01*
X118135428Y-72345595D01*
X118211619Y-72459880D01*
X118249714Y-72612261D01*
X118249714Y-72917023D01*
X118211619Y-72993214D01*
X118173523Y-73031309D01*
X118097333Y-73069404D01*
X117944952Y-73069404D01*
X117868761Y-73031309D01*
X117830666Y-72993214D01*
X117792571Y-72917023D01*
X117792571Y-72726547D01*
X117830666Y-72650357D01*
X117868761Y-72612261D01*
X117944952Y-72574166D01*
X118097333Y-72574166D01*
X118173523Y-72612261D01*
X118211619Y-72650357D01*
X118249714Y-72726547D01*
X118630666Y-70110357D02*
X118897333Y-70110357D01*
X118897333Y-70529404D02*
X118897333Y-69729404D01*
X118516380Y-69729404D01*
X117830666Y-69729404D02*
X118211619Y-69729404D01*
X118249714Y-70110357D01*
X118211619Y-70072261D01*
X118135428Y-70034166D01*
X117944952Y-70034166D01*
X117868761Y-70072261D01*
X117830666Y-70110357D01*
X117792571Y-70186547D01*
X117792571Y-70377023D01*
X117830666Y-70453214D01*
X117868761Y-70491309D01*
X117944952Y-70529404D01*
X118135428Y-70529404D01*
X118211619Y-70491309D01*
X118249714Y-70453214D01*
X118916380Y-57829404D02*
X119183047Y-57448452D01*
X119373523Y-57829404D02*
X119373523Y-57029404D01*
X119068761Y-57029404D01*
X118992571Y-57067500D01*
X118954476Y-57105595D01*
X118916380Y-57181785D01*
X118916380Y-57296071D01*
X118954476Y-57372261D01*
X118992571Y-57410357D01*
X119068761Y-57448452D01*
X119373523Y-57448452D01*
X118611619Y-57600833D02*
X118230666Y-57600833D01*
X118687809Y-57829404D02*
X118421142Y-57029404D01*
X118154476Y-57829404D01*
X117964000Y-57029404D02*
X117773523Y-57829404D01*
X117621142Y-57257976D01*
X117468761Y-57829404D01*
X117278285Y-57029404D01*
X118973523Y-59607500D02*
X119049714Y-59569404D01*
X119164000Y-59569404D01*
X119278285Y-59607500D01*
X119354476Y-59683690D01*
X119392571Y-59759880D01*
X119430666Y-59912261D01*
X119430666Y-60026547D01*
X119392571Y-60178928D01*
X119354476Y-60255119D01*
X119278285Y-60331309D01*
X119164000Y-60369404D01*
X119087809Y-60369404D01*
X118973523Y-60331309D01*
X118935428Y-60293214D01*
X118935428Y-60026547D01*
X119087809Y-60026547D01*
X118592571Y-60369404D02*
X118592571Y-59569404D01*
X118135428Y-60369404D01*
X118135428Y-59569404D01*
X117754476Y-60369404D02*
X117754476Y-59569404D01*
X117564000Y-59569404D01*
X117449714Y-59607500D01*
X117373523Y-59683690D01*
X117335428Y-59759880D01*
X117297333Y-59912261D01*
X117297333Y-60026547D01*
X117335428Y-60178928D01*
X117373523Y-60255119D01*
X117449714Y-60331309D01*
X117564000Y-60369404D01*
X117754476Y-60369404D01*
X118625213Y-62841309D02*
X118510927Y-62879404D01*
X118320451Y-62879404D01*
X118244260Y-62841309D01*
X118206165Y-62803214D01*
X118168070Y-62727023D01*
X118168070Y-62650833D01*
X118206165Y-62574642D01*
X118244260Y-62536547D01*
X118320451Y-62498452D01*
X118472832Y-62460357D01*
X118549022Y-62422261D01*
X118587118Y-62384166D01*
X118625213Y-62307976D01*
X118625213Y-62231785D01*
X118587118Y-62155595D01*
X118549022Y-62117500D01*
X118472832Y-62079404D01*
X118282356Y-62079404D01*
X118168070Y-62117500D01*
X117939499Y-62079404D02*
X117482356Y-62079404D01*
X117710927Y-62879404D02*
X117710927Y-62079404D01*
X119430666Y-64649404D02*
X119164000Y-65449404D01*
X118897333Y-64649404D01*
X118173523Y-65373214D02*
X118211619Y-65411309D01*
X118325904Y-65449404D01*
X118402095Y-65449404D01*
X118516380Y-65411309D01*
X118592571Y-65335119D01*
X118630666Y-65258928D01*
X118668761Y-65106547D01*
X118668761Y-64992261D01*
X118630666Y-64839880D01*
X118592571Y-64763690D01*
X118516380Y-64687500D01*
X118402095Y-64649404D01*
X118325904Y-64649404D01*
X118211619Y-64687500D01*
X118173523Y-64725595D01*
X117373523Y-65373214D02*
X117411619Y-65411309D01*
X117525904Y-65449404D01*
X117602095Y-65449404D01*
X117716380Y-65411309D01*
X117792571Y-65335119D01*
X117830666Y-65258928D01*
X117868761Y-65106547D01*
X117868761Y-64992261D01*
X117830666Y-64839880D01*
X117792571Y-64763690D01*
X117716380Y-64687500D01*
X117602095Y-64649404D01*
X117525904Y-64649404D01*
X117411619Y-64687500D01*
X117373523Y-64725595D01*
X118630666Y-67570357D02*
X118897333Y-67570357D01*
X118897333Y-67989404D02*
X118897333Y-67189404D01*
X118516380Y-67189404D01*
X117868761Y-67456071D02*
X117868761Y-67989404D01*
X118059238Y-67151309D02*
X118249714Y-67722738D01*
X117754476Y-67722738D01*
X118687809Y-77730357D02*
X118573523Y-77768452D01*
X118535428Y-77806547D01*
X118497333Y-77882738D01*
X118497333Y-77997023D01*
X118535428Y-78073214D01*
X118573523Y-78111309D01*
X118649714Y-78149404D01*
X118954476Y-78149404D01*
X118954476Y-77349404D01*
X118687809Y-77349404D01*
X118611619Y-77387500D01*
X118573523Y-77425595D01*
X118535428Y-77501785D01*
X118535428Y-77577976D01*
X118573523Y-77654166D01*
X118611619Y-77692261D01*
X118687809Y-77730357D01*
X118954476Y-77730357D01*
X117735428Y-78149404D02*
X118192571Y-78149404D01*
X117964000Y-78149404D02*
X117964000Y-77349404D01*
X118040190Y-77463690D01*
X118116380Y-77539880D01*
X118192571Y-77577976D01*
X118687809Y-80270357D02*
X118573523Y-80308452D01*
X118535428Y-80346547D01*
X118497333Y-80422738D01*
X118497333Y-80537023D01*
X118535428Y-80613214D01*
X118573523Y-80651309D01*
X118649714Y-80689404D01*
X118954476Y-80689404D01*
X118954476Y-79889404D01*
X118687809Y-79889404D01*
X118611619Y-79927500D01*
X118573523Y-79965595D01*
X118535428Y-80041785D01*
X118535428Y-80117976D01*
X118573523Y-80194166D01*
X118611619Y-80232261D01*
X118687809Y-80270357D01*
X118954476Y-80270357D01*
X118230666Y-79889404D02*
X117735428Y-79889404D01*
X118002095Y-80194166D01*
X117887809Y-80194166D01*
X117811619Y-80232261D01*
X117773523Y-80270357D01*
X117735428Y-80346547D01*
X117735428Y-80537023D01*
X117773523Y-80613214D01*
X117811619Y-80651309D01*
X117887809Y-80689404D01*
X118116380Y-80689404D01*
X118192571Y-80651309D01*
X118230666Y-80613214D01*
X118687809Y-85350357D02*
X118573523Y-85388452D01*
X118535428Y-85426547D01*
X118497333Y-85502738D01*
X118497333Y-85617023D01*
X118535428Y-85693214D01*
X118573523Y-85731309D01*
X118649714Y-85769404D01*
X118954476Y-85769404D01*
X118954476Y-84969404D01*
X118687809Y-84969404D01*
X118611619Y-85007500D01*
X118573523Y-85045595D01*
X118535428Y-85121785D01*
X118535428Y-85197976D01*
X118573523Y-85274166D01*
X118611619Y-85312261D01*
X118687809Y-85350357D01*
X118954476Y-85350357D01*
X117811619Y-84969404D02*
X117964000Y-84969404D01*
X118040190Y-85007500D01*
X118078285Y-85045595D01*
X118154476Y-85159880D01*
X118192571Y-85312261D01*
X118192571Y-85617023D01*
X118154476Y-85693214D01*
X118116380Y-85731309D01*
X118040190Y-85769404D01*
X117887809Y-85769404D01*
X117811619Y-85731309D01*
X117773523Y-85693214D01*
X117735428Y-85617023D01*
X117735428Y-85426547D01*
X117773523Y-85350357D01*
X117811619Y-85312261D01*
X117887809Y-85274166D01*
X118040190Y-85274166D01*
X118116380Y-85312261D01*
X118154476Y-85350357D01*
X118192571Y-85426547D01*
X129609809Y-85350357D02*
X129495523Y-85388452D01*
X129457428Y-85426547D01*
X129419333Y-85502738D01*
X129419333Y-85617023D01*
X129457428Y-85693214D01*
X129495523Y-85731309D01*
X129571714Y-85769404D01*
X129876476Y-85769404D01*
X129876476Y-84969404D01*
X129609809Y-84969404D01*
X129533619Y-85007500D01*
X129495523Y-85045595D01*
X129457428Y-85121785D01*
X129457428Y-85197976D01*
X129495523Y-85274166D01*
X129533619Y-85312261D01*
X129609809Y-85350357D01*
X129876476Y-85350357D01*
X128695523Y-84969404D02*
X129076476Y-84969404D01*
X129114571Y-85350357D01*
X129076476Y-85312261D01*
X129000285Y-85274166D01*
X128809809Y-85274166D01*
X128733619Y-85312261D01*
X128695523Y-85350357D01*
X128657428Y-85426547D01*
X128657428Y-85617023D01*
X128695523Y-85693214D01*
X128733619Y-85731309D01*
X128809809Y-85769404D01*
X129000285Y-85769404D01*
X129076476Y-85731309D01*
X129114571Y-85693214D01*
X129609809Y-82810357D02*
X129495523Y-82848452D01*
X129457428Y-82886547D01*
X129419333Y-82962738D01*
X129419333Y-83077023D01*
X129457428Y-83153214D01*
X129495523Y-83191309D01*
X129571714Y-83229404D01*
X129876476Y-83229404D01*
X129876476Y-82429404D01*
X129609809Y-82429404D01*
X129533619Y-82467500D01*
X129495523Y-82505595D01*
X129457428Y-82581785D01*
X129457428Y-82657976D01*
X129495523Y-82734166D01*
X129533619Y-82772261D01*
X129609809Y-82810357D01*
X129876476Y-82810357D01*
X128733619Y-82696071D02*
X128733619Y-83229404D01*
X128924095Y-82391309D02*
X129114571Y-82962738D01*
X128619333Y-82962738D01*
X129838380Y-80270357D02*
X129571714Y-80270357D01*
X129457428Y-80689404D02*
X129838380Y-80689404D01*
X129838380Y-79889404D01*
X129457428Y-79889404D01*
X128771714Y-79889404D02*
X128924095Y-79889404D01*
X129000285Y-79927500D01*
X129038380Y-79965595D01*
X129114571Y-80079880D01*
X129152666Y-80232261D01*
X129152666Y-80537023D01*
X129114571Y-80613214D01*
X129076476Y-80651309D01*
X129000285Y-80689404D01*
X128847904Y-80689404D01*
X128771714Y-80651309D01*
X128733619Y-80613214D01*
X128695523Y-80537023D01*
X128695523Y-80346547D01*
X128733619Y-80270357D01*
X128771714Y-80232261D01*
X128847904Y-80194166D01*
X129000285Y-80194166D01*
X129076476Y-80232261D01*
X129114571Y-80270357D01*
X129152666Y-80346547D01*
X129876476Y-78149404D02*
X129876476Y-77349404D01*
X129686000Y-77349404D01*
X129571714Y-77387500D01*
X129495523Y-77463690D01*
X129457428Y-77539880D01*
X129419333Y-77692261D01*
X129419333Y-77806547D01*
X129457428Y-77958928D01*
X129495523Y-78035119D01*
X129571714Y-78111309D01*
X129686000Y-78149404D01*
X129876476Y-78149404D01*
X129152666Y-77349404D02*
X128619333Y-77349404D01*
X128962190Y-78149404D01*
X129419333Y-75533214D02*
X129457428Y-75571309D01*
X129571714Y-75609404D01*
X129647904Y-75609404D01*
X129762190Y-75571309D01*
X129838380Y-75495119D01*
X129876476Y-75418928D01*
X129914571Y-75266547D01*
X129914571Y-75152261D01*
X129876476Y-74999880D01*
X129838380Y-74923690D01*
X129762190Y-74847500D01*
X129647904Y-74809404D01*
X129571714Y-74809404D01*
X129457428Y-74847500D01*
X129419333Y-74885595D01*
X128733619Y-74809404D02*
X128886000Y-74809404D01*
X128962190Y-74847500D01*
X129000285Y-74885595D01*
X129076476Y-74999880D01*
X129114571Y-75152261D01*
X129114571Y-75457023D01*
X129076476Y-75533214D01*
X129038380Y-75571309D01*
X128962190Y-75609404D01*
X128809809Y-75609404D01*
X128733619Y-75571309D01*
X128695523Y-75533214D01*
X128657428Y-75457023D01*
X128657428Y-75266547D01*
X128695523Y-75190357D01*
X128733619Y-75152261D01*
X128809809Y-75114166D01*
X128962190Y-75114166D01*
X129038380Y-75152261D01*
X129076476Y-75190357D01*
X129114571Y-75266547D01*
X129876476Y-73069404D02*
X129876476Y-72269404D01*
X129686000Y-72269404D01*
X129571714Y-72307500D01*
X129495523Y-72383690D01*
X129457428Y-72459880D01*
X129419333Y-72612261D01*
X129419333Y-72726547D01*
X129457428Y-72878928D01*
X129495523Y-72955119D01*
X129571714Y-73031309D01*
X129686000Y-73069404D01*
X129876476Y-73069404D01*
X128733619Y-72536071D02*
X128733619Y-73069404D01*
X128924095Y-72231309D02*
X129114571Y-72802738D01*
X128619333Y-72802738D01*
X129895523Y-62147500D02*
X129971714Y-62109404D01*
X130086000Y-62109404D01*
X130200285Y-62147500D01*
X130276476Y-62223690D01*
X130314571Y-62299880D01*
X130352666Y-62452261D01*
X130352666Y-62566547D01*
X130314571Y-62718928D01*
X130276476Y-62795119D01*
X130200285Y-62871309D01*
X130086000Y-62909404D01*
X130009809Y-62909404D01*
X129895523Y-62871309D01*
X129857428Y-62833214D01*
X129857428Y-62566547D01*
X130009809Y-62566547D01*
X129514571Y-62909404D02*
X129514571Y-62109404D01*
X129057428Y-62909404D01*
X129057428Y-62109404D01*
X128676476Y-62909404D02*
X128676476Y-62109404D01*
X128486000Y-62109404D01*
X128371714Y-62147500D01*
X128295523Y-62223690D01*
X128257428Y-62299880D01*
X128219333Y-62452261D01*
X128219333Y-62566547D01*
X128257428Y-62718928D01*
X128295523Y-62795119D01*
X128371714Y-62871309D01*
X128486000Y-62909404D01*
X128676476Y-62909404D01*
X129895523Y-64687500D02*
X129971714Y-64649404D01*
X130086000Y-64649404D01*
X130200285Y-64687500D01*
X130276476Y-64763690D01*
X130314571Y-64839880D01*
X130352666Y-64992261D01*
X130352666Y-65106547D01*
X130314571Y-65258928D01*
X130276476Y-65335119D01*
X130200285Y-65411309D01*
X130086000Y-65449404D01*
X130009809Y-65449404D01*
X129895523Y-65411309D01*
X129857428Y-65373214D01*
X129857428Y-65106547D01*
X130009809Y-65106547D01*
X129514571Y-65449404D02*
X129514571Y-64649404D01*
X129057428Y-65449404D01*
X129057428Y-64649404D01*
X128676476Y-65449404D02*
X128676476Y-64649404D01*
X128486000Y-64649404D01*
X128371714Y-64687500D01*
X128295523Y-64763690D01*
X128257428Y-64839880D01*
X128219333Y-64992261D01*
X128219333Y-65106547D01*
X128257428Y-65258928D01*
X128295523Y-65335119D01*
X128371714Y-65411309D01*
X128486000Y-65449404D01*
X128676476Y-65449404D01*
X129876476Y-67989404D02*
X129876476Y-67189404D01*
X129686000Y-67189404D01*
X129571714Y-67227500D01*
X129495523Y-67303690D01*
X129457428Y-67379880D01*
X129419333Y-67532261D01*
X129419333Y-67646547D01*
X129457428Y-67798928D01*
X129495523Y-67875119D01*
X129571714Y-67951309D01*
X129686000Y-67989404D01*
X129876476Y-67989404D01*
X128657428Y-67989404D02*
X129114571Y-67989404D01*
X128886000Y-67989404D02*
X128886000Y-67189404D01*
X128962190Y-67303690D01*
X129038380Y-67379880D01*
X129114571Y-67417976D01*
X129876476Y-70529404D02*
X129876476Y-69729404D01*
X129686000Y-69729404D01*
X129571714Y-69767500D01*
X129495523Y-69843690D01*
X129457428Y-69919880D01*
X129419333Y-70072261D01*
X129419333Y-70186547D01*
X129457428Y-70338928D01*
X129495523Y-70415119D01*
X129571714Y-70491309D01*
X129686000Y-70529404D01*
X129876476Y-70529404D01*
X128924095Y-69729404D02*
X128847904Y-69729404D01*
X128771714Y-69767500D01*
X128733619Y-69805595D01*
X128695523Y-69881785D01*
X128657428Y-70034166D01*
X128657428Y-70224642D01*
X128695523Y-70377023D01*
X128733619Y-70453214D01*
X128771714Y-70491309D01*
X128847904Y-70529404D01*
X128924095Y-70529404D01*
X129000285Y-70491309D01*
X129038380Y-70453214D01*
X129076476Y-70377023D01*
X129114571Y-70224642D01*
X129114571Y-70034166D01*
X129076476Y-69881785D01*
X129038380Y-69805595D01*
X129000285Y-69767500D01*
X128924095Y-69729404D01*
X129876476Y-60369404D02*
X129876476Y-59569404D01*
X129686000Y-59569404D01*
X129571714Y-59607500D01*
X129495523Y-59683690D01*
X129457428Y-59759880D01*
X129419333Y-59912261D01*
X129419333Y-60026547D01*
X129457428Y-60178928D01*
X129495523Y-60255119D01*
X129571714Y-60331309D01*
X129686000Y-60369404D01*
X129876476Y-60369404D01*
X129114571Y-59645595D02*
X129076476Y-59607500D01*
X129000285Y-59569404D01*
X128809809Y-59569404D01*
X128733619Y-59607500D01*
X128695523Y-59645595D01*
X128657428Y-59721785D01*
X128657428Y-59797976D01*
X128695523Y-59912261D01*
X129152666Y-60369404D01*
X128657428Y-60369404D01*
X129587348Y-57029404D02*
X129130205Y-57029404D01*
X129358776Y-57829404D02*
X129358776Y-57029404D01*
X128939729Y-57029404D02*
X128406395Y-57829404D01*
X128406395Y-57029404D02*
X128939729Y-57829404D01*
X127949252Y-57029404D02*
X127873062Y-57029404D01*
X127796872Y-57067500D01*
X127758776Y-57105595D01*
X127720681Y-57181785D01*
X127682586Y-57334166D01*
X127682586Y-57524642D01*
X127720681Y-57677023D01*
X127758776Y-57753214D01*
X127796872Y-57791309D01*
X127873062Y-57829404D01*
X127949252Y-57829404D01*
X128025443Y-57791309D01*
X128063538Y-57753214D01*
X128101633Y-57677023D01*
X128139729Y-57524642D01*
X128139729Y-57334166D01*
X128101633Y-57181785D01*
X128063538Y-57105595D01*
X128025443Y-57067500D01*
X127949252Y-57029404D01*
X126768300Y-56991309D02*
X127454014Y-58019880D01*
X126501633Y-57829404D02*
X126501633Y-57029404D01*
X126311157Y-57029404D01*
X126196872Y-57067500D01*
X126120681Y-57143690D01*
X126082586Y-57219880D01*
X126044491Y-57372261D01*
X126044491Y-57486547D01*
X126082586Y-57638928D01*
X126120681Y-57715119D01*
X126196872Y-57791309D01*
X126311157Y-57829404D01*
X126501633Y-57829404D01*
X125777824Y-57029404D02*
X125282586Y-57029404D01*
X125549252Y-57334166D01*
X125434967Y-57334166D01*
X125358776Y-57372261D01*
X125320681Y-57410357D01*
X125282586Y-57486547D01*
X125282586Y-57677023D01*
X125320681Y-57753214D01*
X125358776Y-57791309D01*
X125434967Y-57829404D01*
X125663538Y-57829404D01*
X125739729Y-57791309D01*
X125777824Y-57753214D01*
M02*
