M48
; DRILL file {KiCad (5.1.2)-2} date 6/19/2019 11:21:16 PM
; FORMAT={-:-/ absolute / inch / decimal}
; #@! TF.CreationDate,2019-06-19T23:21:16-05:00
; #@! TF.GenerationSoftware,Kicad,Pcbnew,(5.1.2)-2
FMAT,2
INCH
T1C0.0157
T2C0.0354
T3C0.0394
T4C0.0430
T5C0.0591
T6C0.0591
T7C0.0709
T8C0.1260
T9C0.1570
%
G90
G05
T1
X3.6875Y-2.625
X3.7812Y-2.5
X5.8125Y-3.2188
X6.6562Y-4.0625
X6.7812Y-5.5
X6.8438Y-5.4375
T3
X3.9715Y-3.1562
X4.2785Y-3.1562
X6.9227Y-5.7352
X7.1398Y-5.9523
X6.2215Y-3.3438
X6.5285Y-3.3438
X2.4715Y-5.9688
X2.7785Y-5.9688
X6.9715Y-3.3438
X7.2785Y-3.3438
X3.2215Y-5.2188
X3.5285Y-5.2188
X6.9715Y-4.8438
X7.2785Y-4.8438
X3.9715Y-3.9062
X4.2785Y-3.9062
X5.4715Y-3.3438
X5.7785Y-3.3438
X2.4715Y-4.4688
X2.7785Y-4.4688
X3.2215Y-4.4688
X3.5285Y-4.4688
X4.7215Y-5.2188
X5.0285Y-5.2188
X6.2215Y-4.8438
X6.5285Y-4.8438
X2.4715Y-5.2188
X2.7785Y-5.2188
X6.2215Y-4.0938
X6.5285Y-4.0938
X3.2215Y-5.9688
X3.5285Y-5.9688
X7.4545Y-6.3358
X7.608Y-6.6017
X3.9715Y-5.4062
X4.2785Y-5.4062
X5.4715Y-4.0938
X5.7785Y-4.0938
X4.7215Y-2.9375
X5.0285Y-2.9375
X5.4715Y-4.8438
X5.7785Y-4.8438
X2.4715Y-3.7188
X2.7785Y-3.7188
X6.2215Y-5.5938
X6.5285Y-5.5938
X3.2215Y-3.7188
X3.5285Y-3.7188
X6.9715Y-4.0938
X7.2785Y-4.0938
X4.7215Y-4.4688
X5.0285Y-4.4688
X6.2215Y-6.3438
X6.5285Y-6.3438
X4.7215Y-3.7188
X5.0285Y-3.7188
X3.9715Y-4.6562
X4.2785Y-4.6562
X5.4715Y-5.5938
X5.7785Y-5.5938
T4
X5.25Y-4.125
X4.575Y-2.2625
X4.575Y-2.3625
X4.575Y-2.4625
X4.575Y-2.5625
X4.575Y-2.6625
X4.575Y-2.7625
X4.575Y-2.8625
X4.575Y-2.9625
X4.575Y-3.0625
X4.575Y-3.1625
X4.575Y-3.2625
X4.575Y-3.3625
X5.175Y-2.2625
X5.175Y-2.3625
X5.175Y-2.4625
X5.175Y-2.5625
X5.175Y-2.6625
X5.175Y-2.7625
X5.175Y-2.8625
X5.175Y-2.9625
X5.175Y-3.0625
X5.175Y-3.1625
X5.175Y-3.2625
X5.175Y-3.3625
T5
X6.225Y-3.65
X6.275Y-3.55
X6.2766Y-3.5728
X6.2766Y-3.5925
X6.4734Y-3.5728
X6.4734Y-3.5925
X6.475Y-3.55
X6.525Y-3.65
X6.975Y-4.4
X7.025Y-4.3
X7.0266Y-4.3228
X7.0266Y-4.3425
X7.2234Y-4.3228
X7.2234Y-4.3425
X7.225Y-4.3
X7.275Y-4.4
X3.975Y-3.4625
X4.025Y-3.3625
X4.0266Y-3.3853
X4.0266Y-3.405
X4.2234Y-3.3853
X4.2234Y-3.405
X4.225Y-3.3625
X4.275Y-3.4625
X6.225Y-5.9
X6.275Y-5.8
X6.2766Y-5.8228
X6.2766Y-5.8425
X6.4734Y-5.8228
X6.4734Y-5.8425
X6.475Y-5.8
X6.525Y-5.9
X3.225Y-4.775
X3.275Y-4.675
X3.2766Y-4.6978
X3.2766Y-4.7175
X3.4734Y-4.6978
X3.4734Y-4.7175
X3.475Y-4.675
X3.525Y-4.775
X2.475Y-4.775
X2.525Y-4.675
X2.5266Y-4.6978
X2.5266Y-4.7175
X2.7234Y-4.6978
X2.7234Y-4.7175
X2.725Y-4.675
X2.775Y-4.775
X2.475Y-4.025
X2.525Y-3.925
X2.5266Y-3.9478
X2.5266Y-3.9675
X2.7234Y-3.9478
X2.7234Y-3.9675
X2.725Y-3.925
X2.775Y-4.025
X6.225Y-4.4
X6.275Y-4.3
X6.2766Y-4.3228
X6.2766Y-4.3425
X6.4734Y-4.3228
X6.4734Y-4.3425
X6.475Y-4.3
X6.525Y-4.4
X3.975Y-2.7125
X4.025Y-2.6125
X4.0266Y-2.6353
X4.0266Y-2.655
X4.2234Y-2.6353
X4.2234Y-2.655
X4.225Y-2.6125
X4.275Y-2.7125
X5.475Y-4.4
X5.525Y-4.3
X5.5266Y-4.3228
X5.5266Y-4.3425
X5.7234Y-4.3228
X5.7234Y-4.3425
X5.725Y-4.3
X5.775Y-4.4
X2.475Y-3.275
X2.525Y-3.175
X2.5266Y-3.1978
X2.5266Y-3.2175
X2.7234Y-3.1978
X2.7234Y-3.2175
X2.725Y-3.175
X2.775Y-3.275
X7.245Y-5.4483
X7.3221Y-5.4441
X7.336Y-5.4302
X7.3511Y-5.4129
X7.4571Y-5.6604
X7.4613Y-5.5833
X7.4752Y-5.5694
X7.4925Y-5.5543
X3.975Y-4.9625
X4.025Y-4.8625
X4.0266Y-4.8853
X4.0266Y-4.905
X4.2234Y-4.8853
X4.2234Y-4.905
X4.225Y-4.8625
X4.275Y-4.9625
X5.475Y-2.9
X5.525Y-2.8
X5.5266Y-2.8228
X5.5266Y-2.8425
X5.7234Y-2.8228
X5.7234Y-2.8425
X5.725Y-2.8
X5.775Y-2.9
X4.725Y-4.775
X4.775Y-4.675
X4.7766Y-4.6978
X4.7766Y-4.7175
X4.9734Y-4.6978
X4.9734Y-4.7175
X4.975Y-4.675
X5.025Y-4.775
X4.725Y-3.275
X4.775Y-3.175
X4.7766Y-3.1978
X4.7766Y-3.2175
X4.9734Y-3.1978
X4.9734Y-3.2175
X4.975Y-3.175
X5.025Y-3.275
X2.475Y-5.525
X2.525Y-5.425
X2.5266Y-5.4478
X2.5266Y-5.4675
X2.7234Y-5.4478
X2.7234Y-5.4675
X2.725Y-5.425
X2.775Y-5.525
X6.225Y-5.15
X6.275Y-5.05
X6.2766Y-5.0728
X6.2766Y-5.0925
X6.4734Y-5.0728
X6.4734Y-5.0925
X6.475Y-5.05
X6.525Y-5.15
X3.225Y-3.275
X3.275Y-3.175
X3.2766Y-3.1978
X3.2766Y-3.2175
X3.4734Y-3.1978
X3.4734Y-3.2175
X3.475Y-3.175
X3.525Y-3.275
X6.975Y-2.9
X7.025Y-2.8
X7.0266Y-2.8228
X7.0266Y-2.8425
X7.2234Y-2.8228
X7.2234Y-2.8425
X7.225Y-2.8
X7.275Y-2.9
X4.725Y-2.525
X4.775Y-2.425
X4.7766Y-2.4478
X4.7766Y-2.4675
X4.9734Y-2.4478
X4.9734Y-2.4675
X4.975Y-2.425
X5.025Y-2.525
X6.225Y-2.9
X6.275Y-2.8
X6.2766Y-2.8228
X6.2766Y-2.8425
X6.4734Y-2.8228
X6.4734Y-2.8425
X6.475Y-2.8
X6.525Y-2.9
X3.975Y-4.2125
X4.025Y-4.1125
X4.0266Y-4.1353
X4.0266Y-4.155
X4.2234Y-4.1353
X4.2234Y-4.155
X4.225Y-4.1125
X4.275Y-4.2125
X7.8043Y-6.1128
X7.8798Y-6.1287
X7.8969Y-6.1189
X7.9159Y-6.1061
X7.9543Y-6.3726
X7.9783Y-6.2992
X7.9953Y-6.2894
X8.0159Y-6.2793
X3.225Y-4.025
X3.275Y-3.925
X3.2766Y-3.9478
X3.2766Y-3.9675
X3.4734Y-3.9478
X3.4734Y-3.9675
X3.475Y-3.925
X3.525Y-4.025
X5.475Y-3.65
X5.525Y-3.55
X5.5266Y-3.5728
X5.5266Y-3.5925
X5.7234Y-3.5728
X5.7234Y-3.5925
X5.725Y-3.55
X5.775Y-3.65
X4.725Y-4.025
X4.775Y-3.925
X4.7766Y-3.9478
X4.7766Y-3.9675
X4.9734Y-3.9478
X4.9734Y-3.9675
X4.975Y-3.925
X5.025Y-4.025
X5.475Y-5.15
X5.525Y-5.05
X5.5266Y-5.0728
X5.5266Y-5.0925
X5.7234Y-5.0728
X5.7234Y-5.0925
X5.725Y-5.05
X5.775Y-5.15
X3.225Y-5.525
X3.275Y-5.425
X3.2766Y-5.4478
X3.2766Y-5.4675
X3.4734Y-5.4478
X3.4734Y-5.4675
X3.475Y-5.425
X3.525Y-5.525
X6.975Y-3.65
X7.025Y-3.55
X7.0266Y-3.5728
X7.0266Y-3.5925
X7.2234Y-3.5728
X7.2234Y-3.5925
X7.225Y-3.55
X7.275Y-3.65
T6
X3.4407Y-2.5005
X3.4407Y-2.7761
X3.6218Y-2.5005
X3.6218Y-2.7761
T7
X7.1389Y-5.4836
X7.4218Y-5.7665
X3.925Y-5.0625
X4.325Y-5.0625
X5.425Y-3.0
X5.825Y-3.0
X4.675Y-4.875
X5.075Y-4.875
X4.675Y-3.375
X5.075Y-3.375
X2.425Y-5.625
X2.825Y-5.625
X6.175Y-5.25
X6.575Y-5.25
X3.175Y-3.375
X3.575Y-3.375
X6.925Y-3.0
X7.325Y-3.0
X4.675Y-2.625
X5.075Y-2.625
X6.175Y-3.0
X6.575Y-3.0
X3.925Y-4.3125
X4.325Y-4.3125
X7.6927Y-6.1195
X7.8927Y-6.4659
X3.175Y-4.125
X3.575Y-4.125
X5.425Y-3.75
X5.825Y-3.75
X4.675Y-4.125
X5.075Y-4.125
X5.425Y-5.25
X5.825Y-5.25
X3.175Y-5.625
X3.575Y-5.625
X6.925Y-3.75
X7.325Y-3.75
X6.175Y-3.75
X6.575Y-3.75
X6.925Y-4.5
X7.325Y-4.5
X3.925Y-3.5625
X4.325Y-3.5625
X6.175Y-6.0
X6.575Y-6.0
X3.175Y-4.875
X3.575Y-4.875
X2.425Y-4.875
X2.825Y-4.875
X2.425Y-4.125
X2.825Y-4.125
X6.175Y-4.5
X6.575Y-4.5
X3.925Y-2.8125
X4.325Y-2.8125
X5.425Y-4.5
X5.825Y-4.5
X2.425Y-3.375
X2.825Y-3.375
T8
X5.25Y-4.5
X3.75Y-4.875
X6.75Y-5.25
X5.3438Y-3.375
X3.75Y-3.5625
X6.75Y-3.75
T9
X7.125Y-4.5
X4.125Y-3.5625
X6.375Y-6.0
X3.375Y-4.875
X2.625Y-4.875
X2.625Y-4.125
X6.375Y-4.5
X4.125Y-2.8125
X5.625Y-4.5
X2.625Y-3.375
X7.2804Y-5.6251
X4.125Y-5.0625
X5.625Y-3.0
X4.875Y-4.875
X4.875Y-3.375
X2.625Y-5.625
X6.375Y-5.25
X3.375Y-3.375
X7.125Y-3.0
X4.875Y-2.625
X6.375Y-3.0
X4.125Y-4.3125
X7.7927Y-6.2927
X3.375Y-4.125
X5.625Y-3.75
X4.875Y-4.125
X5.625Y-5.25
X3.375Y-5.625
X7.125Y-3.75
X6.375Y-3.75
T2
G00X3.3501Y-2.8706
M15
G01X3.3501Y-2.8942
M16
G05
G00X3.5312Y-2.5517
M15
G01X3.5312Y-2.5753
M16
G05
G00X3.5312Y-2.6698
M15
G01X3.5312Y-2.6934
M16
G05
G00X3.5312Y-2.8273
M15
G01X3.5312Y-2.8509
M16
G05
G00X3.7124Y-2.8706
M15
G01X3.7124Y-2.8942
M16
G05
T0
M30
