G04 #@! TF.GenerationSoftware,KiCad,Pcbnew,(5.1.2)-2*
G04 #@! TF.CreationDate,2019-06-19T23:20:39-05:00*
G04 #@! TF.ProjectId,BlastersRev2,426c6173-7465-4727-9352-6576322e6b69,rev?*
G04 #@! TF.SameCoordinates,Original*
G04 #@! TF.FileFunction,Copper,L2,Bot*
G04 #@! TF.FilePolarity,Positive*
%FSLAX46Y46*%
G04 Gerber Fmt 4.6, Leading zero omitted, Abs format (unit mm)*
G04 Created by KiCad (PCBNEW (5.1.2)-2) date 2019-06-19 23:20:39*
%MOMM*%
%LPD*%
G04 APERTURE LIST*
%ADD10C,1.752600*%
%ADD11O,1.600000X2.200000*%
%ADD12R,1.600000X1.600000*%
%ADD13C,1.600000*%
%ADD14R,2.900000X0.500000*%
%ADD15R,1.600000X1.200000*%
%ADD16C,0.100000*%
%ADD17C,0.500000*%
%ADD18C,1.200000*%
%ADD19C,2.000000*%
%ADD20C,2.500000*%
%ADD21C,2.500000*%
%ADD22R,1.752600X1.752600*%
%ADD23C,0.800000*%
%ADD24C,0.250000*%
G04 APERTURE END LIST*
D10*
X133350000Y-104775000D03*
D11*
X94293750Y-73212500D03*
X85093750Y-73212500D03*
X89693750Y-72112500D03*
X89693750Y-65112500D03*
X89693750Y-68112500D03*
D12*
X146775000Y-84931250D03*
D13*
X138975000Y-84931250D03*
D14*
X145375000Y-84931250D03*
D15*
X144275000Y-84931250D03*
X141475000Y-84931250D03*
D14*
X140375000Y-84931250D03*
X140375000Y-103981250D03*
D15*
X141475000Y-103981250D03*
X144275000Y-103981250D03*
D14*
X145375000Y-103981250D03*
D13*
X138975000Y-103981250D03*
D12*
X146775000Y-103981250D03*
X146775000Y-123031250D03*
D13*
X138975000Y-123031250D03*
D14*
X145375000Y-123031250D03*
D15*
X144275000Y-123031250D03*
X141475000Y-123031250D03*
D14*
X140375000Y-123031250D03*
X140375000Y-142081250D03*
D15*
X141475000Y-142081250D03*
X144275000Y-142081250D03*
D14*
X145375000Y-142081250D03*
D13*
X138975000Y-142081250D03*
D12*
X146775000Y-142081250D03*
X165825000Y-84931250D03*
D13*
X158025000Y-84931250D03*
D14*
X164425000Y-84931250D03*
D15*
X163325000Y-84931250D03*
X160525000Y-84931250D03*
D14*
X159425000Y-84931250D03*
X159425000Y-103981250D03*
D15*
X160525000Y-103981250D03*
X163325000Y-103981250D03*
D14*
X164425000Y-103981250D03*
D13*
X158025000Y-103981250D03*
D12*
X165825000Y-103981250D03*
X165825000Y-123031250D03*
D13*
X158025000Y-123031250D03*
D14*
X164425000Y-123031250D03*
D15*
X163325000Y-123031250D03*
X160525000Y-123031250D03*
D14*
X159425000Y-123031250D03*
X159425000Y-142081250D03*
D15*
X160525000Y-142081250D03*
X163325000Y-142081250D03*
D14*
X164425000Y-142081250D03*
D13*
X158025000Y-142081250D03*
D12*
X165825000Y-142081250D03*
X165825000Y-161131250D03*
D13*
X158025000Y-161131250D03*
D14*
X164425000Y-161131250D03*
D15*
X163325000Y-161131250D03*
X160525000Y-161131250D03*
D14*
X159425000Y-161131250D03*
X178475000Y-84931250D03*
D15*
X179575000Y-84931250D03*
X182375000Y-84931250D03*
D14*
X183475000Y-84931250D03*
D13*
X177075000Y-84931250D03*
D12*
X184875000Y-84931250D03*
X184875000Y-103981250D03*
D13*
X177075000Y-103981250D03*
D14*
X183475000Y-103981250D03*
D15*
X182375000Y-103981250D03*
X179575000Y-103981250D03*
D14*
X178475000Y-103981250D03*
X178475000Y-123031250D03*
D15*
X179575000Y-123031250D03*
X182375000Y-123031250D03*
D14*
X183475000Y-123031250D03*
D13*
X177075000Y-123031250D03*
D12*
X184875000Y-123031250D03*
D13*
X193243750Y-167683749D03*
D16*
G36*
X192150930Y-167390929D02*
G01*
X193536570Y-166590929D01*
X194336570Y-167976569D01*
X192950930Y-168776569D01*
X192150930Y-167390929D01*
X192150930Y-167390929D01*
G37*
D13*
X189343750Y-160928751D03*
D17*
X192543750Y-166471314D03*
D16*
G36*
X191602244Y-165340577D02*
G01*
X192035256Y-165090577D01*
X193485256Y-167602051D01*
X193052244Y-167852051D01*
X191602244Y-165340577D01*
X191602244Y-165340577D01*
G37*
D18*
X191993750Y-165518686D03*
D16*
G36*
X191074135Y-165125866D02*
G01*
X192113365Y-164525866D01*
X192913365Y-165911506D01*
X191874135Y-166511506D01*
X191074135Y-165125866D01*
X191074135Y-165125866D01*
G37*
D18*
X190593750Y-163093814D03*
D16*
G36*
X189674135Y-162700994D02*
G01*
X190713365Y-162100994D01*
X191513365Y-163486634D01*
X190474135Y-164086634D01*
X189674135Y-162700994D01*
X189674135Y-162700994D01*
G37*
D17*
X190043750Y-162141186D03*
D16*
G36*
X189102244Y-161010449D02*
G01*
X189535256Y-160760449D01*
X190985256Y-163271923D01*
X190552244Y-163521923D01*
X189102244Y-161010449D01*
X189102244Y-161010449D01*
G37*
D14*
X64175000Y-113506250D03*
D15*
X65275000Y-113506250D03*
X68075000Y-113506250D03*
D14*
X69175000Y-113506250D03*
D13*
X62775000Y-113506250D03*
D12*
X70575000Y-113506250D03*
X127725000Y-113506250D03*
D13*
X119925000Y-113506250D03*
D14*
X126325000Y-113506250D03*
D15*
X125225000Y-113506250D03*
X122425000Y-113506250D03*
D14*
X121325000Y-113506250D03*
X121325000Y-132556250D03*
D15*
X122425000Y-132556250D03*
X125225000Y-132556250D03*
D14*
X126325000Y-132556250D03*
D13*
X119925000Y-132556250D03*
D12*
X127725000Y-132556250D03*
D13*
X181351466Y-151188966D03*
D16*
G36*
X180220095Y-151188966D02*
G01*
X181351466Y-150057595D01*
X182482837Y-151188966D01*
X181351466Y-152320337D01*
X180220095Y-151188966D01*
X180220095Y-151188966D01*
G37*
D13*
X175836034Y-145673534D03*
D17*
X180361517Y-150199017D03*
D16*
G36*
X179159435Y-149350489D02*
G01*
X179512989Y-148996935D01*
X181563599Y-151047545D01*
X181210045Y-151401099D01*
X179159435Y-149350489D01*
X179159435Y-149350489D01*
G37*
D18*
X179583699Y-149421199D03*
D16*
G36*
X178593750Y-149279778D02*
G01*
X179442278Y-148431250D01*
X180573648Y-149562620D01*
X179725120Y-150411148D01*
X178593750Y-149279778D01*
X178593750Y-149279778D01*
G37*
D18*
X177603801Y-147441301D03*
D16*
G36*
X176613852Y-147299880D02*
G01*
X177462380Y-146451352D01*
X178593750Y-147582722D01*
X177745222Y-148431250D01*
X176613852Y-147299880D01*
X176613852Y-147299880D01*
G37*
D17*
X176825983Y-146663483D03*
D16*
G36*
X175623901Y-145814955D02*
G01*
X175977455Y-145461401D01*
X178028065Y-147512011D01*
X177674511Y-147865565D01*
X175623901Y-145814955D01*
X175623901Y-145814955D01*
G37*
D14*
X64175000Y-94456250D03*
D15*
X65275000Y-94456250D03*
X68075000Y-94456250D03*
D14*
X69175000Y-94456250D03*
D13*
X62775000Y-94456250D03*
D12*
X70575000Y-94456250D03*
X70575000Y-132556250D03*
D13*
X62775000Y-132556250D03*
D14*
X69175000Y-132556250D03*
D15*
X68075000Y-132556250D03*
X65275000Y-132556250D03*
D14*
X64175000Y-132556250D03*
X64175000Y-151606250D03*
D15*
X65275000Y-151606250D03*
X68075000Y-151606250D03*
D14*
X69175000Y-151606250D03*
D13*
X62775000Y-151606250D03*
D12*
X70575000Y-151606250D03*
X89625000Y-94456250D03*
D13*
X81825000Y-94456250D03*
D14*
X88225000Y-94456250D03*
D15*
X87125000Y-94456250D03*
X84325000Y-94456250D03*
D14*
X83225000Y-94456250D03*
X83225000Y-113506250D03*
D15*
X84325000Y-113506250D03*
X87125000Y-113506250D03*
D14*
X88225000Y-113506250D03*
D13*
X81825000Y-113506250D03*
D12*
X89625000Y-113506250D03*
X89625000Y-132556250D03*
D13*
X81825000Y-132556250D03*
D14*
X88225000Y-132556250D03*
D15*
X87125000Y-132556250D03*
X84325000Y-132556250D03*
D14*
X83225000Y-132556250D03*
X83225000Y-151606250D03*
D15*
X84325000Y-151606250D03*
X87125000Y-151606250D03*
D14*
X88225000Y-151606250D03*
D13*
X81825000Y-151606250D03*
D12*
X89625000Y-151606250D03*
D14*
X102275000Y-80168750D03*
D15*
X103375000Y-80168750D03*
X106175000Y-80168750D03*
D14*
X107275000Y-80168750D03*
D13*
X100875000Y-80168750D03*
D12*
X108675000Y-80168750D03*
X108675000Y-99218750D03*
D13*
X100875000Y-99218750D03*
D14*
X107275000Y-99218750D03*
D15*
X106175000Y-99218750D03*
X103375000Y-99218750D03*
D14*
X102275000Y-99218750D03*
X102275000Y-118268750D03*
D15*
X103375000Y-118268750D03*
X106175000Y-118268750D03*
D14*
X107275000Y-118268750D03*
D13*
X100875000Y-118268750D03*
D12*
X108675000Y-118268750D03*
X108675000Y-137318750D03*
D13*
X100875000Y-137318750D03*
D14*
X107275000Y-137318750D03*
D15*
X106175000Y-137318750D03*
X103375000Y-137318750D03*
D14*
X102275000Y-137318750D03*
D12*
X127725000Y-74612500D03*
D13*
X119925000Y-74612500D03*
D14*
X126325000Y-74612500D03*
D15*
X125225000Y-74612500D03*
X122425000Y-74612500D03*
D14*
X121325000Y-74612500D03*
X121325000Y-94456250D03*
D15*
X122425000Y-94456250D03*
X125225000Y-94456250D03*
D14*
X126325000Y-94456250D03*
D13*
X119925000Y-94456250D03*
D12*
X127725000Y-94456250D03*
D19*
X69175000Y-100275000D03*
X69215000Y-99695000D03*
X64175000Y-100775000D03*
X62865000Y-102235000D03*
D20*
X69830000Y-101505000D03*
D21*
X70484995Y-102235004D02*
X69175005Y-100774996D01*
D20*
X63520000Y-101505000D03*
D21*
X62865005Y-102235004D02*
X64174995Y-100774996D01*
D19*
X69175000Y-100775000D03*
X70485000Y-102235000D03*
D20*
X64155000Y-99985000D03*
D21*
X64135001Y-99695000D02*
X64174999Y-100275000D01*
D19*
X64175000Y-100275000D03*
X64135000Y-99695000D03*
D20*
X69195000Y-99985000D03*
D21*
X69214999Y-99695000D02*
X69175001Y-100275000D01*
D19*
X69175000Y-81225000D03*
X69215000Y-80645000D03*
X64175000Y-81725000D03*
X62865000Y-83185000D03*
D20*
X69830000Y-82455000D03*
D21*
X70484995Y-83185004D02*
X69175005Y-81724996D01*
D20*
X63520000Y-82455000D03*
D21*
X62865005Y-83185004D02*
X64174995Y-81724996D01*
D19*
X69175000Y-81725000D03*
X70485000Y-83185000D03*
D20*
X64155000Y-80935000D03*
D21*
X64135001Y-80645000D02*
X64174999Y-81225000D01*
D19*
X64175000Y-81225000D03*
X64135000Y-80645000D03*
D20*
X69195000Y-80935000D03*
D21*
X69214999Y-80645000D02*
X69175001Y-81225000D01*
D20*
X145395000Y-109510000D03*
D21*
X145414999Y-109220000D02*
X145375001Y-109800000D01*
D19*
X140335000Y-109220000D03*
X140375000Y-109800000D03*
D20*
X140355000Y-109510000D03*
D21*
X140335001Y-109220000D02*
X140374999Y-109800000D01*
D19*
X146685000Y-111760000D03*
X145375000Y-110300000D03*
D20*
X139720000Y-111030000D03*
D21*
X139065005Y-111760004D02*
X140374995Y-110299996D01*
D20*
X146030000Y-111030000D03*
D21*
X146684995Y-111760004D02*
X145375005Y-110299996D01*
D19*
X139065000Y-111760000D03*
X140375000Y-110300000D03*
X145415000Y-109220000D03*
X145375000Y-109800000D03*
X145375000Y-128850000D03*
X145415000Y-128270000D03*
X140375000Y-129350000D03*
X139065000Y-130810000D03*
D20*
X146030000Y-130080000D03*
D21*
X146684995Y-130810004D02*
X145375005Y-129349996D01*
D20*
X139720000Y-130080000D03*
D21*
X139065005Y-130810004D02*
X140374995Y-129349996D01*
D19*
X145375000Y-129350000D03*
X146685000Y-130810000D03*
D20*
X140355000Y-128560000D03*
D21*
X140335001Y-128270000D02*
X140374999Y-128850000D01*
D19*
X140375000Y-128850000D03*
X140335000Y-128270000D03*
D20*
X145395000Y-128560000D03*
D21*
X145414999Y-128270000D02*
X145375001Y-128850000D01*
D20*
X164445000Y-71410000D03*
D21*
X164464999Y-71120000D02*
X164425001Y-71700000D01*
D19*
X159385000Y-71120000D03*
X159425000Y-71700000D03*
D20*
X159405000Y-71410000D03*
D21*
X159385001Y-71120000D02*
X159424999Y-71700000D01*
D19*
X165735000Y-73660000D03*
X164425000Y-72200000D03*
D20*
X158770000Y-72930000D03*
D21*
X158115005Y-73660004D02*
X159424995Y-72199996D01*
D20*
X165080000Y-72930000D03*
D21*
X165734995Y-73660004D02*
X164425005Y-72199996D01*
D19*
X158115000Y-73660000D03*
X159425000Y-72200000D03*
X164465000Y-71120000D03*
X164425000Y-71700000D03*
X164425000Y-90750000D03*
X164465000Y-90170000D03*
X159425000Y-91250000D03*
X158115000Y-92710000D03*
D20*
X165080000Y-91980000D03*
D21*
X165734995Y-92710004D02*
X164425005Y-91249996D01*
D20*
X158770000Y-91980000D03*
D21*
X158115005Y-92710004D02*
X159424995Y-91249996D01*
D19*
X164425000Y-91250000D03*
X165735000Y-92710000D03*
D20*
X159405000Y-90460000D03*
D21*
X159385001Y-90170000D02*
X159424999Y-90750000D01*
D19*
X159425000Y-90750000D03*
X159385000Y-90170000D03*
D20*
X164445000Y-90460000D03*
D21*
X164464999Y-90170000D02*
X164425001Y-90750000D01*
D20*
X164445000Y-109510000D03*
D21*
X164464999Y-109220000D02*
X164425001Y-109800000D01*
D19*
X159385000Y-109220000D03*
X159425000Y-109800000D03*
D20*
X159405000Y-109510000D03*
D21*
X159385001Y-109220000D02*
X159424999Y-109800000D01*
D19*
X165735000Y-111760000D03*
X164425000Y-110300000D03*
D20*
X158770000Y-111030000D03*
D21*
X158115005Y-111760004D02*
X159424995Y-110299996D01*
D20*
X165080000Y-111030000D03*
D21*
X165734995Y-111760004D02*
X164425005Y-110299996D01*
D19*
X158115000Y-111760000D03*
X159425000Y-110300000D03*
X164465000Y-109220000D03*
X164425000Y-109800000D03*
X164425000Y-128850000D03*
X164465000Y-128270000D03*
X159425000Y-129350000D03*
X158115000Y-130810000D03*
D20*
X165080000Y-130080000D03*
D21*
X165734995Y-130810004D02*
X164425005Y-129349996D01*
D20*
X158770000Y-130080000D03*
D21*
X158115005Y-130810004D02*
X159424995Y-129349996D01*
D19*
X164425000Y-129350000D03*
X165735000Y-130810000D03*
D20*
X159405000Y-128560000D03*
D21*
X159385001Y-128270000D02*
X159424999Y-128850000D01*
D19*
X159425000Y-128850000D03*
X159385000Y-128270000D03*
D20*
X164445000Y-128560000D03*
D21*
X164464999Y-128270000D02*
X164425001Y-128850000D01*
D20*
X164445000Y-147610000D03*
D21*
X164464999Y-147320000D02*
X164425001Y-147900000D01*
D19*
X159385000Y-147320000D03*
X159425000Y-147900000D03*
D20*
X159405000Y-147610000D03*
D21*
X159385001Y-147320000D02*
X159424999Y-147900000D01*
D19*
X165735000Y-149860000D03*
X164425000Y-148400000D03*
D20*
X158770000Y-149130000D03*
D21*
X158115005Y-149860004D02*
X159424995Y-148399996D01*
D20*
X165080000Y-149130000D03*
D21*
X165734995Y-149860004D02*
X164425005Y-148399996D01*
D19*
X158115000Y-149860000D03*
X159425000Y-148400000D03*
X164465000Y-147320000D03*
X164425000Y-147900000D03*
X183475000Y-71700000D03*
X183515000Y-71120000D03*
X178475000Y-72200000D03*
X177165000Y-73660000D03*
D20*
X184130000Y-72930000D03*
D21*
X184784995Y-73660004D02*
X183475005Y-72199996D01*
D20*
X177820000Y-72930000D03*
D21*
X177165005Y-73660004D02*
X178474995Y-72199996D01*
D19*
X183475000Y-72200000D03*
X184785000Y-73660000D03*
D20*
X178455000Y-71410000D03*
D21*
X178435001Y-71120000D02*
X178474999Y-71700000D01*
D19*
X178475000Y-71700000D03*
X178435000Y-71120000D03*
D20*
X183495000Y-71410000D03*
D21*
X183514999Y-71120000D02*
X183475001Y-71700000D01*
D20*
X183495000Y-90460000D03*
D21*
X183514999Y-90170000D02*
X183475001Y-90750000D01*
D19*
X178435000Y-90170000D03*
X178475000Y-90750000D03*
D20*
X178455000Y-90460000D03*
D21*
X178435001Y-90170000D02*
X178474999Y-90750000D01*
D19*
X184785000Y-92710000D03*
X183475000Y-91250000D03*
D20*
X177820000Y-91980000D03*
D21*
X177165005Y-92710004D02*
X178474995Y-91249996D01*
D20*
X184130000Y-91980000D03*
D21*
X184784995Y-92710004D02*
X183475005Y-91249996D01*
D19*
X177165000Y-92710000D03*
X178475000Y-91250000D03*
X183515000Y-90170000D03*
X183475000Y-90750000D03*
D20*
X183495000Y-109510000D03*
D21*
X183514999Y-109220000D02*
X183475001Y-109800000D01*
D19*
X178435000Y-109220000D03*
X178475000Y-109800000D03*
D20*
X178455000Y-109510000D03*
D21*
X178435001Y-109220000D02*
X178474999Y-109800000D01*
D19*
X184785000Y-111760000D03*
X183475000Y-110300000D03*
D20*
X177820000Y-111030000D03*
D21*
X177165005Y-111760004D02*
X178474995Y-110299996D01*
D20*
X184130000Y-111030000D03*
D21*
X184784995Y-111760004D02*
X183475005Y-110299996D01*
D19*
X177165000Y-111760000D03*
X178475000Y-110300000D03*
X183515000Y-109220000D03*
X183475000Y-109800000D03*
D20*
X190090051Y-141271368D03*
D21*
X190309254Y-141080448D02*
X189870848Y-141462288D01*
D19*
X186717151Y-137488346D03*
X186335314Y-137926753D03*
D20*
X186526232Y-137707549D03*
D21*
X186717152Y-137488346D02*
X186335312Y-137926752D01*
D19*
X189411228Y-143774526D03*
X189517294Y-141815840D03*
D20*
X185002417Y-138333339D03*
D21*
X184023074Y-138386378D02*
X185981760Y-138280300D01*
D20*
X189464261Y-142795183D03*
D21*
X189411222Y-143774526D02*
X189517300Y-141815840D01*
D19*
X184023074Y-138386372D03*
X185981760Y-138280306D03*
X190309254Y-141080449D03*
X189870847Y-141462286D03*
X203080813Y-159749864D03*
X203603109Y-159494505D03*
X200147802Y-155669736D03*
X198228405Y-155265243D03*
D20*
X202343103Y-160932110D03*
D21*
X202038398Y-161864355D02*
X202647808Y-159999865D01*
D20*
X199188103Y-155467490D03*
D21*
X198228403Y-155265249D02*
X200147803Y-155669731D01*
D19*
X202647802Y-159999864D03*
X202038405Y-161864357D03*
D20*
X200821962Y-155257416D03*
D21*
X201063110Y-155095096D02*
X200580814Y-155419736D01*
D19*
X200580814Y-155419736D03*
X201063109Y-155095095D03*
D20*
X203341962Y-159622184D03*
D21*
X203603109Y-159494504D02*
X203080815Y-159749864D01*
D20*
X145395000Y-71410000D03*
D21*
X145414999Y-71120000D02*
X145375001Y-71700000D01*
D19*
X140335000Y-71120000D03*
X140375000Y-71700000D03*
D20*
X140355000Y-71410000D03*
D21*
X140335001Y-71120000D02*
X140374999Y-71700000D01*
D19*
X146685000Y-73660000D03*
X145375000Y-72200000D03*
D20*
X139720000Y-72930000D03*
D21*
X139065005Y-73660004D02*
X140374995Y-72199996D01*
D20*
X146030000Y-72930000D03*
D21*
X146684995Y-73660004D02*
X145375005Y-72199996D01*
D19*
X139065000Y-73660000D03*
X140375000Y-72200000D03*
X145415000Y-71120000D03*
X145375000Y-71700000D03*
X145375000Y-90750000D03*
X145415000Y-90170000D03*
X140375000Y-91250000D03*
X139065000Y-92710000D03*
D20*
X146030000Y-91980000D03*
D21*
X146684995Y-92710004D02*
X145375005Y-91249996D01*
D20*
X139720000Y-91980000D03*
D21*
X139065005Y-92710004D02*
X140374995Y-91249996D01*
D19*
X145375000Y-91250000D03*
X146685000Y-92710000D03*
D20*
X140355000Y-90460000D03*
D21*
X140335001Y-90170000D02*
X140374999Y-90750000D01*
D19*
X140375000Y-90750000D03*
X140335000Y-90170000D03*
D20*
X145395000Y-90460000D03*
D21*
X145414999Y-90170000D02*
X145375001Y-90750000D01*
D20*
X126345000Y-80935000D03*
D21*
X126364999Y-80645000D02*
X126325001Y-81225000D01*
D19*
X121285000Y-80645000D03*
X121325000Y-81225000D03*
D20*
X121305000Y-80935000D03*
D21*
X121285001Y-80645000D02*
X121324999Y-81225000D01*
D19*
X127635000Y-83185000D03*
X126325000Y-81725000D03*
D20*
X120670000Y-82455000D03*
D21*
X120015005Y-83185004D02*
X121324995Y-81724996D01*
D20*
X126980000Y-82455000D03*
D21*
X127634995Y-83185004D02*
X126325005Y-81724996D01*
D19*
X120015000Y-83185000D03*
X121325000Y-81725000D03*
X126365000Y-80645000D03*
X126325000Y-81225000D03*
X126325000Y-100275000D03*
X126365000Y-99695000D03*
X121325000Y-100775000D03*
X120015000Y-102235000D03*
D20*
X126980000Y-101505000D03*
D21*
X127634995Y-102235004D02*
X126325005Y-100774996D01*
D20*
X120670000Y-101505000D03*
D21*
X120015005Y-102235004D02*
X121324995Y-100774996D01*
D19*
X126325000Y-100775000D03*
X127635000Y-102235000D03*
D20*
X121305000Y-99985000D03*
D21*
X121285001Y-99695000D02*
X121324999Y-100275000D01*
D19*
X121325000Y-100275000D03*
X121285000Y-99695000D03*
D20*
X126345000Y-99985000D03*
D21*
X126364999Y-99695000D02*
X126325001Y-100275000D01*
D19*
X69175000Y-119325000D03*
X69215000Y-118745000D03*
X64175000Y-119825000D03*
X62865000Y-121285000D03*
D20*
X69830000Y-120555000D03*
D21*
X70484995Y-121285004D02*
X69175005Y-119824996D01*
D20*
X63520000Y-120555000D03*
D21*
X62865005Y-121285004D02*
X64174995Y-119824996D01*
D19*
X69175000Y-119825000D03*
X70485000Y-121285000D03*
D20*
X64155000Y-119035000D03*
D21*
X64135001Y-118745000D02*
X64174999Y-119325000D01*
D19*
X64175000Y-119325000D03*
X64135000Y-118745000D03*
D20*
X69195000Y-119035000D03*
D21*
X69214999Y-118745000D02*
X69175001Y-119325000D01*
D20*
X69195000Y-138085000D03*
D21*
X69214999Y-137795000D02*
X69175001Y-138375000D01*
D19*
X64135000Y-137795000D03*
X64175000Y-138375000D03*
D20*
X64155000Y-138085000D03*
D21*
X64135001Y-137795000D02*
X64174999Y-138375000D01*
D19*
X70485000Y-140335000D03*
X69175000Y-138875000D03*
D20*
X63520000Y-139605000D03*
D21*
X62865005Y-140335004D02*
X64174995Y-138874996D01*
D20*
X69830000Y-139605000D03*
D21*
X70484995Y-140335004D02*
X69175005Y-138874996D01*
D19*
X62865000Y-140335000D03*
X64175000Y-138875000D03*
X69215000Y-137795000D03*
X69175000Y-138375000D03*
X88225000Y-81225000D03*
X88265000Y-80645000D03*
X83225000Y-81725000D03*
X81915000Y-83185000D03*
D20*
X88880000Y-82455000D03*
D21*
X89534995Y-83185004D02*
X88225005Y-81724996D01*
D20*
X82570000Y-82455000D03*
D21*
X81915005Y-83185004D02*
X83224995Y-81724996D01*
D19*
X88225000Y-81725000D03*
X89535000Y-83185000D03*
D20*
X83205000Y-80935000D03*
D21*
X83185001Y-80645000D02*
X83224999Y-81225000D01*
D19*
X83225000Y-81225000D03*
X83185000Y-80645000D03*
D20*
X88245000Y-80935000D03*
D21*
X88264999Y-80645000D02*
X88225001Y-81225000D01*
D20*
X88245000Y-99985000D03*
D21*
X88264999Y-99695000D02*
X88225001Y-100275000D01*
D19*
X83185000Y-99695000D03*
X83225000Y-100275000D03*
D20*
X83205000Y-99985000D03*
D21*
X83185001Y-99695000D02*
X83224999Y-100275000D01*
D19*
X89535000Y-102235000D03*
X88225000Y-100775000D03*
D20*
X82570000Y-101505000D03*
D21*
X81915005Y-102235004D02*
X83224995Y-100774996D01*
D20*
X88880000Y-101505000D03*
D21*
X89534995Y-102235004D02*
X88225005Y-100774996D01*
D19*
X81915000Y-102235000D03*
X83225000Y-100775000D03*
X88265000Y-99695000D03*
X88225000Y-100275000D03*
X88225000Y-119325000D03*
X88265000Y-118745000D03*
X83225000Y-119825000D03*
X81915000Y-121285000D03*
D20*
X88880000Y-120555000D03*
D21*
X89534995Y-121285004D02*
X88225005Y-119824996D01*
D20*
X82570000Y-120555000D03*
D21*
X81915005Y-121285004D02*
X83224995Y-119824996D01*
D19*
X88225000Y-119825000D03*
X89535000Y-121285000D03*
D20*
X83205000Y-119035000D03*
D21*
X83185001Y-118745000D02*
X83224999Y-119325000D01*
D19*
X83225000Y-119325000D03*
X83185000Y-118745000D03*
D20*
X88245000Y-119035000D03*
D21*
X88264999Y-118745000D02*
X88225001Y-119325000D01*
D20*
X88245000Y-138085000D03*
D21*
X88264999Y-137795000D02*
X88225001Y-138375000D01*
D19*
X83185000Y-137795000D03*
X83225000Y-138375000D03*
D20*
X83205000Y-138085000D03*
D21*
X83185001Y-137795000D02*
X83224999Y-138375000D01*
D19*
X89535000Y-140335000D03*
X88225000Y-138875000D03*
D20*
X82570000Y-139605000D03*
D21*
X81915005Y-140335004D02*
X83224995Y-138874996D01*
D20*
X88880000Y-139605000D03*
D21*
X89534995Y-140335004D02*
X88225005Y-138874996D01*
D19*
X81915000Y-140335000D03*
X83225000Y-138875000D03*
X88265000Y-137795000D03*
X88225000Y-138375000D03*
D20*
X107295000Y-66647500D03*
D21*
X107314999Y-66357500D02*
X107275001Y-66937500D01*
D19*
X102235000Y-66357500D03*
X102275000Y-66937500D03*
D20*
X102255000Y-66647500D03*
D21*
X102235001Y-66357500D02*
X102274999Y-66937500D01*
D19*
X108585000Y-68897500D03*
X107275000Y-67437500D03*
D20*
X101620000Y-68167500D03*
D21*
X100965005Y-68897504D02*
X102274995Y-67437496D01*
D20*
X107930000Y-68167500D03*
D21*
X108584995Y-68897504D02*
X107275005Y-67437496D01*
D19*
X100965000Y-68897500D03*
X102275000Y-67437500D03*
X107315000Y-66357500D03*
X107275000Y-66937500D03*
X107275000Y-85987500D03*
X107315000Y-85407500D03*
X102275000Y-86487500D03*
X100965000Y-87947500D03*
D20*
X107930000Y-87217500D03*
D21*
X108584995Y-87947504D02*
X107275005Y-86487496D01*
D20*
X101620000Y-87217500D03*
D21*
X100965005Y-87947504D02*
X102274995Y-86487496D01*
D19*
X107275000Y-86487500D03*
X108585000Y-87947500D03*
D20*
X102255000Y-85697500D03*
D21*
X102235001Y-85407500D02*
X102274999Y-85987500D01*
D19*
X102275000Y-85987500D03*
X102235000Y-85407500D03*
D20*
X107295000Y-85697500D03*
D21*
X107314999Y-85407500D02*
X107275001Y-85987500D01*
D20*
X107295000Y-104747500D03*
D21*
X107314999Y-104457500D02*
X107275001Y-105037500D01*
D19*
X102235000Y-104457500D03*
X102275000Y-105037500D03*
D20*
X102255000Y-104747500D03*
D21*
X102235001Y-104457500D02*
X102274999Y-105037500D01*
D19*
X108585000Y-106997500D03*
X107275000Y-105537500D03*
D20*
X101620000Y-106267500D03*
D21*
X100965005Y-106997504D02*
X102274995Y-105537496D01*
D20*
X107930000Y-106267500D03*
D21*
X108584995Y-106997504D02*
X107275005Y-105537496D01*
D19*
X100965000Y-106997500D03*
X102275000Y-105537500D03*
X107315000Y-104457500D03*
X107275000Y-105037500D03*
X107275000Y-124087500D03*
X107315000Y-123507500D03*
X102275000Y-124587500D03*
X100965000Y-126047500D03*
D20*
X107930000Y-125317500D03*
D21*
X108584995Y-126047504D02*
X107275005Y-124587496D01*
D20*
X101620000Y-125317500D03*
D21*
X100965005Y-126047504D02*
X102274995Y-124587496D01*
D19*
X107275000Y-124587500D03*
X108585000Y-126047500D03*
D20*
X102255000Y-123797500D03*
D21*
X102235001Y-123507500D02*
X102274999Y-124087500D01*
D19*
X102275000Y-124087500D03*
X102235000Y-123507500D03*
D20*
X107295000Y-123797500D03*
D21*
X107314999Y-123507500D02*
X107275001Y-124087500D01*
D19*
X126325000Y-62175000D03*
X126365000Y-61595000D03*
X121325000Y-62675000D03*
X120015000Y-64135000D03*
D20*
X126980000Y-63405000D03*
D21*
X127634995Y-64135004D02*
X126325005Y-62674996D01*
D20*
X120670000Y-63405000D03*
D21*
X120015005Y-64135004D02*
X121324995Y-62674996D01*
D19*
X126325000Y-62675000D03*
X127635000Y-64135000D03*
D20*
X121305000Y-61885000D03*
D21*
X121285001Y-61595000D02*
X121324999Y-62175000D01*
D19*
X121325000Y-62175000D03*
X121285000Y-61595000D03*
D20*
X126345000Y-61885000D03*
D21*
X126364999Y-61595000D02*
X126325001Y-62175000D01*
D19*
X126325000Y-119325000D03*
X126365000Y-118745000D03*
X121325000Y-119825000D03*
X120015000Y-121285000D03*
D20*
X126980000Y-120555000D03*
D21*
X127634995Y-121285004D02*
X126325005Y-119824996D01*
D20*
X120670000Y-120555000D03*
D21*
X120015005Y-121285004D02*
X121324995Y-119824996D01*
D19*
X126325000Y-119825000D03*
X127635000Y-121285000D03*
D20*
X121305000Y-119035000D03*
D21*
X121285001Y-118745000D02*
X121324999Y-119325000D01*
D19*
X121325000Y-119325000D03*
X121285000Y-118745000D03*
D20*
X126345000Y-119035000D03*
D21*
X126364999Y-118745000D02*
X126325001Y-119325000D01*
D22*
X131445000Y-57467500D03*
D10*
X131445000Y-60007500D03*
X131445000Y-62547500D03*
X131445000Y-65087500D03*
X131445000Y-67627500D03*
X131445000Y-70167500D03*
X131445000Y-72707500D03*
X131445000Y-75247500D03*
X131445000Y-77787500D03*
X131445000Y-80327500D03*
X131445000Y-82867500D03*
X116205000Y-85407500D03*
X116205000Y-82867500D03*
X116205000Y-80327500D03*
X116205000Y-77787500D03*
X116205000Y-75247500D03*
X116205000Y-72707500D03*
X116205000Y-70167500D03*
X116205000Y-67627500D03*
X116205000Y-65087500D03*
X116205000Y-62547500D03*
X116205000Y-60007500D03*
X131445000Y-85407500D03*
X116205000Y-57467500D03*
D23*
X147637500Y-81756250D03*
X172243750Y-139700000D03*
X173831250Y-138112500D03*
X169068750Y-103187500D03*
X93662500Y-66675000D03*
X96043750Y-63500000D03*
D24*
X114300000Y-74612500D02*
X116205000Y-72707500D01*
X110331250Y-74612500D02*
X114300000Y-74612500D01*
X107950000Y-76993750D02*
X110331250Y-74612500D01*
X65881250Y-76993750D02*
X107950000Y-76993750D01*
X64155000Y-80935000D02*
X64155000Y-78720000D01*
X64155000Y-78720000D02*
X65881250Y-76993750D01*
X110490000Y-75247500D02*
X116205000Y-75247500D01*
X107950000Y-77787500D02*
X110490000Y-75247500D01*
X83205000Y-80935000D02*
X86352500Y-77787500D01*
X86352500Y-77787500D02*
X107950000Y-77787500D01*
X138112500Y-72707500D02*
X139065000Y-73660000D01*
X131445000Y-72707500D02*
X138112500Y-72707500D01*
X147637500Y-81756250D02*
X146843750Y-80962500D01*
X146843750Y-80962500D02*
X142875000Y-80962500D01*
X139720000Y-77807500D02*
X139720000Y-72930000D01*
X142875000Y-80962500D02*
X139720000Y-77807500D01*
X131445000Y-67627500D02*
X133508750Y-67627500D01*
X133508750Y-67627500D02*
X134143750Y-68262500D01*
X134143750Y-68262500D02*
X165100000Y-68262500D01*
X165100000Y-68262500D02*
X168275000Y-71437500D01*
X177475001Y-71200001D02*
X178475000Y-72200000D01*
X177395000Y-71120000D02*
X177475001Y-71200001D01*
X168592500Y-71120000D02*
X177395000Y-71120000D01*
X168275000Y-71437500D02*
X168592500Y-71120000D01*
X157814112Y-71974112D02*
X158770000Y-72930000D01*
X154896250Y-69056250D02*
X157814112Y-71974112D01*
X132556250Y-69056250D02*
X154896250Y-69056250D01*
X131445000Y-70167500D02*
X132556250Y-69056250D01*
X165825000Y-105031250D02*
X165825000Y-103981250D01*
X166362500Y-105568750D02*
X165825000Y-105031250D01*
X184337500Y-105568750D02*
X166362500Y-105568750D01*
X184875000Y-105031250D02*
X184337500Y-105568750D01*
X184875000Y-103981250D02*
X184875000Y-105031250D01*
X165825000Y-105031250D02*
X165287500Y-105568750D01*
X146775000Y-105031250D02*
X147312500Y-105568750D01*
X146775000Y-103981250D02*
X146775000Y-105031250D01*
X147312500Y-105568750D02*
X149225000Y-105568750D01*
X149225000Y-105568750D02*
X150812500Y-105568750D01*
X165287500Y-105568750D02*
X150812500Y-105568750D01*
X150812500Y-105568750D02*
X149412500Y-105568750D01*
X131437500Y-99218750D02*
X127725000Y-95506250D01*
X139950748Y-99218750D02*
X131437500Y-99218750D01*
X144713248Y-103981250D02*
X139950748Y-99218750D01*
X146775000Y-103981250D02*
X144713248Y-103981250D01*
X109725000Y-99218750D02*
X112106250Y-96837500D01*
X108675000Y-99218750D02*
X109725000Y-99218750D01*
X112106250Y-96837500D02*
X126206250Y-96837500D01*
X127725000Y-95506250D02*
X127725000Y-94456250D01*
X126393750Y-96837500D02*
X127725000Y-95506250D01*
X126206250Y-96837500D02*
X126393750Y-96837500D01*
X108675000Y-100268750D02*
X108675000Y-99218750D01*
X89625000Y-113506250D02*
X90675000Y-113506250D01*
X90675000Y-113506250D02*
X93662500Y-110518750D01*
X93662500Y-110518750D02*
X93662500Y-107156250D01*
X93662500Y-107156250D02*
X99218750Y-101600000D01*
X99218750Y-101600000D02*
X107343750Y-101600000D01*
X107343750Y-101600000D02*
X108675000Y-100268750D01*
X89625000Y-114556250D02*
X89625000Y-113506250D01*
X88293750Y-115887500D02*
X89625000Y-114556250D01*
X71906250Y-115887500D02*
X88293750Y-115887500D01*
X70575000Y-114556250D02*
X71906250Y-115887500D01*
X70575000Y-113506250D02*
X70575000Y-114556250D01*
X108675000Y-98168750D02*
X111125000Y-95718750D01*
X108675000Y-99218750D02*
X108675000Y-98168750D01*
X111125000Y-85407500D02*
X116205000Y-80327500D01*
X111125000Y-95718750D02*
X111125000Y-85407500D01*
X89625000Y-95506250D02*
X89625000Y-94456250D01*
X89275000Y-95856250D02*
X89625000Y-95506250D01*
X73025000Y-95856250D02*
X89275000Y-95856250D01*
X71625000Y-94456250D02*
X73025000Y-95856250D01*
X70575000Y-94456250D02*
X71625000Y-94456250D01*
X108675000Y-80168750D02*
X109725000Y-80168750D01*
X109725000Y-80168750D02*
X113444949Y-76448801D01*
X113444949Y-76448801D02*
X124838699Y-76448801D01*
X124838699Y-76448801D02*
X125383648Y-76993750D01*
X125383648Y-76993750D02*
X126393750Y-76993750D01*
X126393750Y-76993750D02*
X127725000Y-75662500D01*
X145725000Y-84931250D02*
X146775000Y-84931250D01*
X165825000Y-85981250D02*
X165825000Y-84931250D01*
X165287500Y-86518750D02*
X165825000Y-85981250D01*
X149412500Y-86518750D02*
X165287500Y-86518750D01*
X147825000Y-84931250D02*
X149412500Y-86518750D01*
X146775000Y-84931250D02*
X147825000Y-84931250D01*
X184875000Y-85981250D02*
X184875000Y-84931250D01*
X184337500Y-86518750D02*
X184875000Y-85981250D01*
X166362500Y-86518750D02*
X184337500Y-86518750D01*
X165825000Y-85981250D02*
X166362500Y-86518750D01*
X130205725Y-77787500D02*
X131445000Y-77787500D01*
X129850000Y-77787500D02*
X130205725Y-77787500D01*
X127725000Y-75662500D02*
X129850000Y-77787500D01*
X127725000Y-74612500D02*
X127725000Y-75662500D01*
X138581250Y-77787500D02*
X140168750Y-79375000D01*
X131445000Y-77787500D02*
X138581250Y-77787500D01*
X139919949Y-79126199D02*
X140168750Y-79375000D01*
X140168750Y-79375000D02*
X145725000Y-84931250D01*
X89625000Y-88968750D02*
X89625000Y-94456250D01*
X91281250Y-87312500D02*
X89625000Y-88968750D01*
X92075000Y-87312500D02*
X91281250Y-87312500D01*
X108675000Y-81218750D02*
X108137500Y-81756250D01*
X108675000Y-80168750D02*
X108675000Y-81218750D01*
X108137500Y-81756250D02*
X93662500Y-81756250D01*
X93662500Y-81756250D02*
X92868750Y-82550000D01*
X92868750Y-82550000D02*
X92868750Y-86518750D01*
X92868750Y-86518750D02*
X92075000Y-87312500D01*
X70575000Y-151606250D02*
X79375000Y-151606250D01*
X79375000Y-151606250D02*
X81756250Y-149225000D01*
X88575000Y-151606250D02*
X89625000Y-151606250D01*
X86193750Y-149225000D02*
X88575000Y-151606250D01*
X81756250Y-149225000D02*
X86193750Y-149225000D01*
X108675000Y-136268750D02*
X108675000Y-137318750D01*
X89625000Y-151606250D02*
X89625000Y-150556250D01*
X89625000Y-150556250D02*
X92075000Y-148106250D01*
X92075000Y-148106250D02*
X92075000Y-144462500D01*
X92075000Y-144462500D02*
X92868750Y-143668750D01*
X108137500Y-135731250D02*
X108675000Y-136268750D01*
X92868750Y-137318750D02*
X94456250Y-135731250D01*
X94456250Y-135731250D02*
X108137500Y-135731250D01*
X92868750Y-143668750D02*
X92868750Y-137318750D01*
X108675000Y-137318750D02*
X108675000Y-135800000D01*
X112712500Y-131762500D02*
X114300000Y-131762500D01*
X127725000Y-131506250D02*
X127725000Y-132556250D01*
X114300000Y-131762500D02*
X115887500Y-130175000D01*
X126393750Y-130175000D02*
X127725000Y-131506250D01*
X108675000Y-135800000D02*
X112712500Y-131762500D01*
X115887500Y-130175000D02*
X126393750Y-130175000D01*
X127725000Y-132556250D02*
X132556250Y-132556250D01*
X132556250Y-132556250D02*
X138906250Y-138906250D01*
X145725000Y-142081250D02*
X146775000Y-142081250D01*
X142550000Y-138906250D02*
X145725000Y-142081250D01*
X138906250Y-138906250D02*
X142550000Y-138906250D01*
X165825000Y-141031250D02*
X165825000Y-142081250D01*
X164493750Y-139700000D02*
X165825000Y-141031250D01*
X150206250Y-139700000D02*
X164493750Y-139700000D01*
X147825000Y-142081250D02*
X150206250Y-139700000D01*
X146775000Y-142081250D02*
X147825000Y-142081250D01*
X166875000Y-142081250D02*
X170050000Y-138906250D01*
X165825000Y-142081250D02*
X166875000Y-142081250D01*
X170050000Y-138906250D02*
X173037500Y-138906250D01*
X173037500Y-138906250D02*
X181768750Y-147637500D01*
X181351466Y-148054784D02*
X181351466Y-151188966D01*
X181768750Y-147637500D02*
X181351466Y-148054784D01*
X89625000Y-134212500D02*
X89625000Y-132556250D01*
X74006250Y-134937500D02*
X88900000Y-134937500D01*
X88900000Y-134937500D02*
X89625000Y-134212500D01*
X70575000Y-132556250D02*
X71625000Y-132556250D01*
X71625000Y-132556250D02*
X74006250Y-134937500D01*
X108675000Y-119925000D02*
X108675000Y-118268750D01*
X100012500Y-120650000D02*
X107950000Y-120650000D01*
X107950000Y-120650000D02*
X108675000Y-119925000D01*
X127725000Y-114556250D02*
X127725000Y-113506250D01*
X126393750Y-115887500D02*
X127725000Y-114556250D01*
X116681250Y-115887500D02*
X126393750Y-115887500D01*
X114300000Y-118268750D02*
X116681250Y-115887500D01*
X108675000Y-118268750D02*
X114300000Y-118268750D01*
X146775000Y-121375000D02*
X146775000Y-123031250D01*
X146050000Y-120650000D02*
X146775000Y-121375000D01*
X165825000Y-121375000D02*
X165825000Y-123031250D01*
X165100000Y-120650000D02*
X165825000Y-121375000D01*
X155575000Y-120650000D02*
X165100000Y-120650000D01*
X146775000Y-123031250D02*
X153193750Y-123031250D01*
X153193750Y-123031250D02*
X155575000Y-120650000D01*
X184875000Y-124081250D02*
X184875000Y-123031250D01*
X183543750Y-125412500D02*
X184875000Y-124081250D01*
X169256250Y-125412500D02*
X183543750Y-125412500D01*
X166875000Y-123031250D02*
X169256250Y-125412500D01*
X165825000Y-123031250D02*
X166875000Y-123031250D01*
X127725000Y-114556250D02*
X129381250Y-116212500D01*
X130175000Y-118268750D02*
X132556250Y-120650000D01*
X132556250Y-120650000D02*
X138112500Y-120650000D01*
X137318750Y-120650000D02*
X138112500Y-120650000D01*
X138112500Y-120650000D02*
X146050000Y-120650000D01*
X100012500Y-120650000D02*
X100012500Y-123031250D01*
X100012500Y-123031250D02*
X94456250Y-128587500D01*
X90675000Y-132556250D02*
X89625000Y-132556250D01*
X94456250Y-128775000D02*
X90675000Y-132556250D01*
X94456250Y-128587500D02*
X94456250Y-128775000D01*
X130175000Y-117995000D02*
X129381250Y-117201250D01*
X130175000Y-118268750D02*
X130175000Y-117995000D01*
X129381250Y-116212500D02*
X129381250Y-117201250D01*
X166875000Y-161131250D02*
X169862500Y-158143750D01*
X165825000Y-161131250D02*
X166875000Y-161131250D01*
X169862500Y-158143750D02*
X169862500Y-141287500D01*
X169862500Y-141287500D02*
X171450000Y-139700000D01*
X171450000Y-139700000D02*
X172243750Y-139700000D01*
X194468750Y-162718750D02*
X194468750Y-166458749D01*
X173831250Y-138112500D02*
X176228149Y-140509399D01*
X192087500Y-160337500D02*
X194468750Y-162718750D01*
X176228149Y-140509399D02*
X177021899Y-140509399D01*
X177021899Y-140509399D02*
X184150000Y-147637500D01*
X184150000Y-147637500D02*
X184150000Y-148431250D01*
X194468750Y-166458749D02*
X193243750Y-167683749D01*
X184150000Y-148431250D02*
X192087500Y-156368750D01*
X192087500Y-156368750D02*
X192087500Y-160337500D01*
X169068750Y-92546649D02*
X169068750Y-103187500D01*
X169068750Y-88900000D02*
X169068750Y-93340399D01*
X131445000Y-85407500D02*
X134143750Y-88106250D01*
X168275000Y-88106250D02*
X169068750Y-88900000D01*
X134143750Y-88106250D02*
X168275000Y-88106250D01*
X89693750Y-68112500D02*
X95400000Y-68112500D01*
X111283750Y-62706250D02*
X116205000Y-67627500D01*
X100806250Y-62706250D02*
X111283750Y-62706250D01*
X95400000Y-68112500D02*
X100806250Y-62706250D01*
X93662500Y-66675000D02*
X96043750Y-64293750D01*
X96043750Y-64293750D02*
X96043750Y-63500000D01*
M02*
