G04 #@! TF.GenerationSoftware,KiCad,Pcbnew,(5.1.2)-2*
G04 #@! TF.CreationDate,2019-06-19T23:20:39-05:00*
G04 #@! TF.ProjectId,BlastersRev2,426c6173-7465-4727-9352-6576322e6b69,rev?*
G04 #@! TF.SameCoordinates,Original*
G04 #@! TF.FileFunction,Legend,Bot*
G04 #@! TF.FilePolarity,Positive*
%FSLAX46Y46*%
G04 Gerber Fmt 4.6, Leading zero omitted, Abs format (unit mm)*
G04 Created by KiCad (PCBNEW (5.1.2)-2) date 2019-06-19 23:20:39*
%MOMM*%
%LPD*%
G04 APERTURE LIST*
%ADD10C,0.150000*%
%ADD11C,0.300000*%
%ADD12C,0.381000*%
%ADD13C,2.152600*%
%ADD14C,1.900000*%
%ADD15O,2.000000X2.600000*%
%ADD16R,2.000000X2.000000*%
%ADD17C,2.000000*%
%ADD18R,2.000000X1.600000*%
%ADD19C,0.100000*%
%ADD20C,1.600000*%
%ADD21C,2.400000*%
%ADD22C,2.900000*%
%ADD23C,2.900000*%
%ADD24R,2.152600X2.152600*%
%ADD25C,3.600000*%
G04 APERTURE END LIST*
D10*
X137887142Y-107692380D02*
X138220476Y-107216190D01*
X138458571Y-107692380D02*
X138458571Y-106692380D01*
X138077619Y-106692380D01*
X137982380Y-106740000D01*
X137934761Y-106787619D01*
X137887142Y-106882857D01*
X137887142Y-107025714D01*
X137934761Y-107120952D01*
X137982380Y-107168571D01*
X138077619Y-107216190D01*
X138458571Y-107216190D01*
X136934761Y-106740000D02*
X137030000Y-106692380D01*
X137172857Y-106692380D01*
X137315714Y-106740000D01*
X137410952Y-106835238D01*
X137458571Y-106930476D01*
X137506190Y-107120952D01*
X137506190Y-107263809D01*
X137458571Y-107454285D01*
X137410952Y-107549523D01*
X137315714Y-107644761D01*
X137172857Y-107692380D01*
X137077619Y-107692380D01*
X136934761Y-107644761D01*
X136887142Y-107597142D01*
X136887142Y-107263809D01*
X137077619Y-107263809D01*
X136125238Y-107168571D02*
X135982380Y-107216190D01*
X135934761Y-107263809D01*
X135887142Y-107359047D01*
X135887142Y-107501904D01*
X135934761Y-107597142D01*
X135982380Y-107644761D01*
X136077619Y-107692380D01*
X136458571Y-107692380D01*
X136458571Y-106692380D01*
X136125238Y-106692380D01*
X136030000Y-106740000D01*
X135982380Y-106787619D01*
X135934761Y-106882857D01*
X135934761Y-106978095D01*
X135982380Y-107073333D01*
X136030000Y-107120952D01*
X136125238Y-107168571D01*
X136458571Y-107168571D01*
X134363333Y-107168571D02*
X134220476Y-107216190D01*
X134172857Y-107263809D01*
X134125238Y-107359047D01*
X134125238Y-107501904D01*
X134172857Y-107597142D01*
X134220476Y-107644761D01*
X134315714Y-107692380D01*
X134696666Y-107692380D01*
X134696666Y-106692380D01*
X134363333Y-106692380D01*
X134268095Y-106740000D01*
X134220476Y-106787619D01*
X134172857Y-106882857D01*
X134172857Y-106978095D01*
X134220476Y-107073333D01*
X134268095Y-107120952D01*
X134363333Y-107168571D01*
X134696666Y-107168571D01*
X133696666Y-107692380D02*
X133696666Y-107025714D01*
X133696666Y-107216190D02*
X133649047Y-107120952D01*
X133601428Y-107073333D01*
X133506190Y-107025714D01*
X133410952Y-107025714D01*
X132696666Y-107644761D02*
X132791904Y-107692380D01*
X132982380Y-107692380D01*
X133077619Y-107644761D01*
X133125238Y-107549523D01*
X133125238Y-107168571D01*
X133077619Y-107073333D01*
X132982380Y-107025714D01*
X132791904Y-107025714D01*
X132696666Y-107073333D01*
X132649047Y-107168571D01*
X132649047Y-107263809D01*
X133125238Y-107359047D01*
X131791904Y-107692380D02*
X131791904Y-107168571D01*
X131839523Y-107073333D01*
X131934761Y-107025714D01*
X132125238Y-107025714D01*
X132220476Y-107073333D01*
X131791904Y-107644761D02*
X131887142Y-107692380D01*
X132125238Y-107692380D01*
X132220476Y-107644761D01*
X132268095Y-107549523D01*
X132268095Y-107454285D01*
X132220476Y-107359047D01*
X132125238Y-107311428D01*
X131887142Y-107311428D01*
X131791904Y-107263809D01*
X131315714Y-107692380D02*
X131315714Y-106692380D01*
X131220476Y-107311428D02*
X130934761Y-107692380D01*
X130934761Y-107025714D02*
X131315714Y-107406666D01*
X130363333Y-107692380D02*
X130458571Y-107644761D01*
X130506190Y-107597142D01*
X130553809Y-107501904D01*
X130553809Y-107216190D01*
X130506190Y-107120952D01*
X130458571Y-107073333D01*
X130363333Y-107025714D01*
X130220476Y-107025714D01*
X130125238Y-107073333D01*
X130077619Y-107120952D01*
X130030000Y-107216190D01*
X130030000Y-107501904D01*
X130077619Y-107597142D01*
X130125238Y-107644761D01*
X130220476Y-107692380D01*
X130363333Y-107692380D01*
X129172857Y-107025714D02*
X129172857Y-107692380D01*
X129601428Y-107025714D02*
X129601428Y-107549523D01*
X129553809Y-107644761D01*
X129458571Y-107692380D01*
X129315714Y-107692380D01*
X129220476Y-107644761D01*
X129172857Y-107597142D01*
X128839523Y-107025714D02*
X128458571Y-107025714D01*
X128696666Y-106692380D02*
X128696666Y-107549523D01*
X128649047Y-107644761D01*
X128553809Y-107692380D01*
X128458571Y-107692380D01*
D11*
X168047142Y-68324285D02*
X168047142Y-69038571D01*
X168547142Y-67538571D02*
X168047142Y-68324285D01*
X167547142Y-67538571D01*
X166832857Y-69038571D02*
X166975714Y-68967142D01*
X167047142Y-68895714D01*
X167118571Y-68752857D01*
X167118571Y-68324285D01*
X167047142Y-68181428D01*
X166975714Y-68110000D01*
X166832857Y-68038571D01*
X166618571Y-68038571D01*
X166475714Y-68110000D01*
X166404285Y-68181428D01*
X166332857Y-68324285D01*
X166332857Y-68752857D01*
X166404285Y-68895714D01*
X166475714Y-68967142D01*
X166618571Y-69038571D01*
X166832857Y-69038571D01*
X165047142Y-68038571D02*
X165047142Y-69038571D01*
X165690000Y-68038571D02*
X165690000Y-68824285D01*
X165618571Y-68967142D01*
X165475714Y-69038571D01*
X165261428Y-69038571D01*
X165118571Y-68967142D01*
X165047142Y-68895714D01*
X163261428Y-68967142D02*
X163118571Y-69038571D01*
X162832857Y-69038571D01*
X162690000Y-68967142D01*
X162618571Y-68824285D01*
X162618571Y-68752857D01*
X162690000Y-68610000D01*
X162832857Y-68538571D01*
X163047142Y-68538571D01*
X163190000Y-68467142D01*
X163261428Y-68324285D01*
X163261428Y-68252857D01*
X163190000Y-68110000D01*
X163047142Y-68038571D01*
X162832857Y-68038571D01*
X162690000Y-68110000D01*
X161975714Y-69038571D02*
X161975714Y-67538571D01*
X161332857Y-69038571D02*
X161332857Y-68252857D01*
X161404285Y-68110000D01*
X161547142Y-68038571D01*
X161761428Y-68038571D01*
X161904285Y-68110000D01*
X161975714Y-68181428D01*
X160404285Y-69038571D02*
X160547142Y-68967142D01*
X160618571Y-68895714D01*
X160690000Y-68752857D01*
X160690000Y-68324285D01*
X160618571Y-68181428D01*
X160547142Y-68110000D01*
X160404285Y-68038571D01*
X160190000Y-68038571D01*
X160047142Y-68110000D01*
X159975714Y-68181428D01*
X159904285Y-68324285D01*
X159904285Y-68752857D01*
X159975714Y-68895714D01*
X160047142Y-68967142D01*
X160190000Y-69038571D01*
X160404285Y-69038571D01*
X158618571Y-68038571D02*
X158618571Y-69038571D01*
X159261428Y-68038571D02*
X159261428Y-68824285D01*
X159190000Y-68967142D01*
X159047142Y-69038571D01*
X158832857Y-69038571D01*
X158690000Y-68967142D01*
X158618571Y-68895714D01*
X157690000Y-69038571D02*
X157832857Y-68967142D01*
X157904285Y-68824285D01*
X157904285Y-67538571D01*
X156475714Y-69038571D02*
X156475714Y-67538571D01*
X156475714Y-68967142D02*
X156618571Y-69038571D01*
X156904285Y-69038571D01*
X157047142Y-68967142D01*
X157118571Y-68895714D01*
X157190000Y-68752857D01*
X157190000Y-68324285D01*
X157118571Y-68181428D01*
X157047142Y-68110000D01*
X156904285Y-68038571D01*
X156618571Y-68038571D01*
X156475714Y-68110000D01*
X154690000Y-68967142D02*
X154547142Y-69038571D01*
X154261428Y-69038571D01*
X154118571Y-68967142D01*
X154047142Y-68824285D01*
X154047142Y-68752857D01*
X154118571Y-68610000D01*
X154261428Y-68538571D01*
X154475714Y-68538571D01*
X154618571Y-68467142D01*
X154690000Y-68324285D01*
X154690000Y-68252857D01*
X154618571Y-68110000D01*
X154475714Y-68038571D01*
X154261428Y-68038571D01*
X154118571Y-68110000D01*
X152832857Y-68967142D02*
X152975714Y-69038571D01*
X153261428Y-69038571D01*
X153404285Y-68967142D01*
X153475714Y-68824285D01*
X153475714Y-68252857D01*
X153404285Y-68110000D01*
X153261428Y-68038571D01*
X152975714Y-68038571D01*
X152832857Y-68110000D01*
X152761428Y-68252857D01*
X152761428Y-68395714D01*
X153475714Y-68538571D01*
X151547142Y-68967142D02*
X151690000Y-69038571D01*
X151975714Y-69038571D01*
X152118571Y-68967142D01*
X152190000Y-68824285D01*
X152190000Y-68252857D01*
X152118571Y-68110000D01*
X151975714Y-68038571D01*
X151690000Y-68038571D01*
X151547142Y-68110000D01*
X151475714Y-68252857D01*
X151475714Y-68395714D01*
X152190000Y-68538571D01*
X149690000Y-68252857D02*
X149190000Y-68252857D01*
X148975714Y-69038571D02*
X149690000Y-69038571D01*
X149690000Y-67538571D01*
X148975714Y-67538571D01*
X147618571Y-69038571D02*
X148332857Y-69038571D01*
X148332857Y-67538571D01*
X147118571Y-68252857D02*
X146618571Y-68252857D01*
X146404285Y-69038571D02*
X147118571Y-69038571D01*
X147118571Y-67538571D01*
X146404285Y-67538571D01*
X144904285Y-68895714D02*
X144975714Y-68967142D01*
X145190000Y-69038571D01*
X145332857Y-69038571D01*
X145547142Y-68967142D01*
X145690000Y-68824285D01*
X145761428Y-68681428D01*
X145832857Y-68395714D01*
X145832857Y-68181428D01*
X145761428Y-67895714D01*
X145690000Y-67752857D01*
X145547142Y-67610000D01*
X145332857Y-67538571D01*
X145190000Y-67538571D01*
X144975714Y-67610000D01*
X144904285Y-67681428D01*
X144475714Y-67538571D02*
X143618571Y-67538571D01*
X144047142Y-69038571D02*
X144047142Y-67538571D01*
X142261428Y-69038571D02*
X142761428Y-68324285D01*
X143118571Y-69038571D02*
X143118571Y-67538571D01*
X142547142Y-67538571D01*
X142404285Y-67610000D01*
X142332857Y-67681428D01*
X142261428Y-67824285D01*
X142261428Y-68038571D01*
X142332857Y-68181428D01*
X142404285Y-68252857D01*
X142547142Y-68324285D01*
X143118571Y-68324285D01*
X141332857Y-67538571D02*
X141047142Y-67538571D01*
X140904285Y-67610000D01*
X140761428Y-67752857D01*
X140690000Y-68038571D01*
X140690000Y-68538571D01*
X140761428Y-68824285D01*
X140904285Y-68967142D01*
X141047142Y-69038571D01*
X141332857Y-69038571D01*
X141475714Y-68967142D01*
X141618571Y-68824285D01*
X141690000Y-68538571D01*
X141690000Y-68038571D01*
X141618571Y-67752857D01*
X141475714Y-67610000D01*
X141332857Y-67538571D01*
X140047142Y-69038571D02*
X140047142Y-67538571D01*
X139190000Y-69038571D01*
X139190000Y-67538571D01*
X138475714Y-69038571D02*
X138475714Y-67538571D01*
X136904285Y-68895714D02*
X136975714Y-68967142D01*
X137190000Y-69038571D01*
X137332857Y-69038571D01*
X137547142Y-68967142D01*
X137690000Y-68824285D01*
X137761428Y-68681428D01*
X137832857Y-68395714D01*
X137832857Y-68181428D01*
X137761428Y-67895714D01*
X137690000Y-67752857D01*
X137547142Y-67610000D01*
X137332857Y-67538571D01*
X137190000Y-67538571D01*
X136975714Y-67610000D01*
X136904285Y-67681428D01*
X136332857Y-68967142D02*
X136118571Y-69038571D01*
X135761428Y-69038571D01*
X135618571Y-68967142D01*
X135547142Y-68895714D01*
X135475714Y-68752857D01*
X135475714Y-68610000D01*
X135547142Y-68467142D01*
X135618571Y-68395714D01*
X135761428Y-68324285D01*
X136047142Y-68252857D01*
X136190000Y-68181428D01*
X136261428Y-68110000D01*
X136332857Y-67967142D01*
X136332857Y-67824285D01*
X136261428Y-67681428D01*
X136190000Y-67610000D01*
X136047142Y-67538571D01*
X135690000Y-67538571D01*
X135475714Y-67610000D01*
D10*
X94793750Y-61912500D02*
X94793750Y-59912500D01*
X89193750Y-59912500D02*
X94793750Y-59912500D01*
X89193750Y-61912500D02*
X89193750Y-59912500D01*
X88943750Y-74012500D02*
X95043750Y-74012500D01*
X95043750Y-61912500D02*
X95043750Y-74012500D01*
X88943750Y-61912500D02*
X95043750Y-61912500D01*
X88943750Y-61912500D02*
X88943750Y-74012500D01*
D12*
X132715000Y-56197500D02*
X132715000Y-86677500D01*
X132715000Y-86677500D02*
X114935000Y-86677500D01*
X114935000Y-86677500D02*
X114935000Y-56197500D01*
X130175000Y-56197500D02*
X130175000Y-58737500D01*
X130175000Y-58737500D02*
X132715000Y-58737500D01*
D10*
G36*
X118893432Y-62076860D02*
G01*
X118893432Y-62376860D01*
X118993432Y-62376860D01*
X118993432Y-62076860D01*
X118893432Y-62076860D01*
G37*
X118893432Y-62076860D02*
X118893432Y-62376860D01*
X118993432Y-62376860D01*
X118993432Y-62076860D01*
X118893432Y-62076860D01*
G36*
X119093432Y-62476860D02*
G01*
X119093432Y-62576860D01*
X119193432Y-62576860D01*
X119193432Y-62476860D01*
X119093432Y-62476860D01*
G37*
X119093432Y-62476860D02*
X119093432Y-62576860D01*
X119193432Y-62576860D01*
X119193432Y-62476860D01*
X119093432Y-62476860D01*
G36*
X118893432Y-62076860D02*
G01*
X118893432Y-62176860D01*
X119393432Y-62176860D01*
X119393432Y-62076860D01*
X118893432Y-62076860D01*
G37*
X118893432Y-62076860D02*
X118893432Y-62176860D01*
X119393432Y-62176860D01*
X119393432Y-62076860D01*
X118893432Y-62076860D01*
G36*
X119293432Y-62076860D02*
G01*
X119293432Y-62876860D01*
X119393432Y-62876860D01*
X119393432Y-62076860D01*
X119293432Y-62076860D01*
G37*
X119293432Y-62076860D02*
X119293432Y-62876860D01*
X119393432Y-62876860D01*
X119393432Y-62076860D01*
X119293432Y-62076860D01*
G36*
X118893432Y-62676860D02*
G01*
X118893432Y-62876860D01*
X118993432Y-62876860D01*
X118993432Y-62676860D01*
X118893432Y-62676860D01*
G37*
X118893432Y-62676860D02*
X118893432Y-62876860D01*
X118993432Y-62876860D01*
X118993432Y-62676860D01*
X118893432Y-62676860D01*
D12*
X114935000Y-56197500D02*
X114935000Y-53657500D01*
X114935000Y-53657500D02*
X132715000Y-53657500D01*
X132715000Y-53657500D02*
X132715000Y-56197500D01*
X130175000Y-56197500D02*
X132715000Y-56197500D01*
D10*
X94146130Y-64043452D02*
X93146130Y-64043452D01*
X93146130Y-64424404D01*
X93193750Y-64519642D01*
X93241369Y-64567261D01*
X93336607Y-64614880D01*
X93479464Y-64614880D01*
X93574702Y-64567261D01*
X93622321Y-64519642D01*
X93669940Y-64424404D01*
X93669940Y-64043452D01*
X93146130Y-65329166D02*
X93860416Y-65329166D01*
X94003273Y-65281547D01*
X94098511Y-65186309D01*
X94146130Y-65043452D01*
X94146130Y-64948214D01*
X93765178Y-65805357D02*
X93765178Y-66567261D01*
X93146130Y-66948214D02*
X93146130Y-67567261D01*
X93527083Y-67233928D01*
X93527083Y-67376785D01*
X93574702Y-67472023D01*
X93622321Y-67519642D01*
X93717559Y-67567261D01*
X93955654Y-67567261D01*
X94050892Y-67519642D01*
X94098511Y-67472023D01*
X94146130Y-67376785D01*
X94146130Y-67091071D01*
X94098511Y-66995833D01*
X94050892Y-66948214D01*
X93241369Y-67948214D02*
X93193750Y-67995833D01*
X93146130Y-68091071D01*
X93146130Y-68329166D01*
X93193750Y-68424404D01*
X93241369Y-68472023D01*
X93336607Y-68519642D01*
X93431845Y-68519642D01*
X93574702Y-68472023D01*
X94146130Y-67900595D01*
X94146130Y-68519642D01*
X93146130Y-69138690D02*
X93146130Y-69233928D01*
X93193750Y-69329166D01*
X93241369Y-69376785D01*
X93336607Y-69424404D01*
X93527083Y-69472023D01*
X93765178Y-69472023D01*
X93955654Y-69424404D01*
X94050892Y-69376785D01*
X94098511Y-69329166D01*
X94146130Y-69233928D01*
X94146130Y-69138690D01*
X94098511Y-69043452D01*
X94050892Y-68995833D01*
X93955654Y-68948214D01*
X93765178Y-68900595D01*
X93527083Y-68900595D01*
X93336607Y-68948214D01*
X93241369Y-68995833D01*
X93193750Y-69043452D01*
X93146130Y-69138690D01*
X93860416Y-69852976D02*
X93860416Y-70329166D01*
X94146130Y-69757738D02*
X93146130Y-70091071D01*
X94146130Y-70424404D01*
X118687809Y-82810357D02*
X118573523Y-82848452D01*
X118535428Y-82886547D01*
X118497333Y-82962738D01*
X118497333Y-83077023D01*
X118535428Y-83153214D01*
X118573523Y-83191309D01*
X118649714Y-83229404D01*
X118954476Y-83229404D01*
X118954476Y-82429404D01*
X118687809Y-82429404D01*
X118611619Y-82467500D01*
X118573523Y-82505595D01*
X118535428Y-82581785D01*
X118535428Y-82657976D01*
X118573523Y-82734166D01*
X118611619Y-82772261D01*
X118687809Y-82810357D01*
X118954476Y-82810357D01*
X118192571Y-82505595D02*
X118154476Y-82467500D01*
X118078285Y-82429404D01*
X117887809Y-82429404D01*
X117811619Y-82467500D01*
X117773523Y-82505595D01*
X117735428Y-82581785D01*
X117735428Y-82657976D01*
X117773523Y-82772261D01*
X118230666Y-83229404D01*
X117735428Y-83229404D01*
X118630666Y-75190357D02*
X118897333Y-75190357D01*
X118897333Y-75609404D02*
X118897333Y-74809404D01*
X118516380Y-74809404D01*
X118287809Y-74809404D02*
X117754476Y-74809404D01*
X118097333Y-75609404D01*
X118630666Y-72650357D02*
X118897333Y-72650357D01*
X118897333Y-73069404D02*
X118897333Y-72269404D01*
X118516380Y-72269404D01*
X117868761Y-72269404D02*
X118021142Y-72269404D01*
X118097333Y-72307500D01*
X118135428Y-72345595D01*
X118211619Y-72459880D01*
X118249714Y-72612261D01*
X118249714Y-72917023D01*
X118211619Y-72993214D01*
X118173523Y-73031309D01*
X118097333Y-73069404D01*
X117944952Y-73069404D01*
X117868761Y-73031309D01*
X117830666Y-72993214D01*
X117792571Y-72917023D01*
X117792571Y-72726547D01*
X117830666Y-72650357D01*
X117868761Y-72612261D01*
X117944952Y-72574166D01*
X118097333Y-72574166D01*
X118173523Y-72612261D01*
X118211619Y-72650357D01*
X118249714Y-72726547D01*
X118630666Y-70110357D02*
X118897333Y-70110357D01*
X118897333Y-70529404D02*
X118897333Y-69729404D01*
X118516380Y-69729404D01*
X117830666Y-69729404D02*
X118211619Y-69729404D01*
X118249714Y-70110357D01*
X118211619Y-70072261D01*
X118135428Y-70034166D01*
X117944952Y-70034166D01*
X117868761Y-70072261D01*
X117830666Y-70110357D01*
X117792571Y-70186547D01*
X117792571Y-70377023D01*
X117830666Y-70453214D01*
X117868761Y-70491309D01*
X117944952Y-70529404D01*
X118135428Y-70529404D01*
X118211619Y-70491309D01*
X118249714Y-70453214D01*
X118916380Y-57829404D02*
X119183047Y-57448452D01*
X119373523Y-57829404D02*
X119373523Y-57029404D01*
X119068761Y-57029404D01*
X118992571Y-57067500D01*
X118954476Y-57105595D01*
X118916380Y-57181785D01*
X118916380Y-57296071D01*
X118954476Y-57372261D01*
X118992571Y-57410357D01*
X119068761Y-57448452D01*
X119373523Y-57448452D01*
X118611619Y-57600833D02*
X118230666Y-57600833D01*
X118687809Y-57829404D02*
X118421142Y-57029404D01*
X118154476Y-57829404D01*
X117964000Y-57029404D02*
X117773523Y-57829404D01*
X117621142Y-57257976D01*
X117468761Y-57829404D01*
X117278285Y-57029404D01*
X118973523Y-59607500D02*
X119049714Y-59569404D01*
X119164000Y-59569404D01*
X119278285Y-59607500D01*
X119354476Y-59683690D01*
X119392571Y-59759880D01*
X119430666Y-59912261D01*
X119430666Y-60026547D01*
X119392571Y-60178928D01*
X119354476Y-60255119D01*
X119278285Y-60331309D01*
X119164000Y-60369404D01*
X119087809Y-60369404D01*
X118973523Y-60331309D01*
X118935428Y-60293214D01*
X118935428Y-60026547D01*
X119087809Y-60026547D01*
X118592571Y-60369404D02*
X118592571Y-59569404D01*
X118135428Y-60369404D01*
X118135428Y-59569404D01*
X117754476Y-60369404D02*
X117754476Y-59569404D01*
X117564000Y-59569404D01*
X117449714Y-59607500D01*
X117373523Y-59683690D01*
X117335428Y-59759880D01*
X117297333Y-59912261D01*
X117297333Y-60026547D01*
X117335428Y-60178928D01*
X117373523Y-60255119D01*
X117449714Y-60331309D01*
X117564000Y-60369404D01*
X117754476Y-60369404D01*
X118625213Y-62841309D02*
X118510927Y-62879404D01*
X118320451Y-62879404D01*
X118244260Y-62841309D01*
X118206165Y-62803214D01*
X118168070Y-62727023D01*
X118168070Y-62650833D01*
X118206165Y-62574642D01*
X118244260Y-62536547D01*
X118320451Y-62498452D01*
X118472832Y-62460357D01*
X118549022Y-62422261D01*
X118587118Y-62384166D01*
X118625213Y-62307976D01*
X118625213Y-62231785D01*
X118587118Y-62155595D01*
X118549022Y-62117500D01*
X118472832Y-62079404D01*
X118282356Y-62079404D01*
X118168070Y-62117500D01*
X117939499Y-62079404D02*
X117482356Y-62079404D01*
X117710927Y-62879404D02*
X117710927Y-62079404D01*
X119430666Y-64649404D02*
X119164000Y-65449404D01*
X118897333Y-64649404D01*
X118173523Y-65373214D02*
X118211619Y-65411309D01*
X118325904Y-65449404D01*
X118402095Y-65449404D01*
X118516380Y-65411309D01*
X118592571Y-65335119D01*
X118630666Y-65258928D01*
X118668761Y-65106547D01*
X118668761Y-64992261D01*
X118630666Y-64839880D01*
X118592571Y-64763690D01*
X118516380Y-64687500D01*
X118402095Y-64649404D01*
X118325904Y-64649404D01*
X118211619Y-64687500D01*
X118173523Y-64725595D01*
X117373523Y-65373214D02*
X117411619Y-65411309D01*
X117525904Y-65449404D01*
X117602095Y-65449404D01*
X117716380Y-65411309D01*
X117792571Y-65335119D01*
X117830666Y-65258928D01*
X117868761Y-65106547D01*
X117868761Y-64992261D01*
X117830666Y-64839880D01*
X117792571Y-64763690D01*
X117716380Y-64687500D01*
X117602095Y-64649404D01*
X117525904Y-64649404D01*
X117411619Y-64687500D01*
X117373523Y-64725595D01*
X118630666Y-67570357D02*
X118897333Y-67570357D01*
X118897333Y-67989404D02*
X118897333Y-67189404D01*
X118516380Y-67189404D01*
X117868761Y-67456071D02*
X117868761Y-67989404D01*
X118059238Y-67151309D02*
X118249714Y-67722738D01*
X117754476Y-67722738D01*
X118687809Y-77730357D02*
X118573523Y-77768452D01*
X118535428Y-77806547D01*
X118497333Y-77882738D01*
X118497333Y-77997023D01*
X118535428Y-78073214D01*
X118573523Y-78111309D01*
X118649714Y-78149404D01*
X118954476Y-78149404D01*
X118954476Y-77349404D01*
X118687809Y-77349404D01*
X118611619Y-77387500D01*
X118573523Y-77425595D01*
X118535428Y-77501785D01*
X118535428Y-77577976D01*
X118573523Y-77654166D01*
X118611619Y-77692261D01*
X118687809Y-77730357D01*
X118954476Y-77730357D01*
X117735428Y-78149404D02*
X118192571Y-78149404D01*
X117964000Y-78149404D02*
X117964000Y-77349404D01*
X118040190Y-77463690D01*
X118116380Y-77539880D01*
X118192571Y-77577976D01*
X118687809Y-80270357D02*
X118573523Y-80308452D01*
X118535428Y-80346547D01*
X118497333Y-80422738D01*
X118497333Y-80537023D01*
X118535428Y-80613214D01*
X118573523Y-80651309D01*
X118649714Y-80689404D01*
X118954476Y-80689404D01*
X118954476Y-79889404D01*
X118687809Y-79889404D01*
X118611619Y-79927500D01*
X118573523Y-79965595D01*
X118535428Y-80041785D01*
X118535428Y-80117976D01*
X118573523Y-80194166D01*
X118611619Y-80232261D01*
X118687809Y-80270357D01*
X118954476Y-80270357D01*
X118230666Y-79889404D02*
X117735428Y-79889404D01*
X118002095Y-80194166D01*
X117887809Y-80194166D01*
X117811619Y-80232261D01*
X117773523Y-80270357D01*
X117735428Y-80346547D01*
X117735428Y-80537023D01*
X117773523Y-80613214D01*
X117811619Y-80651309D01*
X117887809Y-80689404D01*
X118116380Y-80689404D01*
X118192571Y-80651309D01*
X118230666Y-80613214D01*
X118687809Y-85350357D02*
X118573523Y-85388452D01*
X118535428Y-85426547D01*
X118497333Y-85502738D01*
X118497333Y-85617023D01*
X118535428Y-85693214D01*
X118573523Y-85731309D01*
X118649714Y-85769404D01*
X118954476Y-85769404D01*
X118954476Y-84969404D01*
X118687809Y-84969404D01*
X118611619Y-85007500D01*
X118573523Y-85045595D01*
X118535428Y-85121785D01*
X118535428Y-85197976D01*
X118573523Y-85274166D01*
X118611619Y-85312261D01*
X118687809Y-85350357D01*
X118954476Y-85350357D01*
X117811619Y-84969404D02*
X117964000Y-84969404D01*
X118040190Y-85007500D01*
X118078285Y-85045595D01*
X118154476Y-85159880D01*
X118192571Y-85312261D01*
X118192571Y-85617023D01*
X118154476Y-85693214D01*
X118116380Y-85731309D01*
X118040190Y-85769404D01*
X117887809Y-85769404D01*
X117811619Y-85731309D01*
X117773523Y-85693214D01*
X117735428Y-85617023D01*
X117735428Y-85426547D01*
X117773523Y-85350357D01*
X117811619Y-85312261D01*
X117887809Y-85274166D01*
X118040190Y-85274166D01*
X118116380Y-85312261D01*
X118154476Y-85350357D01*
X118192571Y-85426547D01*
X129609809Y-85350357D02*
X129495523Y-85388452D01*
X129457428Y-85426547D01*
X129419333Y-85502738D01*
X129419333Y-85617023D01*
X129457428Y-85693214D01*
X129495523Y-85731309D01*
X129571714Y-85769404D01*
X129876476Y-85769404D01*
X129876476Y-84969404D01*
X129609809Y-84969404D01*
X129533619Y-85007500D01*
X129495523Y-85045595D01*
X129457428Y-85121785D01*
X129457428Y-85197976D01*
X129495523Y-85274166D01*
X129533619Y-85312261D01*
X129609809Y-85350357D01*
X129876476Y-85350357D01*
X128695523Y-84969404D02*
X129076476Y-84969404D01*
X129114571Y-85350357D01*
X129076476Y-85312261D01*
X129000285Y-85274166D01*
X128809809Y-85274166D01*
X128733619Y-85312261D01*
X128695523Y-85350357D01*
X128657428Y-85426547D01*
X128657428Y-85617023D01*
X128695523Y-85693214D01*
X128733619Y-85731309D01*
X128809809Y-85769404D01*
X129000285Y-85769404D01*
X129076476Y-85731309D01*
X129114571Y-85693214D01*
X129609809Y-82810357D02*
X129495523Y-82848452D01*
X129457428Y-82886547D01*
X129419333Y-82962738D01*
X129419333Y-83077023D01*
X129457428Y-83153214D01*
X129495523Y-83191309D01*
X129571714Y-83229404D01*
X129876476Y-83229404D01*
X129876476Y-82429404D01*
X129609809Y-82429404D01*
X129533619Y-82467500D01*
X129495523Y-82505595D01*
X129457428Y-82581785D01*
X129457428Y-82657976D01*
X129495523Y-82734166D01*
X129533619Y-82772261D01*
X129609809Y-82810357D01*
X129876476Y-82810357D01*
X128733619Y-82696071D02*
X128733619Y-83229404D01*
X128924095Y-82391309D02*
X129114571Y-82962738D01*
X128619333Y-82962738D01*
X129838380Y-80270357D02*
X129571714Y-80270357D01*
X129457428Y-80689404D02*
X129838380Y-80689404D01*
X129838380Y-79889404D01*
X129457428Y-79889404D01*
X128771714Y-79889404D02*
X128924095Y-79889404D01*
X129000285Y-79927500D01*
X129038380Y-79965595D01*
X129114571Y-80079880D01*
X129152666Y-80232261D01*
X129152666Y-80537023D01*
X129114571Y-80613214D01*
X129076476Y-80651309D01*
X129000285Y-80689404D01*
X128847904Y-80689404D01*
X128771714Y-80651309D01*
X128733619Y-80613214D01*
X128695523Y-80537023D01*
X128695523Y-80346547D01*
X128733619Y-80270357D01*
X128771714Y-80232261D01*
X128847904Y-80194166D01*
X129000285Y-80194166D01*
X129076476Y-80232261D01*
X129114571Y-80270357D01*
X129152666Y-80346547D01*
X129876476Y-78149404D02*
X129876476Y-77349404D01*
X129686000Y-77349404D01*
X129571714Y-77387500D01*
X129495523Y-77463690D01*
X129457428Y-77539880D01*
X129419333Y-77692261D01*
X129419333Y-77806547D01*
X129457428Y-77958928D01*
X129495523Y-78035119D01*
X129571714Y-78111309D01*
X129686000Y-78149404D01*
X129876476Y-78149404D01*
X129152666Y-77349404D02*
X128619333Y-77349404D01*
X128962190Y-78149404D01*
X129419333Y-75533214D02*
X129457428Y-75571309D01*
X129571714Y-75609404D01*
X129647904Y-75609404D01*
X129762190Y-75571309D01*
X129838380Y-75495119D01*
X129876476Y-75418928D01*
X129914571Y-75266547D01*
X129914571Y-75152261D01*
X129876476Y-74999880D01*
X129838380Y-74923690D01*
X129762190Y-74847500D01*
X129647904Y-74809404D01*
X129571714Y-74809404D01*
X129457428Y-74847500D01*
X129419333Y-74885595D01*
X128733619Y-74809404D02*
X128886000Y-74809404D01*
X128962190Y-74847500D01*
X129000285Y-74885595D01*
X129076476Y-74999880D01*
X129114571Y-75152261D01*
X129114571Y-75457023D01*
X129076476Y-75533214D01*
X129038380Y-75571309D01*
X128962190Y-75609404D01*
X128809809Y-75609404D01*
X128733619Y-75571309D01*
X128695523Y-75533214D01*
X128657428Y-75457023D01*
X128657428Y-75266547D01*
X128695523Y-75190357D01*
X128733619Y-75152261D01*
X128809809Y-75114166D01*
X128962190Y-75114166D01*
X129038380Y-75152261D01*
X129076476Y-75190357D01*
X129114571Y-75266547D01*
X129876476Y-73069404D02*
X129876476Y-72269404D01*
X129686000Y-72269404D01*
X129571714Y-72307500D01*
X129495523Y-72383690D01*
X129457428Y-72459880D01*
X129419333Y-72612261D01*
X129419333Y-72726547D01*
X129457428Y-72878928D01*
X129495523Y-72955119D01*
X129571714Y-73031309D01*
X129686000Y-73069404D01*
X129876476Y-73069404D01*
X128733619Y-72536071D02*
X128733619Y-73069404D01*
X128924095Y-72231309D02*
X129114571Y-72802738D01*
X128619333Y-72802738D01*
X129895523Y-62147500D02*
X129971714Y-62109404D01*
X130086000Y-62109404D01*
X130200285Y-62147500D01*
X130276476Y-62223690D01*
X130314571Y-62299880D01*
X130352666Y-62452261D01*
X130352666Y-62566547D01*
X130314571Y-62718928D01*
X130276476Y-62795119D01*
X130200285Y-62871309D01*
X130086000Y-62909404D01*
X130009809Y-62909404D01*
X129895523Y-62871309D01*
X129857428Y-62833214D01*
X129857428Y-62566547D01*
X130009809Y-62566547D01*
X129514571Y-62909404D02*
X129514571Y-62109404D01*
X129057428Y-62909404D01*
X129057428Y-62109404D01*
X128676476Y-62909404D02*
X128676476Y-62109404D01*
X128486000Y-62109404D01*
X128371714Y-62147500D01*
X128295523Y-62223690D01*
X128257428Y-62299880D01*
X128219333Y-62452261D01*
X128219333Y-62566547D01*
X128257428Y-62718928D01*
X128295523Y-62795119D01*
X128371714Y-62871309D01*
X128486000Y-62909404D01*
X128676476Y-62909404D01*
X129895523Y-64687500D02*
X129971714Y-64649404D01*
X130086000Y-64649404D01*
X130200285Y-64687500D01*
X130276476Y-64763690D01*
X130314571Y-64839880D01*
X130352666Y-64992261D01*
X130352666Y-65106547D01*
X130314571Y-65258928D01*
X130276476Y-65335119D01*
X130200285Y-65411309D01*
X130086000Y-65449404D01*
X130009809Y-65449404D01*
X129895523Y-65411309D01*
X129857428Y-65373214D01*
X129857428Y-65106547D01*
X130009809Y-65106547D01*
X129514571Y-65449404D02*
X129514571Y-64649404D01*
X129057428Y-65449404D01*
X129057428Y-64649404D01*
X128676476Y-65449404D02*
X128676476Y-64649404D01*
X128486000Y-64649404D01*
X128371714Y-64687500D01*
X128295523Y-64763690D01*
X128257428Y-64839880D01*
X128219333Y-64992261D01*
X128219333Y-65106547D01*
X128257428Y-65258928D01*
X128295523Y-65335119D01*
X128371714Y-65411309D01*
X128486000Y-65449404D01*
X128676476Y-65449404D01*
X129876476Y-67989404D02*
X129876476Y-67189404D01*
X129686000Y-67189404D01*
X129571714Y-67227500D01*
X129495523Y-67303690D01*
X129457428Y-67379880D01*
X129419333Y-67532261D01*
X129419333Y-67646547D01*
X129457428Y-67798928D01*
X129495523Y-67875119D01*
X129571714Y-67951309D01*
X129686000Y-67989404D01*
X129876476Y-67989404D01*
X128657428Y-67989404D02*
X129114571Y-67989404D01*
X128886000Y-67989404D02*
X128886000Y-67189404D01*
X128962190Y-67303690D01*
X129038380Y-67379880D01*
X129114571Y-67417976D01*
X129876476Y-70529404D02*
X129876476Y-69729404D01*
X129686000Y-69729404D01*
X129571714Y-69767500D01*
X129495523Y-69843690D01*
X129457428Y-69919880D01*
X129419333Y-70072261D01*
X129419333Y-70186547D01*
X129457428Y-70338928D01*
X129495523Y-70415119D01*
X129571714Y-70491309D01*
X129686000Y-70529404D01*
X129876476Y-70529404D01*
X128924095Y-69729404D02*
X128847904Y-69729404D01*
X128771714Y-69767500D01*
X128733619Y-69805595D01*
X128695523Y-69881785D01*
X128657428Y-70034166D01*
X128657428Y-70224642D01*
X128695523Y-70377023D01*
X128733619Y-70453214D01*
X128771714Y-70491309D01*
X128847904Y-70529404D01*
X128924095Y-70529404D01*
X129000285Y-70491309D01*
X129038380Y-70453214D01*
X129076476Y-70377023D01*
X129114571Y-70224642D01*
X129114571Y-70034166D01*
X129076476Y-69881785D01*
X129038380Y-69805595D01*
X129000285Y-69767500D01*
X128924095Y-69729404D01*
X129876476Y-60369404D02*
X129876476Y-59569404D01*
X129686000Y-59569404D01*
X129571714Y-59607500D01*
X129495523Y-59683690D01*
X129457428Y-59759880D01*
X129419333Y-59912261D01*
X129419333Y-60026547D01*
X129457428Y-60178928D01*
X129495523Y-60255119D01*
X129571714Y-60331309D01*
X129686000Y-60369404D01*
X129876476Y-60369404D01*
X129114571Y-59645595D02*
X129076476Y-59607500D01*
X129000285Y-59569404D01*
X128809809Y-59569404D01*
X128733619Y-59607500D01*
X128695523Y-59645595D01*
X128657428Y-59721785D01*
X128657428Y-59797976D01*
X128695523Y-59912261D01*
X129152666Y-60369404D01*
X128657428Y-60369404D01*
X129587348Y-57029404D02*
X129130205Y-57029404D01*
X129358776Y-57829404D02*
X129358776Y-57029404D01*
X128939729Y-57029404D02*
X128406395Y-57829404D01*
X128406395Y-57029404D02*
X128939729Y-57829404D01*
X127949252Y-57029404D02*
X127873062Y-57029404D01*
X127796872Y-57067500D01*
X127758776Y-57105595D01*
X127720681Y-57181785D01*
X127682586Y-57334166D01*
X127682586Y-57524642D01*
X127720681Y-57677023D01*
X127758776Y-57753214D01*
X127796872Y-57791309D01*
X127873062Y-57829404D01*
X127949252Y-57829404D01*
X128025443Y-57791309D01*
X128063538Y-57753214D01*
X128101633Y-57677023D01*
X128139729Y-57524642D01*
X128139729Y-57334166D01*
X128101633Y-57181785D01*
X128063538Y-57105595D01*
X128025443Y-57067500D01*
X127949252Y-57029404D01*
X126768300Y-56991309D02*
X127454014Y-58019880D01*
X126501633Y-57829404D02*
X126501633Y-57029404D01*
X126311157Y-57029404D01*
X126196872Y-57067500D01*
X126120681Y-57143690D01*
X126082586Y-57219880D01*
X126044491Y-57372261D01*
X126044491Y-57486547D01*
X126082586Y-57638928D01*
X126120681Y-57715119D01*
X126196872Y-57791309D01*
X126311157Y-57829404D01*
X126501633Y-57829404D01*
X125777824Y-57029404D02*
X125282586Y-57029404D01*
X125549252Y-57334166D01*
X125434967Y-57334166D01*
X125358776Y-57372261D01*
X125320681Y-57410357D01*
X125282586Y-57486547D01*
X125282586Y-57677023D01*
X125320681Y-57753214D01*
X125358776Y-57791309D01*
X125434967Y-57829404D01*
X125663538Y-57829404D01*
X125739729Y-57791309D01*
X125777824Y-57753214D01*
%LPC*%
D13*
X133350000Y-104775000D03*
D14*
X91993750Y-70512500D03*
X91993750Y-63512500D03*
D15*
X94293750Y-73212500D03*
X85093750Y-73212500D03*
X89693750Y-72112500D03*
X89693750Y-65112500D03*
D14*
X87393750Y-70512500D03*
X87393750Y-63512500D03*
D15*
X89693750Y-68112500D03*
D16*
X146775000Y-84931250D03*
D17*
X138975000Y-84931250D03*
D18*
X144275000Y-84931250D03*
X141475000Y-84931250D03*
X141475000Y-103981250D03*
X144275000Y-103981250D03*
D17*
X138975000Y-103981250D03*
D16*
X146775000Y-103981250D03*
X146775000Y-123031250D03*
D17*
X138975000Y-123031250D03*
D18*
X144275000Y-123031250D03*
X141475000Y-123031250D03*
X141475000Y-142081250D03*
X144275000Y-142081250D03*
D17*
X138975000Y-142081250D03*
D16*
X146775000Y-142081250D03*
X165825000Y-84931250D03*
D17*
X158025000Y-84931250D03*
D18*
X163325000Y-84931250D03*
X160525000Y-84931250D03*
X160525000Y-103981250D03*
X163325000Y-103981250D03*
D17*
X158025000Y-103981250D03*
D16*
X165825000Y-103981250D03*
X165825000Y-123031250D03*
D17*
X158025000Y-123031250D03*
D18*
X163325000Y-123031250D03*
X160525000Y-123031250D03*
X160525000Y-142081250D03*
X163325000Y-142081250D03*
D17*
X158025000Y-142081250D03*
D16*
X165825000Y-142081250D03*
X165825000Y-161131250D03*
D17*
X158025000Y-161131250D03*
D18*
X163325000Y-161131250D03*
X160525000Y-161131250D03*
X179575000Y-84931250D03*
X182375000Y-84931250D03*
D17*
X177075000Y-84931250D03*
D16*
X184875000Y-84931250D03*
X184875000Y-103981250D03*
D17*
X177075000Y-103981250D03*
D18*
X182375000Y-103981250D03*
X179575000Y-103981250D03*
X179575000Y-123031250D03*
X182375000Y-123031250D03*
D17*
X177075000Y-123031250D03*
D16*
X184875000Y-123031250D03*
D17*
X193243750Y-167683749D03*
D19*
G36*
X191877725Y-167317724D02*
G01*
X193609775Y-166317724D01*
X194609775Y-168049774D01*
X192877725Y-169049774D01*
X191877725Y-167317724D01*
X191877725Y-167317724D01*
G37*
D17*
X189343750Y-160928751D03*
D20*
X191993750Y-165518686D03*
D19*
G36*
X190800930Y-165052661D02*
G01*
X192186570Y-164252661D01*
X193186570Y-165984711D01*
X191800930Y-166784711D01*
X190800930Y-165052661D01*
X190800930Y-165052661D01*
G37*
D20*
X190593750Y-163093814D03*
D19*
G36*
X189400930Y-162627789D02*
G01*
X190786570Y-161827789D01*
X191786570Y-163559839D01*
X190400930Y-164359839D01*
X189400930Y-162627789D01*
X189400930Y-162627789D01*
G37*
D18*
X65275000Y-113506250D03*
X68075000Y-113506250D03*
D17*
X62775000Y-113506250D03*
D16*
X70575000Y-113506250D03*
X127725000Y-113506250D03*
D17*
X119925000Y-113506250D03*
D18*
X125225000Y-113506250D03*
X122425000Y-113506250D03*
X122425000Y-132556250D03*
X125225000Y-132556250D03*
D17*
X119925000Y-132556250D03*
D16*
X127725000Y-132556250D03*
D17*
X181351466Y-151188966D03*
D19*
G36*
X179937252Y-151188966D02*
G01*
X181351466Y-149774752D01*
X182765680Y-151188966D01*
X181351466Y-152603180D01*
X179937252Y-151188966D01*
X179937252Y-151188966D01*
G37*
D17*
X175836034Y-145673534D03*
D20*
X179583699Y-149421199D03*
D19*
G36*
X178310907Y-149279778D02*
G01*
X179442278Y-148148407D01*
X180856491Y-149562620D01*
X179725120Y-150693991D01*
X178310907Y-149279778D01*
X178310907Y-149279778D01*
G37*
D20*
X177603801Y-147441301D03*
D19*
G36*
X176331009Y-147299880D02*
G01*
X177462380Y-146168509D01*
X178876593Y-147582722D01*
X177745222Y-148714093D01*
X176331009Y-147299880D01*
X176331009Y-147299880D01*
G37*
D18*
X65275000Y-94456250D03*
X68075000Y-94456250D03*
D17*
X62775000Y-94456250D03*
D16*
X70575000Y-94456250D03*
X70575000Y-132556250D03*
D17*
X62775000Y-132556250D03*
D18*
X68075000Y-132556250D03*
X65275000Y-132556250D03*
X65275000Y-151606250D03*
X68075000Y-151606250D03*
D17*
X62775000Y-151606250D03*
D16*
X70575000Y-151606250D03*
X89625000Y-94456250D03*
D17*
X81825000Y-94456250D03*
D18*
X87125000Y-94456250D03*
X84325000Y-94456250D03*
X84325000Y-113506250D03*
X87125000Y-113506250D03*
D17*
X81825000Y-113506250D03*
D16*
X89625000Y-113506250D03*
X89625000Y-132556250D03*
D17*
X81825000Y-132556250D03*
D18*
X87125000Y-132556250D03*
X84325000Y-132556250D03*
X84325000Y-151606250D03*
X87125000Y-151606250D03*
D17*
X81825000Y-151606250D03*
D16*
X89625000Y-151606250D03*
D18*
X103375000Y-80168750D03*
X106175000Y-80168750D03*
D17*
X100875000Y-80168750D03*
D16*
X108675000Y-80168750D03*
X108675000Y-99218750D03*
D17*
X100875000Y-99218750D03*
D18*
X106175000Y-99218750D03*
X103375000Y-99218750D03*
X103375000Y-118268750D03*
X106175000Y-118268750D03*
D17*
X100875000Y-118268750D03*
D16*
X108675000Y-118268750D03*
X108675000Y-137318750D03*
D17*
X100875000Y-137318750D03*
D18*
X106175000Y-137318750D03*
X103375000Y-137318750D03*
D16*
X127725000Y-74612500D03*
D17*
X119925000Y-74612500D03*
D18*
X125225000Y-74612500D03*
X122425000Y-74612500D03*
X122425000Y-94456250D03*
X125225000Y-94456250D03*
D17*
X119925000Y-94456250D03*
D16*
X127725000Y-94456250D03*
D21*
X69175000Y-100275000D03*
X69215000Y-99695000D03*
X64175000Y-100775000D03*
X62865000Y-102235000D03*
D22*
X69830000Y-101505000D03*
D23*
X70484995Y-102235004D02*
X69175005Y-100774996D01*
D22*
X63520000Y-101505000D03*
D23*
X62865005Y-102235004D02*
X64174995Y-100774996D01*
D21*
X69175000Y-100775000D03*
X70485000Y-102235000D03*
D22*
X64155000Y-99985000D03*
D23*
X64135001Y-99695000D02*
X64174999Y-100275000D01*
D21*
X64175000Y-100275000D03*
X64135000Y-99695000D03*
D22*
X69195000Y-99985000D03*
D23*
X69214999Y-99695000D02*
X69175001Y-100275000D01*
D21*
X69175000Y-81225000D03*
X69215000Y-80645000D03*
X64175000Y-81725000D03*
X62865000Y-83185000D03*
D22*
X69830000Y-82455000D03*
D23*
X70484995Y-83185004D02*
X69175005Y-81724996D01*
D22*
X63520000Y-82455000D03*
D23*
X62865005Y-83185004D02*
X64174995Y-81724996D01*
D21*
X69175000Y-81725000D03*
X70485000Y-83185000D03*
D22*
X64155000Y-80935000D03*
D23*
X64135001Y-80645000D02*
X64174999Y-81225000D01*
D21*
X64175000Y-81225000D03*
X64135000Y-80645000D03*
D22*
X69195000Y-80935000D03*
D23*
X69214999Y-80645000D02*
X69175001Y-81225000D01*
D22*
X145395000Y-109510000D03*
D23*
X145414999Y-109220000D02*
X145375001Y-109800000D01*
D21*
X140335000Y-109220000D03*
X140375000Y-109800000D03*
D22*
X140355000Y-109510000D03*
D23*
X140335001Y-109220000D02*
X140374999Y-109800000D01*
D21*
X146685000Y-111760000D03*
X145375000Y-110300000D03*
D22*
X139720000Y-111030000D03*
D23*
X139065005Y-111760004D02*
X140374995Y-110299996D01*
D22*
X146030000Y-111030000D03*
D23*
X146684995Y-111760004D02*
X145375005Y-110299996D01*
D21*
X139065000Y-111760000D03*
X140375000Y-110300000D03*
X145415000Y-109220000D03*
X145375000Y-109800000D03*
X145375000Y-128850000D03*
X145415000Y-128270000D03*
X140375000Y-129350000D03*
X139065000Y-130810000D03*
D22*
X146030000Y-130080000D03*
D23*
X146684995Y-130810004D02*
X145375005Y-129349996D01*
D22*
X139720000Y-130080000D03*
D23*
X139065005Y-130810004D02*
X140374995Y-129349996D01*
D21*
X145375000Y-129350000D03*
X146685000Y-130810000D03*
D22*
X140355000Y-128560000D03*
D23*
X140335001Y-128270000D02*
X140374999Y-128850000D01*
D21*
X140375000Y-128850000D03*
X140335000Y-128270000D03*
D22*
X145395000Y-128560000D03*
D23*
X145414999Y-128270000D02*
X145375001Y-128850000D01*
D22*
X164445000Y-71410000D03*
D23*
X164464999Y-71120000D02*
X164425001Y-71700000D01*
D21*
X159385000Y-71120000D03*
X159425000Y-71700000D03*
D22*
X159405000Y-71410000D03*
D23*
X159385001Y-71120000D02*
X159424999Y-71700000D01*
D21*
X165735000Y-73660000D03*
X164425000Y-72200000D03*
D22*
X158770000Y-72930000D03*
D23*
X158115005Y-73660004D02*
X159424995Y-72199996D01*
D22*
X165080000Y-72930000D03*
D23*
X165734995Y-73660004D02*
X164425005Y-72199996D01*
D21*
X158115000Y-73660000D03*
X159425000Y-72200000D03*
X164465000Y-71120000D03*
X164425000Y-71700000D03*
X164425000Y-90750000D03*
X164465000Y-90170000D03*
X159425000Y-91250000D03*
X158115000Y-92710000D03*
D22*
X165080000Y-91980000D03*
D23*
X165734995Y-92710004D02*
X164425005Y-91249996D01*
D22*
X158770000Y-91980000D03*
D23*
X158115005Y-92710004D02*
X159424995Y-91249996D01*
D21*
X164425000Y-91250000D03*
X165735000Y-92710000D03*
D22*
X159405000Y-90460000D03*
D23*
X159385001Y-90170000D02*
X159424999Y-90750000D01*
D21*
X159425000Y-90750000D03*
X159385000Y-90170000D03*
D22*
X164445000Y-90460000D03*
D23*
X164464999Y-90170000D02*
X164425001Y-90750000D01*
D22*
X164445000Y-109510000D03*
D23*
X164464999Y-109220000D02*
X164425001Y-109800000D01*
D21*
X159385000Y-109220000D03*
X159425000Y-109800000D03*
D22*
X159405000Y-109510000D03*
D23*
X159385001Y-109220000D02*
X159424999Y-109800000D01*
D21*
X165735000Y-111760000D03*
X164425000Y-110300000D03*
D22*
X158770000Y-111030000D03*
D23*
X158115005Y-111760004D02*
X159424995Y-110299996D01*
D22*
X165080000Y-111030000D03*
D23*
X165734995Y-111760004D02*
X164425005Y-110299996D01*
D21*
X158115000Y-111760000D03*
X159425000Y-110300000D03*
X164465000Y-109220000D03*
X164425000Y-109800000D03*
X164425000Y-128850000D03*
X164465000Y-128270000D03*
X159425000Y-129350000D03*
X158115000Y-130810000D03*
D22*
X165080000Y-130080000D03*
D23*
X165734995Y-130810004D02*
X164425005Y-129349996D01*
D22*
X158770000Y-130080000D03*
D23*
X158115005Y-130810004D02*
X159424995Y-129349996D01*
D21*
X164425000Y-129350000D03*
X165735000Y-130810000D03*
D22*
X159405000Y-128560000D03*
D23*
X159385001Y-128270000D02*
X159424999Y-128850000D01*
D21*
X159425000Y-128850000D03*
X159385000Y-128270000D03*
D22*
X164445000Y-128560000D03*
D23*
X164464999Y-128270000D02*
X164425001Y-128850000D01*
D22*
X164445000Y-147610000D03*
D23*
X164464999Y-147320000D02*
X164425001Y-147900000D01*
D21*
X159385000Y-147320000D03*
X159425000Y-147900000D03*
D22*
X159405000Y-147610000D03*
D23*
X159385001Y-147320000D02*
X159424999Y-147900000D01*
D21*
X165735000Y-149860000D03*
X164425000Y-148400000D03*
D22*
X158770000Y-149130000D03*
D23*
X158115005Y-149860004D02*
X159424995Y-148399996D01*
D22*
X165080000Y-149130000D03*
D23*
X165734995Y-149860004D02*
X164425005Y-148399996D01*
D21*
X158115000Y-149860000D03*
X159425000Y-148400000D03*
X164465000Y-147320000D03*
X164425000Y-147900000D03*
X183475000Y-71700000D03*
X183515000Y-71120000D03*
X178475000Y-72200000D03*
X177165000Y-73660000D03*
D22*
X184130000Y-72930000D03*
D23*
X184784995Y-73660004D02*
X183475005Y-72199996D01*
D22*
X177820000Y-72930000D03*
D23*
X177165005Y-73660004D02*
X178474995Y-72199996D01*
D21*
X183475000Y-72200000D03*
X184785000Y-73660000D03*
D22*
X178455000Y-71410000D03*
D23*
X178435001Y-71120000D02*
X178474999Y-71700000D01*
D21*
X178475000Y-71700000D03*
X178435000Y-71120000D03*
D22*
X183495000Y-71410000D03*
D23*
X183514999Y-71120000D02*
X183475001Y-71700000D01*
D22*
X183495000Y-90460000D03*
D23*
X183514999Y-90170000D02*
X183475001Y-90750000D01*
D21*
X178435000Y-90170000D03*
X178475000Y-90750000D03*
D22*
X178455000Y-90460000D03*
D23*
X178435001Y-90170000D02*
X178474999Y-90750000D01*
D21*
X184785000Y-92710000D03*
X183475000Y-91250000D03*
D22*
X177820000Y-91980000D03*
D23*
X177165005Y-92710004D02*
X178474995Y-91249996D01*
D22*
X184130000Y-91980000D03*
D23*
X184784995Y-92710004D02*
X183475005Y-91249996D01*
D21*
X177165000Y-92710000D03*
X178475000Y-91250000D03*
X183515000Y-90170000D03*
X183475000Y-90750000D03*
D22*
X183495000Y-109510000D03*
D23*
X183514999Y-109220000D02*
X183475001Y-109800000D01*
D21*
X178435000Y-109220000D03*
X178475000Y-109800000D03*
D22*
X178455000Y-109510000D03*
D23*
X178435001Y-109220000D02*
X178474999Y-109800000D01*
D21*
X184785000Y-111760000D03*
X183475000Y-110300000D03*
D22*
X177820000Y-111030000D03*
D23*
X177165005Y-111760004D02*
X178474995Y-110299996D01*
D22*
X184130000Y-111030000D03*
D23*
X184784995Y-111760004D02*
X183475005Y-110299996D01*
D21*
X177165000Y-111760000D03*
X178475000Y-110300000D03*
X183515000Y-109220000D03*
X183475000Y-109800000D03*
D22*
X190090051Y-141271368D03*
D23*
X190309254Y-141080448D02*
X189870848Y-141462288D01*
D21*
X186717151Y-137488346D03*
X186335314Y-137926753D03*
D22*
X186526232Y-137707549D03*
D23*
X186717152Y-137488346D02*
X186335312Y-137926752D01*
D21*
X189411228Y-143774526D03*
X189517294Y-141815840D03*
D22*
X185002417Y-138333339D03*
D23*
X184023074Y-138386378D02*
X185981760Y-138280300D01*
D22*
X189464261Y-142795183D03*
D23*
X189411222Y-143774526D02*
X189517300Y-141815840D01*
D21*
X184023074Y-138386372D03*
X185981760Y-138280306D03*
X190309254Y-141080449D03*
X189870847Y-141462286D03*
X203080813Y-159749864D03*
X203603109Y-159494505D03*
X200147802Y-155669736D03*
X198228405Y-155265243D03*
D22*
X202343103Y-160932110D03*
D23*
X202038398Y-161864355D02*
X202647808Y-159999865D01*
D22*
X199188103Y-155467490D03*
D23*
X198228403Y-155265249D02*
X200147803Y-155669731D01*
D21*
X202647802Y-159999864D03*
X202038405Y-161864357D03*
D22*
X200821962Y-155257416D03*
D23*
X201063110Y-155095096D02*
X200580814Y-155419736D01*
D21*
X200580814Y-155419736D03*
X201063109Y-155095095D03*
D22*
X203341962Y-159622184D03*
D23*
X203603109Y-159494504D02*
X203080815Y-159749864D01*
D22*
X145395000Y-71410000D03*
D23*
X145414999Y-71120000D02*
X145375001Y-71700000D01*
D21*
X140335000Y-71120000D03*
X140375000Y-71700000D03*
D22*
X140355000Y-71410000D03*
D23*
X140335001Y-71120000D02*
X140374999Y-71700000D01*
D21*
X146685000Y-73660000D03*
X145375000Y-72200000D03*
D22*
X139720000Y-72930000D03*
D23*
X139065005Y-73660004D02*
X140374995Y-72199996D01*
D22*
X146030000Y-72930000D03*
D23*
X146684995Y-73660004D02*
X145375005Y-72199996D01*
D21*
X139065000Y-73660000D03*
X140375000Y-72200000D03*
X145415000Y-71120000D03*
X145375000Y-71700000D03*
X145375000Y-90750000D03*
X145415000Y-90170000D03*
X140375000Y-91250000D03*
X139065000Y-92710000D03*
D22*
X146030000Y-91980000D03*
D23*
X146684995Y-92710004D02*
X145375005Y-91249996D01*
D22*
X139720000Y-91980000D03*
D23*
X139065005Y-92710004D02*
X140374995Y-91249996D01*
D21*
X145375000Y-91250000D03*
X146685000Y-92710000D03*
D22*
X140355000Y-90460000D03*
D23*
X140335001Y-90170000D02*
X140374999Y-90750000D01*
D21*
X140375000Y-90750000D03*
X140335000Y-90170000D03*
D22*
X145395000Y-90460000D03*
D23*
X145414999Y-90170000D02*
X145375001Y-90750000D01*
D22*
X126345000Y-80935000D03*
D23*
X126364999Y-80645000D02*
X126325001Y-81225000D01*
D21*
X121285000Y-80645000D03*
X121325000Y-81225000D03*
D22*
X121305000Y-80935000D03*
D23*
X121285001Y-80645000D02*
X121324999Y-81225000D01*
D21*
X127635000Y-83185000D03*
X126325000Y-81725000D03*
D22*
X120670000Y-82455000D03*
D23*
X120015005Y-83185004D02*
X121324995Y-81724996D01*
D22*
X126980000Y-82455000D03*
D23*
X127634995Y-83185004D02*
X126325005Y-81724996D01*
D21*
X120015000Y-83185000D03*
X121325000Y-81725000D03*
X126365000Y-80645000D03*
X126325000Y-81225000D03*
X126325000Y-100275000D03*
X126365000Y-99695000D03*
X121325000Y-100775000D03*
X120015000Y-102235000D03*
D22*
X126980000Y-101505000D03*
D23*
X127634995Y-102235004D02*
X126325005Y-100774996D01*
D22*
X120670000Y-101505000D03*
D23*
X120015005Y-102235004D02*
X121324995Y-100774996D01*
D21*
X126325000Y-100775000D03*
X127635000Y-102235000D03*
D22*
X121305000Y-99985000D03*
D23*
X121285001Y-99695000D02*
X121324999Y-100275000D01*
D21*
X121325000Y-100275000D03*
X121285000Y-99695000D03*
D22*
X126345000Y-99985000D03*
D23*
X126364999Y-99695000D02*
X126325001Y-100275000D01*
D21*
X69175000Y-119325000D03*
X69215000Y-118745000D03*
X64175000Y-119825000D03*
X62865000Y-121285000D03*
D22*
X69830000Y-120555000D03*
D23*
X70484995Y-121285004D02*
X69175005Y-119824996D01*
D22*
X63520000Y-120555000D03*
D23*
X62865005Y-121285004D02*
X64174995Y-119824996D01*
D21*
X69175000Y-119825000D03*
X70485000Y-121285000D03*
D22*
X64155000Y-119035000D03*
D23*
X64135001Y-118745000D02*
X64174999Y-119325000D01*
D21*
X64175000Y-119325000D03*
X64135000Y-118745000D03*
D22*
X69195000Y-119035000D03*
D23*
X69214999Y-118745000D02*
X69175001Y-119325000D01*
D22*
X69195000Y-138085000D03*
D23*
X69214999Y-137795000D02*
X69175001Y-138375000D01*
D21*
X64135000Y-137795000D03*
X64175000Y-138375000D03*
D22*
X64155000Y-138085000D03*
D23*
X64135001Y-137795000D02*
X64174999Y-138375000D01*
D21*
X70485000Y-140335000D03*
X69175000Y-138875000D03*
D22*
X63520000Y-139605000D03*
D23*
X62865005Y-140335004D02*
X64174995Y-138874996D01*
D22*
X69830000Y-139605000D03*
D23*
X70484995Y-140335004D02*
X69175005Y-138874996D01*
D21*
X62865000Y-140335000D03*
X64175000Y-138875000D03*
X69215000Y-137795000D03*
X69175000Y-138375000D03*
X88225000Y-81225000D03*
X88265000Y-80645000D03*
X83225000Y-81725000D03*
X81915000Y-83185000D03*
D22*
X88880000Y-82455000D03*
D23*
X89534995Y-83185004D02*
X88225005Y-81724996D01*
D22*
X82570000Y-82455000D03*
D23*
X81915005Y-83185004D02*
X83224995Y-81724996D01*
D21*
X88225000Y-81725000D03*
X89535000Y-83185000D03*
D22*
X83205000Y-80935000D03*
D23*
X83185001Y-80645000D02*
X83224999Y-81225000D01*
D21*
X83225000Y-81225000D03*
X83185000Y-80645000D03*
D22*
X88245000Y-80935000D03*
D23*
X88264999Y-80645000D02*
X88225001Y-81225000D01*
D22*
X88245000Y-99985000D03*
D23*
X88264999Y-99695000D02*
X88225001Y-100275000D01*
D21*
X83185000Y-99695000D03*
X83225000Y-100275000D03*
D22*
X83205000Y-99985000D03*
D23*
X83185001Y-99695000D02*
X83224999Y-100275000D01*
D21*
X89535000Y-102235000D03*
X88225000Y-100775000D03*
D22*
X82570000Y-101505000D03*
D23*
X81915005Y-102235004D02*
X83224995Y-100774996D01*
D22*
X88880000Y-101505000D03*
D23*
X89534995Y-102235004D02*
X88225005Y-100774996D01*
D21*
X81915000Y-102235000D03*
X83225000Y-100775000D03*
X88265000Y-99695000D03*
X88225000Y-100275000D03*
X88225000Y-119325000D03*
X88265000Y-118745000D03*
X83225000Y-119825000D03*
X81915000Y-121285000D03*
D22*
X88880000Y-120555000D03*
D23*
X89534995Y-121285004D02*
X88225005Y-119824996D01*
D22*
X82570000Y-120555000D03*
D23*
X81915005Y-121285004D02*
X83224995Y-119824996D01*
D21*
X88225000Y-119825000D03*
X89535000Y-121285000D03*
D22*
X83205000Y-119035000D03*
D23*
X83185001Y-118745000D02*
X83224999Y-119325000D01*
D21*
X83225000Y-119325000D03*
X83185000Y-118745000D03*
D22*
X88245000Y-119035000D03*
D23*
X88264999Y-118745000D02*
X88225001Y-119325000D01*
D22*
X88245000Y-138085000D03*
D23*
X88264999Y-137795000D02*
X88225001Y-138375000D01*
D21*
X83185000Y-137795000D03*
X83225000Y-138375000D03*
D22*
X83205000Y-138085000D03*
D23*
X83185001Y-137795000D02*
X83224999Y-138375000D01*
D21*
X89535000Y-140335000D03*
X88225000Y-138875000D03*
D22*
X82570000Y-139605000D03*
D23*
X81915005Y-140335004D02*
X83224995Y-138874996D01*
D22*
X88880000Y-139605000D03*
D23*
X89534995Y-140335004D02*
X88225005Y-138874996D01*
D21*
X81915000Y-140335000D03*
X83225000Y-138875000D03*
X88265000Y-137795000D03*
X88225000Y-138375000D03*
D22*
X107295000Y-66647500D03*
D23*
X107314999Y-66357500D02*
X107275001Y-66937500D01*
D21*
X102235000Y-66357500D03*
X102275000Y-66937500D03*
D22*
X102255000Y-66647500D03*
D23*
X102235001Y-66357500D02*
X102274999Y-66937500D01*
D21*
X108585000Y-68897500D03*
X107275000Y-67437500D03*
D22*
X101620000Y-68167500D03*
D23*
X100965005Y-68897504D02*
X102274995Y-67437496D01*
D22*
X107930000Y-68167500D03*
D23*
X108584995Y-68897504D02*
X107275005Y-67437496D01*
D21*
X100965000Y-68897500D03*
X102275000Y-67437500D03*
X107315000Y-66357500D03*
X107275000Y-66937500D03*
X107275000Y-85987500D03*
X107315000Y-85407500D03*
X102275000Y-86487500D03*
X100965000Y-87947500D03*
D22*
X107930000Y-87217500D03*
D23*
X108584995Y-87947504D02*
X107275005Y-86487496D01*
D22*
X101620000Y-87217500D03*
D23*
X100965005Y-87947504D02*
X102274995Y-86487496D01*
D21*
X107275000Y-86487500D03*
X108585000Y-87947500D03*
D22*
X102255000Y-85697500D03*
D23*
X102235001Y-85407500D02*
X102274999Y-85987500D01*
D21*
X102275000Y-85987500D03*
X102235000Y-85407500D03*
D22*
X107295000Y-85697500D03*
D23*
X107314999Y-85407500D02*
X107275001Y-85987500D01*
D22*
X107295000Y-104747500D03*
D23*
X107314999Y-104457500D02*
X107275001Y-105037500D01*
D21*
X102235000Y-104457500D03*
X102275000Y-105037500D03*
D22*
X102255000Y-104747500D03*
D23*
X102235001Y-104457500D02*
X102274999Y-105037500D01*
D21*
X108585000Y-106997500D03*
X107275000Y-105537500D03*
D22*
X101620000Y-106267500D03*
D23*
X100965005Y-106997504D02*
X102274995Y-105537496D01*
D22*
X107930000Y-106267500D03*
D23*
X108584995Y-106997504D02*
X107275005Y-105537496D01*
D21*
X100965000Y-106997500D03*
X102275000Y-105537500D03*
X107315000Y-104457500D03*
X107275000Y-105037500D03*
X107275000Y-124087500D03*
X107315000Y-123507500D03*
X102275000Y-124587500D03*
X100965000Y-126047500D03*
D22*
X107930000Y-125317500D03*
D23*
X108584995Y-126047504D02*
X107275005Y-124587496D01*
D22*
X101620000Y-125317500D03*
D23*
X100965005Y-126047504D02*
X102274995Y-124587496D01*
D21*
X107275000Y-124587500D03*
X108585000Y-126047500D03*
D22*
X102255000Y-123797500D03*
D23*
X102235001Y-123507500D02*
X102274999Y-124087500D01*
D21*
X102275000Y-124087500D03*
X102235000Y-123507500D03*
D22*
X107295000Y-123797500D03*
D23*
X107314999Y-123507500D02*
X107275001Y-124087500D01*
D21*
X126325000Y-62175000D03*
X126365000Y-61595000D03*
X121325000Y-62675000D03*
X120015000Y-64135000D03*
D22*
X126980000Y-63405000D03*
D23*
X127634995Y-64135004D02*
X126325005Y-62674996D01*
D22*
X120670000Y-63405000D03*
D23*
X120015005Y-64135004D02*
X121324995Y-62674996D01*
D21*
X126325000Y-62675000D03*
X127635000Y-64135000D03*
D22*
X121305000Y-61885000D03*
D23*
X121285001Y-61595000D02*
X121324999Y-62175000D01*
D21*
X121325000Y-62175000D03*
X121285000Y-61595000D03*
D22*
X126345000Y-61885000D03*
D23*
X126364999Y-61595000D02*
X126325001Y-62175000D01*
D21*
X126325000Y-119325000D03*
X126365000Y-118745000D03*
X121325000Y-119825000D03*
X120015000Y-121285000D03*
D22*
X126980000Y-120555000D03*
D23*
X127634995Y-121285004D02*
X126325005Y-119824996D01*
D22*
X120670000Y-120555000D03*
D23*
X120015005Y-121285004D02*
X121324995Y-119824996D01*
D21*
X126325000Y-119825000D03*
X127635000Y-121285000D03*
D22*
X121305000Y-119035000D03*
D23*
X121285001Y-118745000D02*
X121324999Y-119325000D01*
D21*
X121325000Y-119325000D03*
X121285000Y-118745000D03*
D22*
X126345000Y-119035000D03*
D23*
X126364999Y-118745000D02*
X126325001Y-119325000D01*
D24*
X131445000Y-57467500D03*
D13*
X131445000Y-60007500D03*
X131445000Y-62547500D03*
X131445000Y-65087500D03*
X131445000Y-67627500D03*
X131445000Y-70167500D03*
X131445000Y-72707500D03*
X131445000Y-75247500D03*
X131445000Y-77787500D03*
X131445000Y-80327500D03*
X131445000Y-82867500D03*
X116205000Y-85407500D03*
X116205000Y-82867500D03*
X116205000Y-80327500D03*
X116205000Y-77787500D03*
X116205000Y-75247500D03*
X116205000Y-72707500D03*
X116205000Y-70167500D03*
X116205000Y-67627500D03*
X116205000Y-65087500D03*
X116205000Y-62547500D03*
X116205000Y-60007500D03*
X131445000Y-85407500D03*
X116205000Y-57467500D03*
D25*
X171450000Y-95250000D03*
X171450000Y-133350000D03*
X133350000Y-114300000D03*
X135731250Y-85725000D03*
X95250000Y-123825000D03*
X95250000Y-90487500D03*
M02*
