G04 #@! TF.GenerationSoftware,KiCad,Pcbnew,(5.1.2)-2*
G04 #@! TF.CreationDate,2019-06-19T23:20:39-05:00*
G04 #@! TF.ProjectId,BlastersRev2,426c6173-7465-4727-9352-6576322e6b69,rev?*
G04 #@! TF.SameCoordinates,Original*
G04 #@! TF.FileFunction,Soldermask,Top*
G04 #@! TF.FilePolarity,Negative*
%FSLAX46Y46*%
G04 Gerber Fmt 4.6, Leading zero omitted, Abs format (unit mm)*
G04 Created by KiCad (PCBNEW (5.1.2)-2) date 2019-06-19 23:20:39*
%MOMM*%
%LPD*%
G04 APERTURE LIST*
%ADD10C,2.152600*%
%ADD11R,1.400000X1.900000*%
%ADD12C,1.900000*%
%ADD13O,2.000000X2.600000*%
%ADD14R,2.000000X2.000000*%
%ADD15C,2.000000*%
%ADD16R,2.000000X1.600000*%
%ADD17C,0.100000*%
%ADD18C,1.600000*%
%ADD19C,2.900000*%
%ADD20C,2.900000*%
%ADD21C,2.400000*%
%ADD22R,2.152600X2.152600*%
%ADD23C,3.600000*%
G04 APERTURE END LIST*
D10*
X133350000Y-104775000D03*
D11*
X104070000Y-61190000D03*
X105370000Y-61190000D03*
D12*
X91993750Y-70512500D03*
X91993750Y-63512500D03*
D13*
X94293750Y-73212500D03*
X85093750Y-73212500D03*
X89693750Y-72112500D03*
X89693750Y-65112500D03*
D12*
X87393750Y-70512500D03*
X87393750Y-63512500D03*
D13*
X89693750Y-68112500D03*
D14*
X146775000Y-84931250D03*
D15*
X138975000Y-84931250D03*
D16*
X141475000Y-84931250D03*
X144275000Y-84931250D03*
X144275000Y-103981250D03*
X141475000Y-103981250D03*
D15*
X138975000Y-103981250D03*
D14*
X146775000Y-103981250D03*
X146775000Y-123031250D03*
D15*
X138975000Y-123031250D03*
D16*
X141475000Y-123031250D03*
X144275000Y-123031250D03*
X144275000Y-142081250D03*
X141475000Y-142081250D03*
D15*
X138975000Y-142081250D03*
D14*
X146775000Y-142081250D03*
X165825000Y-84931250D03*
D15*
X158025000Y-84931250D03*
D16*
X160525000Y-84931250D03*
X163325000Y-84931250D03*
X163325000Y-103981250D03*
X160525000Y-103981250D03*
D15*
X158025000Y-103981250D03*
D14*
X165825000Y-103981250D03*
X165825000Y-123031250D03*
D15*
X158025000Y-123031250D03*
D16*
X160525000Y-123031250D03*
X163325000Y-123031250D03*
X163325000Y-142081250D03*
X160525000Y-142081250D03*
D15*
X158025000Y-142081250D03*
D14*
X165825000Y-142081250D03*
X165825000Y-161131250D03*
D15*
X158025000Y-161131250D03*
D16*
X160525000Y-161131250D03*
X163325000Y-161131250D03*
X182375000Y-84931250D03*
X179575000Y-84931250D03*
D15*
X177075000Y-84931250D03*
D14*
X184875000Y-84931250D03*
X184875000Y-103981250D03*
D15*
X177075000Y-103981250D03*
D16*
X179575000Y-103981250D03*
X182375000Y-103981250D03*
X182375000Y-123031250D03*
X179575000Y-123031250D03*
D15*
X177075000Y-123031250D03*
D14*
X184875000Y-123031250D03*
D15*
X193243750Y-167683749D03*
D17*
G36*
X191877725Y-167317724D02*
G01*
X193609775Y-166317724D01*
X194609775Y-168049774D01*
X192877725Y-169049774D01*
X191877725Y-167317724D01*
X191877725Y-167317724D01*
G37*
D15*
X189343750Y-160928751D03*
D18*
X190593750Y-163093814D03*
D17*
G36*
X189400930Y-162627789D02*
G01*
X190786570Y-161827789D01*
X191786570Y-163559839D01*
X190400930Y-164359839D01*
X189400930Y-162627789D01*
X189400930Y-162627789D01*
G37*
D18*
X191993750Y-165518686D03*
D17*
G36*
X190800930Y-165052661D02*
G01*
X192186570Y-164252661D01*
X193186570Y-165984711D01*
X191800930Y-166784711D01*
X190800930Y-165052661D01*
X190800930Y-165052661D01*
G37*
D16*
X68075000Y-113506250D03*
X65275000Y-113506250D03*
D15*
X62775000Y-113506250D03*
D14*
X70575000Y-113506250D03*
X127725000Y-113506250D03*
D15*
X119925000Y-113506250D03*
D16*
X122425000Y-113506250D03*
X125225000Y-113506250D03*
X125225000Y-132556250D03*
X122425000Y-132556250D03*
D15*
X119925000Y-132556250D03*
D14*
X127725000Y-132556250D03*
D15*
X181351466Y-151188966D03*
D17*
G36*
X179937252Y-151188966D02*
G01*
X181351466Y-149774752D01*
X182765680Y-151188966D01*
X181351466Y-152603180D01*
X179937252Y-151188966D01*
X179937252Y-151188966D01*
G37*
D15*
X175836034Y-145673534D03*
D18*
X177603801Y-147441301D03*
D17*
G36*
X176331009Y-147299880D02*
G01*
X177462380Y-146168509D01*
X178876593Y-147582722D01*
X177745222Y-148714093D01*
X176331009Y-147299880D01*
X176331009Y-147299880D01*
G37*
D18*
X179583699Y-149421199D03*
D17*
G36*
X178310907Y-149279778D02*
G01*
X179442278Y-148148407D01*
X180856491Y-149562620D01*
X179725120Y-150693991D01*
X178310907Y-149279778D01*
X178310907Y-149279778D01*
G37*
D16*
X68075000Y-94456250D03*
X65275000Y-94456250D03*
D15*
X62775000Y-94456250D03*
D14*
X70575000Y-94456250D03*
X70575000Y-132556250D03*
D15*
X62775000Y-132556250D03*
D16*
X65275000Y-132556250D03*
X68075000Y-132556250D03*
X68075000Y-151606250D03*
X65275000Y-151606250D03*
D15*
X62775000Y-151606250D03*
D14*
X70575000Y-151606250D03*
X89625000Y-94456250D03*
D15*
X81825000Y-94456250D03*
D16*
X84325000Y-94456250D03*
X87125000Y-94456250D03*
X87125000Y-113506250D03*
X84325000Y-113506250D03*
D15*
X81825000Y-113506250D03*
D14*
X89625000Y-113506250D03*
X89625000Y-132556250D03*
D15*
X81825000Y-132556250D03*
D16*
X84325000Y-132556250D03*
X87125000Y-132556250D03*
X87125000Y-151606250D03*
X84325000Y-151606250D03*
D15*
X81825000Y-151606250D03*
D14*
X89625000Y-151606250D03*
D16*
X106175000Y-80168750D03*
X103375000Y-80168750D03*
D15*
X100875000Y-80168750D03*
D14*
X108675000Y-80168750D03*
X108675000Y-99218750D03*
D15*
X100875000Y-99218750D03*
D16*
X103375000Y-99218750D03*
X106175000Y-99218750D03*
X106175000Y-118268750D03*
X103375000Y-118268750D03*
D15*
X100875000Y-118268750D03*
D14*
X108675000Y-118268750D03*
X108675000Y-137318750D03*
D15*
X100875000Y-137318750D03*
D16*
X103375000Y-137318750D03*
X106175000Y-137318750D03*
D14*
X127725000Y-74612500D03*
D15*
X119925000Y-74612500D03*
D16*
X122425000Y-74612500D03*
X125225000Y-74612500D03*
X125225000Y-94456250D03*
X122425000Y-94456250D03*
D15*
X119925000Y-94456250D03*
D14*
X127725000Y-94456250D03*
D19*
X69195000Y-99985000D03*
D20*
X69214999Y-99695000D02*
X69175001Y-100275000D01*
D21*
X69175000Y-100275000D03*
X69215000Y-99695000D03*
X64175000Y-100775000D03*
X62865000Y-102235000D03*
X69175000Y-100775000D03*
X70485000Y-102235000D03*
X64175000Y-100275000D03*
X64135000Y-99695000D03*
D19*
X63520000Y-101505000D03*
D20*
X62865005Y-102235004D02*
X64174995Y-100774996D01*
D19*
X64155000Y-99985000D03*
D20*
X64135001Y-99695000D02*
X64174999Y-100275000D01*
D19*
X69830000Y-101505000D03*
D20*
X70484995Y-102235004D02*
X69175005Y-100774996D01*
D19*
X69195000Y-80935000D03*
D20*
X69214999Y-80645000D02*
X69175001Y-81225000D01*
D21*
X69175000Y-81225000D03*
X69215000Y-80645000D03*
X64175000Y-81725000D03*
X62865000Y-83185000D03*
X69175000Y-81725000D03*
X70485000Y-83185000D03*
X64175000Y-81225000D03*
X64135000Y-80645000D03*
D19*
X63520000Y-82455000D03*
D20*
X62865005Y-83185004D02*
X64174995Y-81724996D01*
D19*
X64155000Y-80935000D03*
D20*
X64135001Y-80645000D02*
X64174999Y-81225000D01*
D19*
X69830000Y-82455000D03*
D20*
X70484995Y-83185004D02*
X69175005Y-81724996D01*
D19*
X146030000Y-111030000D03*
D20*
X146684995Y-111760004D02*
X145375005Y-110299996D01*
D19*
X140355000Y-109510000D03*
D20*
X140335001Y-109220000D02*
X140374999Y-109800000D01*
D19*
X139720000Y-111030000D03*
D20*
X139065005Y-111760004D02*
X140374995Y-110299996D01*
D21*
X140335000Y-109220000D03*
X140375000Y-109800000D03*
X146685000Y-111760000D03*
X145375000Y-110300000D03*
X139065000Y-111760000D03*
X140375000Y-110300000D03*
X145415000Y-109220000D03*
X145375000Y-109800000D03*
D19*
X145395000Y-109510000D03*
D20*
X145414999Y-109220000D02*
X145375001Y-109800000D01*
D19*
X145395000Y-128560000D03*
D20*
X145414999Y-128270000D02*
X145375001Y-128850000D01*
D21*
X145375000Y-128850000D03*
X145415000Y-128270000D03*
X140375000Y-129350000D03*
X139065000Y-130810000D03*
X145375000Y-129350000D03*
X146685000Y-130810000D03*
X140375000Y-128850000D03*
X140335000Y-128270000D03*
D19*
X139720000Y-130080000D03*
D20*
X139065005Y-130810004D02*
X140374995Y-129349996D01*
D19*
X140355000Y-128560000D03*
D20*
X140335001Y-128270000D02*
X140374999Y-128850000D01*
D19*
X146030000Y-130080000D03*
D20*
X146684995Y-130810004D02*
X145375005Y-129349996D01*
D19*
X165080000Y-72930000D03*
D20*
X165734995Y-73660004D02*
X164425005Y-72199996D01*
D19*
X159405000Y-71410000D03*
D20*
X159385001Y-71120000D02*
X159424999Y-71700000D01*
D19*
X158770000Y-72930000D03*
D20*
X158115005Y-73660004D02*
X159424995Y-72199996D01*
D21*
X159385000Y-71120000D03*
X159425000Y-71700000D03*
X165735000Y-73660000D03*
X164425000Y-72200000D03*
X158115000Y-73660000D03*
X159425000Y-72200000D03*
X164465000Y-71120000D03*
X164425000Y-71700000D03*
D19*
X164445000Y-71410000D03*
D20*
X164464999Y-71120000D02*
X164425001Y-71700000D01*
D19*
X164445000Y-90460000D03*
D20*
X164464999Y-90170000D02*
X164425001Y-90750000D01*
D21*
X164425000Y-90750000D03*
X164465000Y-90170000D03*
X159425000Y-91250000D03*
X158115000Y-92710000D03*
X164425000Y-91250000D03*
X165735000Y-92710000D03*
X159425000Y-90750000D03*
X159385000Y-90170000D03*
D19*
X158770000Y-91980000D03*
D20*
X158115005Y-92710004D02*
X159424995Y-91249996D01*
D19*
X159405000Y-90460000D03*
D20*
X159385001Y-90170000D02*
X159424999Y-90750000D01*
D19*
X165080000Y-91980000D03*
D20*
X165734995Y-92710004D02*
X164425005Y-91249996D01*
D19*
X165080000Y-111030000D03*
D20*
X165734995Y-111760004D02*
X164425005Y-110299996D01*
D19*
X159405000Y-109510000D03*
D20*
X159385001Y-109220000D02*
X159424999Y-109800000D01*
D19*
X158770000Y-111030000D03*
D20*
X158115005Y-111760004D02*
X159424995Y-110299996D01*
D21*
X159385000Y-109220000D03*
X159425000Y-109800000D03*
X165735000Y-111760000D03*
X164425000Y-110300000D03*
X158115000Y-111760000D03*
X159425000Y-110300000D03*
X164465000Y-109220000D03*
X164425000Y-109800000D03*
D19*
X164445000Y-109510000D03*
D20*
X164464999Y-109220000D02*
X164425001Y-109800000D01*
D19*
X164445000Y-128560000D03*
D20*
X164464999Y-128270000D02*
X164425001Y-128850000D01*
D21*
X164425000Y-128850000D03*
X164465000Y-128270000D03*
X159425000Y-129350000D03*
X158115000Y-130810000D03*
X164425000Y-129350000D03*
X165735000Y-130810000D03*
X159425000Y-128850000D03*
X159385000Y-128270000D03*
D19*
X158770000Y-130080000D03*
D20*
X158115005Y-130810004D02*
X159424995Y-129349996D01*
D19*
X159405000Y-128560000D03*
D20*
X159385001Y-128270000D02*
X159424999Y-128850000D01*
D19*
X165080000Y-130080000D03*
D20*
X165734995Y-130810004D02*
X164425005Y-129349996D01*
D19*
X165080000Y-149130000D03*
D20*
X165734995Y-149860004D02*
X164425005Y-148399996D01*
D19*
X159405000Y-147610000D03*
D20*
X159385001Y-147320000D02*
X159424999Y-147900000D01*
D19*
X158770000Y-149130000D03*
D20*
X158115005Y-149860004D02*
X159424995Y-148399996D01*
D21*
X159385000Y-147320000D03*
X159425000Y-147900000D03*
X165735000Y-149860000D03*
X164425000Y-148400000D03*
X158115000Y-149860000D03*
X159425000Y-148400000D03*
X164465000Y-147320000D03*
X164425000Y-147900000D03*
D19*
X164445000Y-147610000D03*
D20*
X164464999Y-147320000D02*
X164425001Y-147900000D01*
D19*
X183495000Y-71410000D03*
D20*
X183514999Y-71120000D02*
X183475001Y-71700000D01*
D21*
X183475000Y-71700000D03*
X183515000Y-71120000D03*
X178475000Y-72200000D03*
X177165000Y-73660000D03*
X183475000Y-72200000D03*
X184785000Y-73660000D03*
X178475000Y-71700000D03*
X178435000Y-71120000D03*
D19*
X177820000Y-72930000D03*
D20*
X177165005Y-73660004D02*
X178474995Y-72199996D01*
D19*
X178455000Y-71410000D03*
D20*
X178435001Y-71120000D02*
X178474999Y-71700000D01*
D19*
X184130000Y-72930000D03*
D20*
X184784995Y-73660004D02*
X183475005Y-72199996D01*
D19*
X184130000Y-91980000D03*
D20*
X184784995Y-92710004D02*
X183475005Y-91249996D01*
D19*
X178455000Y-90460000D03*
D20*
X178435001Y-90170000D02*
X178474999Y-90750000D01*
D19*
X177820000Y-91980000D03*
D20*
X177165005Y-92710004D02*
X178474995Y-91249996D01*
D21*
X178435000Y-90170000D03*
X178475000Y-90750000D03*
X184785000Y-92710000D03*
X183475000Y-91250000D03*
X177165000Y-92710000D03*
X178475000Y-91250000D03*
X183515000Y-90170000D03*
X183475000Y-90750000D03*
D19*
X183495000Y-90460000D03*
D20*
X183514999Y-90170000D02*
X183475001Y-90750000D01*
D19*
X184130000Y-111030000D03*
D20*
X184784995Y-111760004D02*
X183475005Y-110299996D01*
D19*
X178455000Y-109510000D03*
D20*
X178435001Y-109220000D02*
X178474999Y-109800000D01*
D19*
X177820000Y-111030000D03*
D20*
X177165005Y-111760004D02*
X178474995Y-110299996D01*
D21*
X178435000Y-109220000D03*
X178475000Y-109800000D03*
X184785000Y-111760000D03*
X183475000Y-110300000D03*
X177165000Y-111760000D03*
X178475000Y-110300000D03*
X183515000Y-109220000D03*
X183475000Y-109800000D03*
D19*
X183495000Y-109510000D03*
D20*
X183514999Y-109220000D02*
X183475001Y-109800000D01*
D19*
X189464261Y-142795183D03*
D20*
X189411222Y-143774526D02*
X189517300Y-141815840D01*
D19*
X186526232Y-137707549D03*
D20*
X186717152Y-137488346D02*
X186335312Y-137926752D01*
D19*
X185002417Y-138333339D03*
D20*
X184023074Y-138386378D02*
X185981760Y-138280300D01*
D21*
X186717151Y-137488346D03*
X186335314Y-137926753D03*
X189411228Y-143774526D03*
X189517294Y-141815840D03*
X184023074Y-138386372D03*
X185981760Y-138280306D03*
X190309254Y-141080449D03*
X189870847Y-141462286D03*
D19*
X190090051Y-141271368D03*
D20*
X190309254Y-141080448D02*
X189870848Y-141462288D01*
D19*
X203341962Y-159622184D03*
D20*
X203603109Y-159494504D02*
X203080815Y-159749864D01*
D21*
X203080813Y-159749864D03*
X203603109Y-159494505D03*
X200147802Y-155669736D03*
X198228405Y-155265243D03*
X202647802Y-159999864D03*
X202038405Y-161864357D03*
X200580814Y-155419736D03*
X201063109Y-155095095D03*
D19*
X199188103Y-155467490D03*
D20*
X198228403Y-155265249D02*
X200147803Y-155669731D01*
D19*
X200821962Y-155257416D03*
D20*
X201063110Y-155095096D02*
X200580814Y-155419736D01*
D19*
X202343103Y-160932110D03*
D20*
X202038398Y-161864355D02*
X202647808Y-159999865D01*
D19*
X146030000Y-72930000D03*
D20*
X146684995Y-73660004D02*
X145375005Y-72199996D01*
D19*
X140355000Y-71410000D03*
D20*
X140335001Y-71120000D02*
X140374999Y-71700000D01*
D19*
X139720000Y-72930000D03*
D20*
X139065005Y-73660004D02*
X140374995Y-72199996D01*
D21*
X140335000Y-71120000D03*
X140375000Y-71700000D03*
X146685000Y-73660000D03*
X145375000Y-72200000D03*
X139065000Y-73660000D03*
X140375000Y-72200000D03*
X145415000Y-71120000D03*
X145375000Y-71700000D03*
D19*
X145395000Y-71410000D03*
D20*
X145414999Y-71120000D02*
X145375001Y-71700000D01*
D19*
X145395000Y-90460000D03*
D20*
X145414999Y-90170000D02*
X145375001Y-90750000D01*
D21*
X145375000Y-90750000D03*
X145415000Y-90170000D03*
X140375000Y-91250000D03*
X139065000Y-92710000D03*
X145375000Y-91250000D03*
X146685000Y-92710000D03*
X140375000Y-90750000D03*
X140335000Y-90170000D03*
D19*
X139720000Y-91980000D03*
D20*
X139065005Y-92710004D02*
X140374995Y-91249996D01*
D19*
X140355000Y-90460000D03*
D20*
X140335001Y-90170000D02*
X140374999Y-90750000D01*
D19*
X146030000Y-91980000D03*
D20*
X146684995Y-92710004D02*
X145375005Y-91249996D01*
D19*
X126980000Y-82455000D03*
D20*
X127634995Y-83185004D02*
X126325005Y-81724996D01*
D19*
X121305000Y-80935000D03*
D20*
X121285001Y-80645000D02*
X121324999Y-81225000D01*
D19*
X120670000Y-82455000D03*
D20*
X120015005Y-83185004D02*
X121324995Y-81724996D01*
D21*
X121285000Y-80645000D03*
X121325000Y-81225000D03*
X127635000Y-83185000D03*
X126325000Y-81725000D03*
X120015000Y-83185000D03*
X121325000Y-81725000D03*
X126365000Y-80645000D03*
X126325000Y-81225000D03*
D19*
X126345000Y-80935000D03*
D20*
X126364999Y-80645000D02*
X126325001Y-81225000D01*
D19*
X126345000Y-99985000D03*
D20*
X126364999Y-99695000D02*
X126325001Y-100275000D01*
D21*
X126325000Y-100275000D03*
X126365000Y-99695000D03*
X121325000Y-100775000D03*
X120015000Y-102235000D03*
X126325000Y-100775000D03*
X127635000Y-102235000D03*
X121325000Y-100275000D03*
X121285000Y-99695000D03*
D19*
X120670000Y-101505000D03*
D20*
X120015005Y-102235004D02*
X121324995Y-100774996D01*
D19*
X121305000Y-99985000D03*
D20*
X121285001Y-99695000D02*
X121324999Y-100275000D01*
D19*
X126980000Y-101505000D03*
D20*
X127634995Y-102235004D02*
X126325005Y-100774996D01*
D19*
X69195000Y-119035000D03*
D20*
X69214999Y-118745000D02*
X69175001Y-119325000D01*
D21*
X69175000Y-119325000D03*
X69215000Y-118745000D03*
X64175000Y-119825000D03*
X62865000Y-121285000D03*
X69175000Y-119825000D03*
X70485000Y-121285000D03*
X64175000Y-119325000D03*
X64135000Y-118745000D03*
D19*
X63520000Y-120555000D03*
D20*
X62865005Y-121285004D02*
X64174995Y-119824996D01*
D19*
X64155000Y-119035000D03*
D20*
X64135001Y-118745000D02*
X64174999Y-119325000D01*
D19*
X69830000Y-120555000D03*
D20*
X70484995Y-121285004D02*
X69175005Y-119824996D01*
D19*
X69830000Y-139605000D03*
D20*
X70484995Y-140335004D02*
X69175005Y-138874996D01*
D19*
X64155000Y-138085000D03*
D20*
X64135001Y-137795000D02*
X64174999Y-138375000D01*
D19*
X63520000Y-139605000D03*
D20*
X62865005Y-140335004D02*
X64174995Y-138874996D01*
D21*
X64135000Y-137795000D03*
X64175000Y-138375000D03*
X70485000Y-140335000D03*
X69175000Y-138875000D03*
X62865000Y-140335000D03*
X64175000Y-138875000D03*
X69215000Y-137795000D03*
X69175000Y-138375000D03*
D19*
X69195000Y-138085000D03*
D20*
X69214999Y-137795000D02*
X69175001Y-138375000D01*
D19*
X88245000Y-80935000D03*
D20*
X88264999Y-80645000D02*
X88225001Y-81225000D01*
D21*
X88225000Y-81225000D03*
X88265000Y-80645000D03*
X83225000Y-81725000D03*
X81915000Y-83185000D03*
X88225000Y-81725000D03*
X89535000Y-83185000D03*
X83225000Y-81225000D03*
X83185000Y-80645000D03*
D19*
X82570000Y-82455000D03*
D20*
X81915005Y-83185004D02*
X83224995Y-81724996D01*
D19*
X83205000Y-80935000D03*
D20*
X83185001Y-80645000D02*
X83224999Y-81225000D01*
D19*
X88880000Y-82455000D03*
D20*
X89534995Y-83185004D02*
X88225005Y-81724996D01*
D19*
X88880000Y-101505000D03*
D20*
X89534995Y-102235004D02*
X88225005Y-100774996D01*
D19*
X83205000Y-99985000D03*
D20*
X83185001Y-99695000D02*
X83224999Y-100275000D01*
D19*
X82570000Y-101505000D03*
D20*
X81915005Y-102235004D02*
X83224995Y-100774996D01*
D21*
X83185000Y-99695000D03*
X83225000Y-100275000D03*
X89535000Y-102235000D03*
X88225000Y-100775000D03*
X81915000Y-102235000D03*
X83225000Y-100775000D03*
X88265000Y-99695000D03*
X88225000Y-100275000D03*
D19*
X88245000Y-99985000D03*
D20*
X88264999Y-99695000D02*
X88225001Y-100275000D01*
D19*
X88245000Y-119035000D03*
D20*
X88264999Y-118745000D02*
X88225001Y-119325000D01*
D21*
X88225000Y-119325000D03*
X88265000Y-118745000D03*
X83225000Y-119825000D03*
X81915000Y-121285000D03*
X88225000Y-119825000D03*
X89535000Y-121285000D03*
X83225000Y-119325000D03*
X83185000Y-118745000D03*
D19*
X82570000Y-120555000D03*
D20*
X81915005Y-121285004D02*
X83224995Y-119824996D01*
D19*
X83205000Y-119035000D03*
D20*
X83185001Y-118745000D02*
X83224999Y-119325000D01*
D19*
X88880000Y-120555000D03*
D20*
X89534995Y-121285004D02*
X88225005Y-119824996D01*
D19*
X88880000Y-139605000D03*
D20*
X89534995Y-140335004D02*
X88225005Y-138874996D01*
D19*
X83205000Y-138085000D03*
D20*
X83185001Y-137795000D02*
X83224999Y-138375000D01*
D19*
X82570000Y-139605000D03*
D20*
X81915005Y-140335004D02*
X83224995Y-138874996D01*
D21*
X83185000Y-137795000D03*
X83225000Y-138375000D03*
X89535000Y-140335000D03*
X88225000Y-138875000D03*
X81915000Y-140335000D03*
X83225000Y-138875000D03*
X88265000Y-137795000D03*
X88225000Y-138375000D03*
D19*
X88245000Y-138085000D03*
D20*
X88264999Y-137795000D02*
X88225001Y-138375000D01*
D19*
X107930000Y-68167500D03*
D20*
X108584995Y-68897504D02*
X107275005Y-67437496D01*
D19*
X102255000Y-66647500D03*
D20*
X102235001Y-66357500D02*
X102274999Y-66937500D01*
D19*
X101620000Y-68167500D03*
D20*
X100965005Y-68897504D02*
X102274995Y-67437496D01*
D21*
X102235000Y-66357500D03*
X102275000Y-66937500D03*
X108585000Y-68897500D03*
X107275000Y-67437500D03*
X100965000Y-68897500D03*
X102275000Y-67437500D03*
X107315000Y-66357500D03*
X107275000Y-66937500D03*
D19*
X107295000Y-66647500D03*
D20*
X107314999Y-66357500D02*
X107275001Y-66937500D01*
D19*
X107295000Y-85697500D03*
D20*
X107314999Y-85407500D02*
X107275001Y-85987500D01*
D21*
X107275000Y-85987500D03*
X107315000Y-85407500D03*
X102275000Y-86487500D03*
X100965000Y-87947500D03*
X107275000Y-86487500D03*
X108585000Y-87947500D03*
X102275000Y-85987500D03*
X102235000Y-85407500D03*
D19*
X101620000Y-87217500D03*
D20*
X100965005Y-87947504D02*
X102274995Y-86487496D01*
D19*
X102255000Y-85697500D03*
D20*
X102235001Y-85407500D02*
X102274999Y-85987500D01*
D19*
X107930000Y-87217500D03*
D20*
X108584995Y-87947504D02*
X107275005Y-86487496D01*
D19*
X107930000Y-106267500D03*
D20*
X108584995Y-106997504D02*
X107275005Y-105537496D01*
D19*
X102255000Y-104747500D03*
D20*
X102235001Y-104457500D02*
X102274999Y-105037500D01*
D19*
X101620000Y-106267500D03*
D20*
X100965005Y-106997504D02*
X102274995Y-105537496D01*
D21*
X102235000Y-104457500D03*
X102275000Y-105037500D03*
X108585000Y-106997500D03*
X107275000Y-105537500D03*
X100965000Y-106997500D03*
X102275000Y-105537500D03*
X107315000Y-104457500D03*
X107275000Y-105037500D03*
D19*
X107295000Y-104747500D03*
D20*
X107314999Y-104457500D02*
X107275001Y-105037500D01*
D19*
X107295000Y-123797500D03*
D20*
X107314999Y-123507500D02*
X107275001Y-124087500D01*
D21*
X107275000Y-124087500D03*
X107315000Y-123507500D03*
X102275000Y-124587500D03*
X100965000Y-126047500D03*
X107275000Y-124587500D03*
X108585000Y-126047500D03*
X102275000Y-124087500D03*
X102235000Y-123507500D03*
D19*
X101620000Y-125317500D03*
D20*
X100965005Y-126047504D02*
X102274995Y-124587496D01*
D19*
X102255000Y-123797500D03*
D20*
X102235001Y-123507500D02*
X102274999Y-124087500D01*
D19*
X107930000Y-125317500D03*
D20*
X108584995Y-126047504D02*
X107275005Y-124587496D01*
D19*
X126345000Y-61885000D03*
D20*
X126364999Y-61595000D02*
X126325001Y-62175000D01*
D21*
X126325000Y-62175000D03*
X126365000Y-61595000D03*
X121325000Y-62675000D03*
X120015000Y-64135000D03*
X126325000Y-62675000D03*
X127635000Y-64135000D03*
X121325000Y-62175000D03*
X121285000Y-61595000D03*
D19*
X120670000Y-63405000D03*
D20*
X120015005Y-64135004D02*
X121324995Y-62674996D01*
D19*
X121305000Y-61885000D03*
D20*
X121285001Y-61595000D02*
X121324999Y-62175000D01*
D19*
X126980000Y-63405000D03*
D20*
X127634995Y-64135004D02*
X126325005Y-62674996D01*
D19*
X126345000Y-119035000D03*
D20*
X126364999Y-118745000D02*
X126325001Y-119325000D01*
D21*
X126325000Y-119325000D03*
X126365000Y-118745000D03*
X121325000Y-119825000D03*
X120015000Y-121285000D03*
X126325000Y-119825000D03*
X127635000Y-121285000D03*
X121325000Y-119325000D03*
X121285000Y-118745000D03*
D19*
X120670000Y-120555000D03*
D20*
X120015005Y-121285004D02*
X121324995Y-119824996D01*
D19*
X121305000Y-119035000D03*
D20*
X121285001Y-118745000D02*
X121324999Y-119325000D01*
D19*
X126980000Y-120555000D03*
D20*
X127634995Y-121285004D02*
X126325005Y-119824996D01*
D22*
X131445000Y-57467500D03*
D10*
X131445000Y-60007500D03*
X131445000Y-62547500D03*
X131445000Y-65087500D03*
X131445000Y-67627500D03*
X131445000Y-70167500D03*
X131445000Y-72707500D03*
X131445000Y-75247500D03*
X131445000Y-77787500D03*
X131445000Y-80327500D03*
X131445000Y-82867500D03*
X116205000Y-85407500D03*
X116205000Y-82867500D03*
X116205000Y-80327500D03*
X116205000Y-77787500D03*
X116205000Y-75247500D03*
X116205000Y-72707500D03*
X116205000Y-70167500D03*
X116205000Y-67627500D03*
X116205000Y-65087500D03*
X116205000Y-62547500D03*
X116205000Y-60007500D03*
X131445000Y-85407500D03*
X116205000Y-57467500D03*
D23*
X171450000Y-95250000D03*
X171450000Y-133350000D03*
X133350000Y-114300000D03*
X135731250Y-85725000D03*
X95250000Y-123825000D03*
X95250000Y-90487500D03*
M02*
